<?xml version="1.0" encoding="UTF-8" standalone="no"?>
<!DOCTYPE svg PUBLIC "-//W3C//DTD SVG 1.1//EN" "http://www.w3.org/Graphics/SVG/1.1/DTD/svg11.dtd">
<svg width="100%" height="100%" viewBox="0 0 263 195" version="1.1" xmlns="http://www.w3.org/2000/svg" xmlns:xlink="http://www.w3.org/1999/xlink" xml:space="preserve" xmlns:serif="http://www.serif.com/" style="fill-rule:evenodd;clip-rule:evenodd;">
    <g>
        <path d="M256.5,77C253.612,77.688 245.207,81.394 243.257,85.142C242.564,86.474 243.937,87.601 245.43,87.757C249.404,88.173 255.507,88.941 252,90.5C247.5,92.5 244.667,94.667 243,94.5" style="fill:none;fill-rule:nonzero;stroke:rgb(241,219,255);stroke-width:3px;"/>
        <path d="M6,94C8.888,94.688 17.293,98.394 19.243,102.142C19.936,103.474 18.563,104.601 17.07,104.757C13.096,105.173 6.993,105.941 10.5,107.5C15,109.5 17.833,111.667 19.5,111.5" style="fill:none;fill-rule:nonzero;stroke:rgb(241,219,255);stroke-width:3px;"/>
        <g transform="matrix(-1,0,0,1,258.5,97)">
            <circle cx="2.5" cy="2.5" r="2.5" style="fill:rgb(241,219,255);"/>
        </g>
        <circle cx="6.5" cy="116.5" r="2.5" style="fill:rgb(241,219,255);"/>
        <path d="M262.5,108.5C250.5,108.5 245.5,109.5 244.5,110" style="fill:none;fill-rule:nonzero;stroke:rgb(241,219,255);stroke-width:3px;"/>
        <path d="M0,125.5C12,125.5 17,126.5 18,127" style="fill:none;fill-rule:nonzero;stroke:rgb(241,219,255);stroke-width:3px;"/>
    </g>
    <g>
        <path d="M52.077,134.682C40.071,97.335 83.23,68.029 104.24,58.61L108.587,56.437C108.587,52.09 94,32.5 117.5,24C132.306,18.645 137.5,21 142,28L152.056,47.743L156.403,49.917C166,33.5 168.25,30.354 184,38.5C198.5,46 196.974,56.437 193.352,60.784L186.831,69.478C200.741,78.172 210.015,93.386 212.913,99.906C215.268,105.205 227.211,123.933 208.566,156.416C189.957,188.836 143.362,194.26 117.281,191.191C96.498,188.746 63.896,171.449 52.077,134.682Z" style="fill:rgb(233,187,23);fill-rule:nonzero;stroke:rgb(233,187,23);stroke-width:1px;"/>
        <path d="M130.422,167.102C83.476,165.363 58.149,137.125 49.456,126.257C51.629,145.818 59.695,182.092 106.514,191.01C162.679,201.708 183.938,188.13 206.494,162.755C223.881,143.194 222,116.644 216.204,105.052C208.235,126.062 177.369,168.841 130.422,167.102Z" style="fill:rgb(222,180,29);fill-rule:nonzero;stroke:rgb(217,175,28);stroke-width:0.2px;"/>
    </g>
    <g>
        <circle cx="104.34" cy="104.071" r="28.255" style="fill:white;"/>
        <circle cx="160.85" cy="104.071" r="28.255" style="fill:white;"/>
        <g transform="matrix(-1,1.22515e-16,-1.22515e-16,-1,324.697,220.705)">
            <path d="M174.177,106.245C175.22,106.245 176.078,107.094 175.928,108.125C175.773,109.191 175.486,110.236 175.072,111.235C174.416,112.818 173.456,114.255 172.245,115.466C171.034,116.677 169.596,117.638 168.014,118.293C166.432,118.948 164.736,119.286 163.024,119.286C161.311,119.286 159.615,118.948 158.033,118.293C156.451,117.638 155.013,116.677 153.802,115.466C152.592,114.255 151.631,112.818 150.976,111.235C150.562,110.236 150.275,109.191 150.119,108.125C149.969,107.094 150.828,106.245 151.87,106.245C152.912,106.245 153.738,107.098 153.949,108.119C154.066,108.69 154.238,109.25 154.462,109.791C154.928,110.915 155.611,111.937 156.471,112.797C157.332,113.658 158.353,114.34 159.477,114.806C160.602,115.272 161.807,115.511 163.024,115.511C164.241,115.511 165.446,115.272 166.57,114.806C167.694,114.34 168.716,113.658 169.576,112.797C170.437,111.937 171.119,110.915 171.585,109.791C171.809,109.25 171.981,108.69 172.099,108.119C172.31,107.098 173.135,106.245 174.177,106.245Z" style="fill:rgb(41,38,38);fill-rule:nonzero;"/>
        </g>
        <g id="Layer1">
            <path d="M110.303,94.955C116.515,94.955 121.558,101.356 121.558,109.241C121.558,117.125 116.515,123.526 110.303,123.526C104.091,123.526 99.048,117.125 99.048,109.241C99.048,101.356 104.091,94.955 110.303,94.955ZM113.161,97.314C114.817,97.314 116.162,99.405 116.162,101.981C116.162,104.557 114.817,106.648 113.161,106.648C111.505,106.648 110.16,104.557 110.16,101.981C110.16,99.405 111.505,97.314 113.161,97.314Z"/>
            <ellipse cx="107.815" cy="105.148" rx="1.429" ry="2.23" style="fill:white;"/>
        </g>
    </g>
    <g>
        <path d="M240.114,100.818L235.915,100.971L236.222,109.37L236.605,119.868L240.804,119.715C242.3,114.615 240.968,104.992 240.114,100.818Z" style="fill:rgb(197,165,243);fill-rule:nonzero;stroke:rgb(117,201,115);stroke-width:0.2px;"/>
        <path d="M27.536,135.911L31.735,135.757L31.428,127.359L31.045,116.86L26.846,117.013C25.35,122.114 26.682,131.737 27.536,135.911Z" style="fill:rgb(197,165,243);fill-rule:nonzero;stroke:rgb(117,201,115);stroke-width:0.2px;"/>
        <path d="M46.467,97.58L52.886,150.747L36.345,147.67C34.111,144.554 29.838,131.972 30.622,106.568L38.545,102.074L34.007,57.159C59.058,27.016 130.562,-19.391 216.167,36.116L220.863,82.598L231.132,85.782C233.976,91.474 238.812,107.904 235.406,128.086L219.71,133.365L214.397,80.169L220.863,82.598L216.167,36.116C130.562,-19.391 59.058,27.016 34.007,57.159L38.545,102.074L46.467,97.58Z" style="fill:rgb(111,33,158);fill-rule:nonzero;"/>
        <path d="M38.545,102.074L30.622,106.568C29.838,131.972 34.111,144.554 36.345,147.67L52.886,150.747L46.467,97.58L38.545,102.074ZM38.545,102.074L34.007,57.159C59.058,27.016 130.562,-19.391 216.167,36.116L220.863,82.598M220.863,82.598L214.397,80.169L219.71,133.365L235.406,128.086C238.812,107.904 233.976,91.474 231.132,85.782L220.863,82.598Z" style="fill:none;fill-rule:nonzero;stroke:rgb(111,33,158);stroke-width:1px;"/>
        <path d="M38.657,146.053C36.163,137.945 31.736,119.058 33.984,108.379" style="fill:none;fill-rule:nonzero;stroke:rgb(197,165,243);stroke-width:1px;"/>
        <path d="M227.886,87.919C230.091,96.414 233.798,116.135 230.984,127.068" style="fill:none;fill-rule:nonzero;stroke:rgb(197,165,243);stroke-width:1px;"/>
    </g>
    <path d="M115,148C121.413,154.037 137.792,162.489 152,148" style="fill:none;fill-rule:nonzero;stroke:black;stroke-width:1px;stroke-linecap:round;"/>
</svg>
