<?xml version="1.0" encoding="UTF-8" standalone="no"?>
<!DOCTYPE svg PUBLIC "-//W3C//DTD SVG 1.1//EN" "http://www.w3.org/Graphics/SVG/1.1/DTD/svg11.dtd">
<!-- Created with Vectornator (http://vectornator.io/) -->
<svg height="100%" stroke-miterlimit="10" style="fill-rule:nonzero;clip-rule:evenodd;stroke-linecap:round;stroke-linejoin:round;" version="1.1" viewBox="0 0 215 266" width="100%" xml:space="preserve" xmlns="http://www.w3.org/2000/svg" xmlns:vectornator="http://vectornator.io" xmlns:xlink="http://www.w3.org/1999/xlink">
<defs/>
<g id="Untitled" vectornator:layerName="Untitled">
<path d="M145.099 246.773L193.818 246.773L193.818 261.837C193.818 264.047 192.027 265.837 189.818 265.837L149.099 265.837C146.889 265.837 145.099 264.047 145.099 261.837L145.099 246.773Z" fill="#bc991b" fill-rule="nonzero" opacity="1" stroke="none" vectornator:layerName="path"/>
<path d="M22.2412 246.773L70.9604 246.773L70.9604 261.837C70.9604 264.047 69.1696 265.837 66.9604 265.837L26.2412 265.837C24.0321 265.837 22.2412 264.047 22.2412 261.837L22.2412 246.773Z" fill="#bc991b" fill-rule="nonzero" opacity="1" stroke="none" vectornator:layerName="path"/>
<path d="M161.758 0L54.2735 0C50.4354 0 47.1381 2.7258 46.4163 6.49543L1.82003 239.387C0.875594 244.319 4.65561 248.892 9.67726 248.892L205.363 248.892C210.371 248.892 214.148 244.342 213.226 239.419L169.621 6.52771C168.913 2.74299 165.608 0 161.758 0Z" fill="#e9bb17" fill-rule="nonzero" opacity="1" stroke="none" vectornator:layerName="path"/>
<path d="M141.689 21.1824L73.4049 21.1824C69.5367 21.1824 66.2225 23.95 65.533 27.7563L41.9537 157.914C41.0644 162.823 44.8364 167.34 49.8256 167.34L167.155 167.34C172.19 167.34 175.973 162.745 175.006 157.804L149.54 27.6463C148.806 23.8914 145.515 21.1824 141.689 21.1824Z" fill="#6f219e" fill-rule="nonzero" opacity="1" stroke="none" vectornator:layerName="path"/>
<path d="M92.0246 46.542L101.557 46.542L101.557 66.6651M101.557 66.6651L92.0246 66.6651M101.557 66.6651L101.557 87.8474M101.557 87.8474L92.0246 87.8474M101.557 87.8474L101.557 109.03M101.557 109.03L92.0246 109.03M101.557 109.03L101.557 130.212M101.557 130.212L92.0246 130.212M101.557 130.212L101.557 151.394L92.0246 151.394" fill="none" opacity="1" stroke="#ff912c" stroke-linecap="butt" stroke-linejoin="miter" stroke-width="5" vectornator:layerName="path"/>
<path d="M126.556 46.542L117.024 46.542L117.024 66.6651M117.024 66.6651L126.556 66.6651M117.024 66.6651L117.024 87.8474M117.024 87.8474L126.556 87.8474M117.024 87.8474L117.024 109.03M117.024 109.03L126.556 109.03M117.024 109.03L117.024 130.212M117.024 130.212L126.556 130.212M117.024 130.212L117.024 151.394L126.556 151.394" fill="none" opacity="1" stroke="#ff912c" stroke-linecap="butt" stroke-linejoin="miter" stroke-width="5" vectornator:layerName="path"/>
<path d="M98.4385 167.34L98.4385 21.1824L120.68 21.1824L120.68 167.34L98.4385 167.34Z" fill="#e7f2e7" fill-rule="nonzero" opacity="1" stroke="none" vectornator:layerName="path"/>
<path d="M94.261 167.34L59.3102 110.148L34.9506 85.7882L40.2462 82.6109L4.23633 24.3597L19.0639 14.8276L56.1329 73.0789L61.4284 69.9015L74.1378 101.675L117.561 167.34L94.261 167.34Z" fill="#bf8bdf" fill-rule="nonzero" opacity="1" stroke="none" vectornator:layerName="path"/>
<path d="M128.697 229.429C121.916 222.42 104.77 212.763 90.4219 230.21" fill="none" opacity="1" stroke="#000000" stroke-linecap="round" stroke-linejoin="miter" stroke-width="1" vectornator:layerName="path 1"/>
<path d="M61.4285 69.9014L34.9507 85.7881L59.3103 110.148L74.1379 101.675L61.4285 69.9014Z" fill="#e7f2e7" fill-rule="nonzero" opacity="1" stroke="none" vectornator:layerName="path"/>
<path d="M85 200C85 193.373 90.3726 188 97 188C103.627 188 109 193.373 109 200C109 206.627 103.627 212 97 212C90.3726 212 85 206.627 85 200Z" fill="#ffffff" fill-rule="nonzero" opacity="1" stroke="none" vectornator:layerName="circle"/>
<path d="M109 200C109 193.373 114.373 188 121 188C127.627 188 133 193.373 133 200C133 206.627 127.627 212 121 212C114.373 212 109 206.627 109 200Z" fill="#ffffff" fill-rule="nonzero" opacity="1" stroke="none" vectornator:layerName="circle"/>
<path d="M121.488 192.973C117.662 192.973 114.56 196.779 114.56 201.489C114.56 206.199 117.662 210.019 121.488 210.019C125.313 210.019 128.415 206.199 128.415 201.489C128.415 199.753 127.989 198.147 127.265 196.8C126.669 197.615 125.903 198.146 125.042 198.146C123.182 198.146 121.675 195.845 121.669 192.988C121.607 192.986 121.55 192.973 121.488 192.973Z" fill="#000000" fill-rule="nonzero" opacity="1" stroke="none" vectornator:layerName="Curve 1"/>
<path d="M96.7908 193.383C93.0569 193.383 90.0299 197.097 90.0299 201.694C90.0299 206.29 93.0569 210.019 96.7908 210.019C100.525 210.019 103.552 206.29 103.552 201.694C103.552 200 103.136 198.432 102.43 197.118C101.848 197.913 101.1 198.432 100.26 198.432C98.4445 198.432 96.9734 196.186 96.9679 193.398C96.9077 193.396 96.8514 193.383 96.7908 193.383Z" fill="#000000" fill-rule="nonzero" opacity="1" stroke="none" vectornator:layerName="Curve 2"/>
</g>
</svg>
