<svg width="254" height="242" viewBox="0 0 254 242" fill="none" xmlns="http://www.w3.org/2000/svg">
<path d="M101.961 6.00001L107.726 22.6757L113.492 39.3513C122.508 65.426 115.616 71.0675 97.7693 90.2726C79.9229 109.478 61.6646 129.459 54.7662 137.049C48.1403 144.771 34.8646 165.654 34.7692 187.411C34.6738 209.168 39.9471 228.616 42.5957 235.621" stroke="url(#paint0_linear_101_318)" stroke-width="10" stroke-linecap="round"/>
<path d="M94.3908 154.353C42.7768 170.8 35.4648 216.883 38.2605 237.87C38.4573 239.681 40.7158 240.96 42.2165 241.532C42.584 241.672 42.9767 241.724 43.37 241.724H246.007C252.201 242.238 253.749 236.799 253.749 234.015V35.439C253.749 35.0554 253.695 34.6671 253.575 34.3026C250.934 26.2341 245.74 28.702 243.426 31.006L231.302 44.8898C230.793 45.4721 230.119 45.8988 229.373 46.1027C208.455 51.8213 197.784 48.3059 195.038 45.782L180.744 31.5487C180.384 31.1902 179.96 30.8973 179.484 30.7197C173.511 28.4914 170.546 31.5376 169.524 33.9858C169.29 34.5473 169.301 35.1661 169.4 35.7666C171.126 46.3324 168.321 74.4435 166.65 87.5402C164.07 102.959 146.005 137.907 94.3908 154.353Z" fill="#E9BB17"/>
<path d="M81.8496 232.898V220.044C87.6338 220.044 87.6338 220.044 87.6338 214.903V189.195H98.5594C98.3451 195.836 98.5594 210.247 98.5594 214.903C98.5594 220.044 98.5594 220.044 103.701 220.044V232.898H81.8496Z" fill="#FEFCFF"/>
<path d="M108.842 232.897V220.044C114.626 220.044 114.626 220.044 114.626 214.373V187.91H125.552C125.338 194.746 125.552 209.58 125.552 214.373C125.552 220.044 125.552 220.044 130.694 220.044V232.897H108.842Z" fill="#FEFCFF"/>
<path d="M189.82 232.897V218.758C194.448 218.758 195.604 218.758 195.604 214.373V187.91H206.53C206.316 194.746 206.53 209.582 206.53 214.373C206.53 219.401 206.53 218.758 211.672 218.758V232.897H189.82Z" fill="#FEFCFF"/>
<path d="M157.686 232.897H135.835V220.044C141.619 220.044 141.619 220.687 141.619 215.913V187.91H157.686V232.897Z" fill="#FEFCFF"/>
<path d="M239.95 232.897H218.099V218.758C224.525 218.758 223.883 218.758 223.883 215.123V187.91H239.95V232.897Z" fill="#FEFCFF"/>
<path d="M162.827 232.897H184.679V218.758C178.895 218.758 178.895 218.758 178.895 215.123V187.91H162.827V232.897Z" fill="#FEFCFF"/>
<path d="M75.4228 232.897V220.044C69.6386 220.044 69.6386 219.401 69.6386 214.282V194.336C59.3557 201.251 55.4996 222.925 54.8569 232.897H75.4228Z" fill="#FEFCFF"/>
<circle cx="195.249" cy="74.2583" r="16.5" fill="white"/>
<circle cx="228.249" cy="74.2583" r="16.5" fill="white"/>
<path d="M202.664 75.7583C203.263 75.7583 203.756 76.2461 203.68 76.8407C203.593 77.5191 203.425 78.1844 203.178 78.8198C202.801 79.7904 202.249 80.6723 201.552 81.4152C200.856 82.158 200.029 82.7473 199.119 83.1493C198.209 83.5514 197.234 83.7583 196.249 83.7583C195.264 83.7583 194.289 83.5514 193.379 83.1493C192.469 82.7473 191.642 82.158 190.946 81.4152C190.249 80.6723 189.697 79.7904 189.32 78.8198C189.073 78.1844 188.905 77.5191 188.818 76.8407C188.742 76.2461 189.235 75.7583 189.834 75.7583C190.434 75.7583 190.91 76.248 191.017 76.8378C191.084 77.2124 191.188 77.5796 191.325 77.9337C191.593 78.6234 191.986 79.2501 192.481 79.778C192.975 80.3059 193.563 80.7246 194.21 81.0103C194.856 81.296 195.549 81.443 196.249 81.443C196.949 81.443 197.642 81.296 198.289 81.0103C198.935 80.7246 199.523 80.3059 200.017 79.778C200.512 79.2501 200.905 78.6234 201.173 77.9337C201.31 77.5796 201.414 77.2124 201.481 76.8378C201.588 76.248 202.064 75.7583 202.664 75.7583Z" fill="#292626"/>
<path d="M235.664 75.7583C236.263 75.7583 236.756 76.2461 236.68 76.8407C236.593 77.5191 236.425 78.1844 236.178 78.8198C235.801 79.7904 235.249 80.6723 234.552 81.4152C233.856 82.158 233.029 82.7473 232.119 83.1493C231.209 83.5514 230.234 83.7583 229.249 83.7583C228.264 83.7583 227.289 83.5514 226.379 83.1493C225.469 82.7473 224.642 82.158 223.946 81.4152C223.249 80.6723 222.697 79.7904 222.32 78.8198C222.073 78.1844 221.905 77.5191 221.818 76.8407C221.742 76.2461 222.235 75.7583 222.834 75.7583C223.434 75.7583 223.91 76.248 224.017 76.8378C224.084 77.2124 224.188 77.5796 224.325 77.9337C224.593 78.6234 224.986 79.2501 225.481 79.778C225.975 80.3059 226.563 80.7246 227.21 81.0103C227.856 81.296 228.549 81.443 229.249 81.443C229.949 81.443 230.642 81.296 231.289 81.0103C231.935 80.7246 232.523 80.3059 233.017 79.778C233.512 79.2501 233.905 78.6234 234.173 77.9337C234.31 77.5796 234.414 77.2124 234.481 76.8378C234.588 76.248 235.064 75.7583 235.664 75.7583Z" fill="#292626"/>
<path d="M206 97C208.167 99.3333 213.7 102.6 218.5 97" stroke="black" stroke-linecap="round"/>
<path d="M173.42 31C172.253 38.8333 172.82 53.6 184.42 50C196.02 46.4 181.92 35.8333 173.42 31Z" fill="#6F219E"/>
<path d="M250.349 30.0312C252.095 37.756 252.629 52.5239 240.794 49.7972C228.958 47.0706 242.232 35.4838 250.349 30.0312Z" fill="#6F219E"/>
<defs>
<linearGradient id="paint0_linear_101_318" x1="38.5" y1="236" x2="45" y2="61.5" gradientUnits="userSpaceOnUse">
<stop stop-color="#E9BB17"/>
<stop offset="0.0001" stop-color="#CCA20F"/>
<stop offset="1" stop-color="#E9BB17"/>
</linearGradient>
</defs>
</svg>
