<?xml version="1.0" encoding="UTF-8" standalone="no"?>
<!DOCTYPE svg PUBLIC "-//W3C//DTD SVG 1.1//EN" "http://www.w3.org/Graphics/SVG/1.1/DTD/svg11.dtd">
<svg width="100%" height="100%" viewBox="0 0 254 242" version="1.1" xmlns="http://www.w3.org/2000/svg" xmlns:xlink="http://www.w3.org/1999/xlink" xml:space="preserve" xmlns:serif="http://www.serif.com/" style="fill-rule:evenodd;clip-rule:evenodd;stroke-linecap:round;">
    <path d="M101.961,6L107.726,22.676L113.492,39.351C122.508,65.426 115.616,71.068 97.769,90.273C79.923,109.478 61.665,129.459 54.766,137.049C48.14,144.771 34.865,165.654 34.769,187.411C34.674,209.168 39.947,228.616 42.596,235.621" style="fill:none;fill-rule:nonzero;stroke:url(#_Linear1);stroke-width:10px;"/>
    <path d="M94.391,154.353C42.777,170.8 35.465,216.883 38.261,237.87C38.457,239.681 40.716,240.96 42.217,241.532C42.584,241.672 42.977,241.724 43.37,241.724L246.007,241.724C252.201,242.238 253.749,236.799 253.749,234.015L253.749,35.439C253.749,35.055 253.695,34.667 253.575,34.303C250.934,26.234 245.74,28.702 243.426,31.006L231.302,44.89C230.793,45.472 230.119,45.899 229.373,46.103C208.455,51.821 197.784,48.306 195.038,45.782L180.744,31.549C180.384,31.19 179.96,30.897 179.484,30.72C173.511,28.491 170.546,31.538 169.524,33.986C169.29,34.547 169.301,35.166 169.4,35.767C171.126,46.332 168.321,74.444 166.65,87.54C164.07,102.959 146.005,137.907 94.391,154.353Z" style="fill:rgb(233,187,23);fill-rule:nonzero;"/>
    <path d="M81.85,232.898L81.85,220.044C87.634,220.044 87.634,220.044 87.634,214.903L87.634,189.195L98.559,189.195C98.345,195.836 98.559,210.247 98.559,214.903C98.559,220.044 98.559,220.044 103.701,220.044L103.701,232.898L81.85,232.898Z" style="fill:rgb(254,252,255);fill-rule:nonzero;"/>
    <path d="M108.842,232.897L108.842,220.044C114.626,220.044 114.626,220.044 114.626,214.373L114.626,187.91L125.552,187.91C125.338,194.746 125.552,209.58 125.552,214.373C125.552,220.044 125.552,220.044 130.694,220.044L130.694,232.897L108.842,232.897Z" style="fill:rgb(254,252,255);fill-rule:nonzero;"/>
    <path d="M189.82,232.897L189.82,218.758C194.448,218.758 195.604,218.758 195.604,214.373L195.604,187.91L206.53,187.91C206.316,194.746 206.53,209.582 206.53,214.373C206.53,219.401 206.53,218.758 211.672,218.758L211.672,232.897L189.82,232.897Z" style="fill:rgb(254,252,255);fill-rule:nonzero;"/>
    <path d="M157.686,232.897L135.835,232.897L135.835,220.044C141.619,220.044 141.619,220.687 141.619,215.913L141.619,187.91L157.686,187.91L157.686,232.897Z" style="fill:rgb(254,252,255);fill-rule:nonzero;"/>
    <path d="M239.95,232.897L218.099,232.897L218.099,218.758C224.525,218.758 223.883,218.758 223.883,215.123L223.883,187.91L239.95,187.91L239.95,232.897Z" style="fill:rgb(254,252,255);fill-rule:nonzero;"/>
    <path d="M162.827,232.897L184.679,232.897L184.679,218.758C178.895,218.758 178.895,218.758 178.895,215.123L178.895,187.91L162.827,187.91L162.827,232.897Z" style="fill:rgb(254,252,255);fill-rule:nonzero;"/>
    <path d="M75.423,232.897L75.423,220.044C69.639,220.044 69.639,219.401 69.639,214.282L69.639,194.336C59.356,201.251 55.5,222.925 54.857,232.897L75.423,232.897Z" style="fill:rgb(254,252,255);fill-rule:nonzero;"/>
    <g>
        <circle cx="195.249" cy="74.258" r="16.5" style="fill:white;"/>
        <circle cx="228.249" cy="74.258" r="16.5" style="fill:white;"/>
        <g transform="matrix(-1,-1.22465e-16,1.22465e-16,-1,424.624,155.368)">
            <path d="M202.664,75.758C203.263,75.758 203.756,76.246 203.68,76.841C203.593,77.519 203.425,78.184 203.178,78.82C202.801,79.79 202.249,80.672 201.552,81.415C200.856,82.158 200.029,82.747 199.119,83.149C198.209,83.551 197.234,83.758 196.249,83.758C195.264,83.758 194.289,83.551 193.379,83.149C192.469,82.747 191.642,82.158 190.946,81.415C190.249,80.672 189.697,79.79 189.32,78.82C189.073,78.184 188.905,77.519 188.818,76.841C188.742,76.246 189.235,75.758 189.834,75.758C190.434,75.758 190.91,76.248 191.017,76.838C191.084,77.212 191.188,77.58 191.325,77.934C191.593,78.623 191.986,79.25 192.481,79.778C192.975,80.306 193.563,80.725 194.21,81.01C194.856,81.296 195.549,81.443 196.249,81.443C196.949,81.443 197.642,81.296 198.289,81.01C198.935,80.725 199.523,80.306 200.017,79.778C200.512,79.25 200.905,78.623 201.173,77.934C201.31,77.58 201.414,77.212 201.481,76.838C201.588,76.248 202.064,75.758 202.664,75.758Z" style="fill:rgb(41,38,38);fill-rule:nonzero;"/>
        </g>
        <path d="M206,97C208.167,99.333 213.7,102.6 218.5,97" style="fill:none;fill-rule:nonzero;stroke:black;stroke-width:1px;"/>
    </g>
    <g transform="matrix(0.577132,0,0,0.577132,135.578,13.5609)">
        <g id="Layer1">
            <path d="M110.303,94.955C116.515,94.955 121.558,101.356 121.558,109.241C121.558,117.125 116.515,123.526 110.303,123.526C104.091,123.526 99.048,117.125 99.048,109.241C99.048,101.356 104.091,94.955 110.303,94.955ZM113.161,97.314C114.817,97.314 116.162,99.405 116.162,101.981C116.162,104.557 114.817,106.648 113.161,106.648C111.505,106.648 110.16,104.557 110.16,101.981C110.16,99.405 111.505,97.314 113.161,97.314Z"/>
            <ellipse cx="107.815" cy="105.148" rx="1.429" ry="2.23" style="fill:white;"/>
        </g>
    </g>
    <path d="M173.42,31C172.253,38.833 172.82,53.6 184.42,50C196.02,46.4 181.92,35.833 173.42,31Z" style="fill:rgb(111,33,158);fill-rule:nonzero;"/>
    <path d="M250.349,30.031C252.095,37.756 252.629,52.524 240.794,49.797C228.958,47.071 242.232,35.484 250.349,30.031Z" style="fill:rgb(111,33,158);fill-rule:nonzero;"/>
    <defs>
        <linearGradient id="_Linear1" x1="0" y1="0" x2="1" y2="0" gradientUnits="userSpaceOnUse" gradientTransform="matrix(6.5,-174.5,174.5,6.5,38.5,236)"><stop offset="0" style="stop-color:rgb(233,187,23);stop-opacity:1"/><stop offset="0" style="stop-color:rgb(204,162,15);stop-opacity:1"/><stop offset="1" style="stop-color:rgb(233,187,23);stop-opacity:1"/></linearGradient>
    </defs>
</svg>
