<svg width="215" height="266" viewBox="0 0 215 266" fill="none" xmlns="http://www.w3.org/2000/svg">
<path d="M145.099 246.773H193.818V261.837C193.818 264.047 192.027 265.837 189.818 265.837H149.099C146.889 265.837 145.099 264.047 145.099 261.837V246.773Z" fill="#BC991B"/>
<path d="M22.2412 246.773H70.9604V261.837C70.9604 264.047 69.1696 265.837 66.9604 265.837H26.2412C24.0321 265.837 22.2412 264.047 22.2412 261.837V246.773Z" fill="#BC991B"/>
<path d="M161.758 0H54.2735C50.4354 0 47.1381 2.7258 46.4163 6.49543L1.82003 239.387C0.875594 244.319 4.65561 248.892 9.67726 248.892H205.363C210.371 248.892 214.148 244.342 213.226 239.419L169.621 6.52771C168.913 2.74299 165.608 0 161.758 0Z" fill="#E9BB17"/>
<path d="M141.689 21.1824H73.4049C69.5367 21.1824 66.2225 23.95 65.533 27.7563L41.9537 157.914C41.0644 162.823 44.8364 167.34 49.8256 167.34H167.155C172.19 167.34 175.973 162.745 175.006 157.804L149.54 27.6463C148.806 23.8914 145.515 21.1824 141.689 21.1824Z" fill="#6F219E"/>
<path d="M92.0246 46.542H101.557V66.6651M101.557 66.6651H92.0246M101.557 66.6651V87.8474M101.557 87.8474H92.0246M101.557 87.8474V109.03M101.557 109.03H92.0246M101.557 109.03V130.212M101.557 130.212H92.0246M101.557 130.212V151.394H92.0246" stroke="#FF912C" stroke-width="5"/>
<path d="M126.556 46.542H117.024V66.6651M117.024 66.6651H126.556M117.024 66.6651V87.8474M117.024 87.8474H126.556M117.024 87.8474V109.03M117.024 109.03H126.556M117.024 109.03V130.212M117.024 130.212H126.556M117.024 130.212V151.394H126.556" stroke="#FF912C" stroke-width="5"/>
<path d="M98.4385 167.34V21.1824H120.68V167.34H98.4385Z" fill="#E7F2E7"/>
<path d="M94.261 167.34L59.3102 110.148L34.9506 85.7882L40.2462 82.6109L4.23633 24.3597L19.0639 14.8276L56.1329 73.0789L61.4284 69.9015L74.1378 101.675L117.561 167.34H94.261Z" fill="#BF8BDF"/>
<path d="M95.3203 224.532C99.9098 229.475 111.631 236.394 121.798 224.532" stroke="black" stroke-linecap="round"/>
<path d="M61.4285 69.9014L34.9507 85.7881L59.3103 110.148L74.1379 101.675L61.4285 69.9014Z" fill="#E7F2E7"/>
<circle cx="97" cy="200" r="12" fill="white"/>
<circle cx="121" cy="200" r="12" fill="white"/>
<path d="M102.204 200.5C102.644 200.5 103.006 200.858 102.943 201.293C102.877 201.743 102.756 202.183 102.581 202.605C102.305 203.272 101.9 203.878 101.389 204.389C100.878 204.9 100.272 205.305 99.6048 205.581C98.9375 205.858 98.2223 206 97.5 206C96.7777 206 96.0625 205.858 95.3952 205.581C94.728 205.305 94.1216 204.9 93.6109 204.389C93.1002 203.878 92.6951 203.272 92.4187 202.605C92.2441 202.183 92.123 201.743 92.0575 201.293C91.9941 200.858 92.3563 200.5 92.7959 200.5C93.2354 200.5 93.5836 200.86 93.6725 201.29C93.7222 201.531 93.7947 201.767 93.8893 201.996C94.0857 202.47 94.3735 202.901 94.7365 203.264C95.0994 203.626 95.5302 203.914 96.0044 204.111C96.4785 204.307 96.9868 204.408 97.5 204.408C98.0132 204.408 98.5214 204.307 98.9956 204.111C99.4698 203.914 99.9006 203.626 100.264 203.264C100.626 202.901 100.914 202.47 101.111 201.996C101.205 201.767 101.278 201.531 101.327 201.29C101.416 200.86 101.765 200.5 102.204 200.5Z" fill="#292626"/>
<path d="M126.204 200.5C126.644 200.5 127.006 200.858 126.943 201.293C126.877 201.743 126.756 202.183 126.581 202.605C126.305 203.272 125.9 203.878 125.389 204.389C124.878 204.9 124.272 205.305 123.605 205.581C122.937 205.858 122.222 206 121.5 206C120.778 206 120.063 205.858 119.395 205.581C118.728 205.305 118.122 204.9 117.611 204.389C117.1 203.878 116.695 203.272 116.419 202.605C116.244 202.183 116.123 201.743 116.057 201.293C115.994 200.858 116.356 200.5 116.796 200.5C117.235 200.5 117.584 200.86 117.673 201.29C117.722 201.531 117.795 201.767 117.889 201.996C118.086 202.47 118.374 202.901 118.736 203.264C119.099 203.626 119.53 203.914 120.004 204.111C120.479 204.307 120.987 204.408 121.5 204.408C122.013 204.408 122.521 204.307 122.996 204.111C123.47 203.914 123.901 203.626 124.264 203.264C124.626 202.901 124.914 202.47 125.111 201.996C125.205 201.767 125.278 201.531 125.327 201.29C125.416 200.86 125.765 200.5 126.204 200.5Z" fill="#292626"/>
</svg>
