<?xml version="1.0" encoding="UTF-8" standalone="no"?>
<!DOCTYPE svg PUBLIC "-//W3C//DTD SVG 1.1//EN" "http://www.w3.org/Graphics/SVG/1.1/DTD/svg11.dtd">
<svg width="100%" height="100%" viewBox="0 0 215 266" version="1.1" xmlns="http://www.w3.org/2000/svg" xmlns:xlink="http://www.w3.org/1999/xlink" xml:space="preserve" xmlns:serif="http://www.serif.com/" style="fill-rule:evenodd;clip-rule:evenodd;">
    <path d="M145.099,246.773L193.818,246.773L193.818,261.837C193.818,264.047 192.027,265.837 189.818,265.837L149.099,265.837C146.889,265.837 145.099,264.047 145.099,261.837L145.099,246.773Z" style="fill:rgb(188,153,27);fill-rule:nonzero;"/>
    <path d="M22.241,246.773L70.96,246.773L70.96,261.837C70.96,264.047 69.17,265.837 66.96,265.837L26.241,265.837C24.032,265.837 22.241,264.047 22.241,261.837L22.241,246.773Z" style="fill:rgb(188,153,27);fill-rule:nonzero;"/>
    <path d="M161.758,0L54.274,0C50.435,0 47.138,2.726 46.416,6.495L1.82,239.387C0.876,244.319 4.656,248.892 9.677,248.892L205.363,248.892C210.371,248.892 214.148,244.342 213.226,239.419L169.621,6.528C168.913,2.743 165.608,0 161.758,0Z" style="fill:rgb(233,187,23);fill-rule:nonzero;"/>
    <path d="M141.689,21.182L73.405,21.182C69.537,21.182 66.223,23.95 65.533,27.756L41.954,157.914C41.064,162.823 44.836,167.34 49.826,167.34L167.155,167.34C172.19,167.34 175.973,162.745 175.006,157.804L149.54,27.646C148.806,23.891 145.515,21.182 141.689,21.182Z" style="fill:rgb(111,33,158);fill-rule:nonzero;"/>
    <path d="M92.025,46.542L101.557,46.542L101.557,66.665M101.557,66.665L92.025,66.665M101.557,66.665L101.557,87.847M101.557,87.847L92.025,87.847M101.557,87.847L101.557,109.03M101.557,109.03L92.025,109.03M101.557,109.03L101.557,130.212M101.557,130.212L92.025,130.212M101.557,130.212L101.557,151.394L92.025,151.394" style="fill:none;fill-rule:nonzero;stroke:rgb(255,145,44);stroke-width:5px;"/>
    <path d="M126.556,46.542L117.024,46.542L117.024,66.665M117.024,66.665L126.556,66.665M117.024,66.665L117.024,87.847M117.024,87.847L126.556,87.847M117.024,87.847L117.024,109.03M117.024,109.03L126.556,109.03M117.024,109.03L117.024,130.212M117.024,130.212L126.556,130.212M117.024,130.212L117.024,151.394L126.556,151.394" style="fill:none;fill-rule:nonzero;stroke:rgb(255,145,44);stroke-width:5px;"/>
    <rect x="98.439" y="21.182" width="22.242" height="146.158" style="fill:rgb(231,242,231);fill-rule:nonzero;"/>
    <path d="M94.261,167.34L59.31,110.148L34.951,85.788L40.246,82.611L4.236,24.36L19.064,14.828L56.133,73.079L61.428,69.902L74.138,101.675L117.561,167.34L94.261,167.34Z" style="fill:rgb(191,139,223);fill-rule:nonzero;"/>
    <path d="M61.429,69.901L34.951,85.788L59.31,110.148L74.138,101.675L61.429,69.901Z" style="fill:rgb(231,242,231);fill-rule:nonzero;"/>
    <g transform="matrix(0.425858,0,0,0.425858,52.6737,155.775)">
        <g>
            <circle cx="104.34" cy="104.071" r="28.255" style="fill:white;"/>
            <circle cx="160.85" cy="104.071" r="28.255" style="fill:white;"/>
            <g transform="matrix(-1,1.23165e-16,-1.23165e-16,-1,211.678,220.705)">
                <path d="M117.668,106.245C118.71,106.245 119.569,107.094 119.418,108.125C119.263,109.191 118.976,110.236 118.562,111.235C117.907,112.818 116.946,114.255 115.735,115.466C114.524,116.677 113.087,117.638 111.504,118.293C109.922,118.948 108.226,119.286 106.514,119.286C104.801,119.286 103.106,118.948 101.523,118.293C99.941,117.638 98.504,116.677 97.293,115.466C96.082,114.255 95.121,112.818 94.466,111.235C94.052,110.236 93.765,109.191 93.609,108.125C93.459,107.094 94.318,106.245 95.36,106.245C96.402,106.245 97.228,107.098 97.439,108.119C97.557,108.69 97.729,109.25 97.953,109.791C98.418,110.915 99.101,111.937 99.961,112.797C100.822,113.658 101.843,114.34 102.968,114.806C104.092,115.272 105.297,115.511 106.514,115.511C107.731,115.511 108.936,115.272 110.06,114.806C111.184,114.34 112.206,113.658 113.066,112.797C113.927,111.937 114.609,110.915 115.075,109.791C115.299,109.25 115.471,108.69 115.589,108.119C115.8,107.098 116.625,106.245 117.668,106.245Z" style="fill:rgb(41,38,38);fill-rule:nonzero;"/>
            </g>
            <g id="Layer1" transform="matrix(1,0,0,1,56.0235,-0.402657)">
                <path d="M110.303,94.955C116.515,94.955 121.558,101.356 121.558,109.241C121.558,117.125 116.515,123.526 110.303,123.526C104.091,123.526 99.048,117.125 99.048,109.241C99.048,101.356 104.091,94.955 110.303,94.955ZM113.161,97.314C114.817,97.314 116.162,99.405 116.162,101.981C116.162,104.557 114.817,106.648 113.161,106.648C111.505,106.648 110.16,104.557 110.16,101.981C110.16,99.405 111.505,97.314 113.161,97.314Z"/>
                <ellipse cx="107.815" cy="105.148" rx="1.429" ry="2.23" style="fill:white;"/>
            </g>
        </g>
    </g>
    <g>
        <path d="M95.32,224.532C99.91,229.475 111.631,236.394 121.798,224.532" style="fill:none;fill-rule:nonzero;stroke:black;stroke-width:1px;stroke-linecap:round;"/>
    </g>
</svg>
