<svg width="263" height="195" viewBox="0 0 263 195" fill="none" xmlns="http://www.w3.org/2000/svg">
<path d="M256.5 77C253.612 77.6877 245.207 81.3944 243.257 85.1418C242.564 86.4736 243.937 87.6007 245.43 87.7572C249.404 88.1734 255.507 88.9412 252 90.5C247.5 92.5 244.667 94.6667 243 94.5" stroke="#F1DBFF" stroke-width="3"/>
<path d="M6 94C8.88827 94.6877 17.2926 98.3944 19.243 102.142C19.9362 103.474 18.5633 104.601 17.0701 104.757C13.0961 105.173 6.99277 105.941 10.5 107.5C15 109.5 17.8333 111.667 19.5 111.5" stroke="#F1DBFF" stroke-width="3"/>
<circle cx="2.5" cy="2.5" r="2.5" transform="matrix(-1 0 0 1 258.5 97)" fill="#F1DBFF"/>
<circle cx="6.5" cy="116.5" r="2.5" fill="#F1DBFF"/>
<path d="M262.5 108.5C250.5 108.5 245.5 109.5 244.5 110" stroke="#F1DBFF" stroke-width="3"/>
<path d="M0 125.5C12 125.5 17 126.5 18 127" stroke="#F1DBFF" stroke-width="3"/>
<path d="M52.0766 134.682C40.0713 97.3354 83.2295 68.0287 104.24 58.6104L108.587 56.4369C108.587 52.09 94 32.5 117.5 24C132.306 18.6445 137.5 20.9999 142 28.0001L152.056 47.7432L156.403 49.9166C166 33.5001 168.25 30.3536 184 38.5001C198.5 46.0001 196.974 56.4369 193.352 60.7839L186.831 69.4777C200.741 78.1715 210.015 93.3858 212.913 99.9062C215.268 105.205 227.211 123.933 208.566 156.416C189.957 188.836 143.362 194.26 117.281 191.191C96.4977 188.746 63.8957 171.449 52.0766 134.682Z" fill="#E9BB17" stroke="#E9BB17"/>
<path d="M130.422 167.102C83.4756 165.363 58.1494 137.125 49.4556 126.257C51.629 145.818 59.6951 182.092 106.514 191.01C162.679 201.708 183.938 188.13 206.494 162.755C223.881 143.194 222 116.644 216.204 105.052C208.235 126.062 177.369 168.841 130.422 167.102Z" fill="#DEB41D" stroke="#D9AF1C" stroke-width="0.2"/>
<circle cx="104.34" cy="104.071" r="28.255" fill="white"/>
<circle cx="160.85" cy="104.071" r="28.255" fill="white"/>
<path d="M117.668 106.245C118.71 106.245 119.569 107.094 119.418 108.125C119.263 109.191 118.976 110.236 118.562 111.235C117.907 112.818 116.946 114.255 115.735 115.466C114.524 116.677 113.087 117.638 111.504 118.293C109.922 118.948 108.226 119.286 106.514 119.286C104.801 119.286 103.106 118.948 101.523 118.293C99.9412 117.638 98.5036 116.677 97.2927 115.466C96.0817 114.255 95.1212 112.818 94.4658 111.235C94.0518 110.236 93.7647 109.191 93.6094 108.125C93.4592 107.094 94.318 106.245 95.3602 106.245C96.4024 106.245 97.228 107.098 97.4388 108.119C97.5567 108.69 97.7285 109.25 97.9527 109.791C98.4184 110.915 99.1009 111.937 99.9614 112.797C100.822 113.658 101.843 114.34 102.968 114.806C104.092 115.272 105.297 115.511 106.514 115.511C107.731 115.511 108.936 115.272 110.06 114.806C111.184 114.34 112.206 113.658 113.066 112.797C113.927 111.937 114.609 110.915 115.075 109.791C115.299 109.25 115.471 108.69 115.589 108.119C115.8 107.098 116.625 106.245 117.668 106.245Z" fill="#292626"/>
<path d="M174.177 106.245C175.22 106.245 176.078 107.094 175.928 108.125C175.773 109.191 175.486 110.236 175.072 111.235C174.416 112.818 173.456 114.255 172.245 115.466C171.034 116.677 169.596 117.638 168.014 118.293C166.432 118.948 164.736 119.286 163.024 119.286C161.311 119.286 159.615 118.948 158.033 118.293C156.451 117.638 155.013 116.677 153.802 115.466C152.592 114.255 151.631 112.818 150.976 111.235C150.562 110.236 150.275 109.191 150.119 108.125C149.969 107.094 150.828 106.245 151.87 106.245C152.912 106.245 153.738 107.098 153.949 108.119C154.066 108.69 154.238 109.25 154.462 109.791C154.928 110.915 155.611 111.937 156.471 112.797C157.332 113.658 158.353 114.34 159.477 114.806C160.602 115.272 161.807 115.511 163.024 115.511C164.241 115.511 165.446 115.272 166.57 114.806C167.694 114.34 168.716 113.658 169.576 112.797C170.437 111.937 171.119 110.915 171.585 109.791C171.809 109.25 171.981 108.69 172.099 108.119C172.31 107.098 173.135 106.245 174.177 106.245Z" fill="#292626"/>
<path d="M240.114 100.818L235.915 100.971L236.222 109.37L236.605 119.868L240.804 119.715C242.3 114.615 240.968 104.992 240.114 100.818Z" fill="#C5A5F3" stroke="#75C973" stroke-width="0.2"/>
<path d="M27.5355 135.911L31.7349 135.757L31.4283 127.359L31.045 116.86L26.8456 117.013C25.3499 122.114 26.6823 131.737 27.5355 135.911Z" fill="#C5A5F3" stroke="#75C973" stroke-width="0.2"/>
<path d="M46.4672 97.5802L52.886 150.747L36.3453 147.67C34.1108 144.554 29.8379 131.972 30.6219 106.568L38.5446 102.074L34.0066 57.1586C59.0579 27.0163 130.562 -19.3912 216.167 36.1162L220.863 82.5983L231.132 85.7816C233.976 91.4738 238.812 107.904 235.406 128.086L219.71 133.365L214.397 80.1686L220.863 82.5983L216.167 36.1162C130.562 -19.3912 59.0579 27.0163 34.0066 57.1586L38.5446 102.074L46.4672 97.5802Z" fill="#6F219E"/>
<path d="M38.5446 102.074L30.6219 106.568C29.8379 131.972 34.1108 144.554 36.3453 147.67L52.886 150.747L46.4672 97.5802L38.5446 102.074ZM38.5446 102.074L34.0066 57.1586C59.0579 27.0163 130.562 -19.3912 216.167 36.1162L220.863 82.5983M220.863 82.5983L214.397 80.1686L219.71 133.365L235.406 128.086C238.812 107.904 233.976 91.4738 231.132 85.7816L220.863 82.5983Z" stroke="#6F219E"/>
<path d="M38.6572 146.053C36.1628 137.945 31.736 119.058 33.9843 108.379" stroke="#C5A5F3"/>
<path d="M227.886 87.9194C230.091 96.4137 233.798 116.135 230.984 127.068" stroke="#C5A5F3"/>
<path d="M115 148C121.413 154.037 137.792 162.489 152 148" stroke="black" stroke-linecap="round"/>
</svg>
