<svg width="72" height="72" viewBox="0 0 72 72" fill="none" xmlns="http://www.w3.org/2000/svg">
<path d="M36 72C55.8823 72 72 55.8822 72 36C72 16.1177 55.8823 0 36 0C16.1178 0 0 16.1177 0 36C0 55.8822 16.1178 72 36 72Z" fill="url(#paint0_radial_1215_20727)"/>
<path opacity="0.5" d="M9.88381 27.8545C9.34664 29.0949 8.61413 30.179 7.47143 30.0423C6.60219 29.9446 6.0455 29.0558 5.8404 28.2159C5.33253 26.1747 6.08457 24.0358 7.05147 22.1703C9.0634 18.3027 12.0227 14.6207 15.6364 12.1497C16.2126 11.759 16.8377 11.4074 17.5311 11.3488C18.2245 11.2902 18.9864 11.5832 19.2989 12.1985C20.2267 14.0542 16.3005 17.2772 15.2262 18.5078C13.517 20.4612 12.0715 22.6587 10.9484 25.0027C10.6554 25.6277 10.3428 26.7997 9.88381 27.8545Z" fill="#F5F9F4"/>
<path d="M32.3278 50.8551C31.1167 50.8355 29.9545 50.3277 29.1145 49.4487L17.3164 37.211C15.5584 35.3846 15.617 32.4839 17.4336 30.7259C19.2599 28.9679 22.1607 29.0265 23.9187 30.8431L32.5426 39.7894L50.2106 22.7563C52.0369 20.9983 54.9376 21.0569 56.6956 22.8735C58.4536 24.6999 58.3951 27.6006 56.5784 29.3586L35.6094 49.5659C34.7108 50.4156 33.5388 50.8746 32.3278 50.8551Z" fill="url(#paint1_linear_1215_20727)"/>
<defs>
<radialGradient id="paint0_radial_1215_20727" cx="0" cy="0" r="1" gradientUnits="userSpaceOnUse" gradientTransform="translate(36 36) rotate(90) scale(91.5 91.5)">
<stop stop-color="#75C973"/>
<stop offset="1" stop-color="#438342"/>
</radialGradient>
<linearGradient id="paint1_linear_1215_20727" x1="33.1091" y1="13.8198" x2="45.5699" y2="40.1572" gradientUnits="userSpaceOnUse">
<stop stop-color="white"/>
<stop offset="0.542854" stop-color="#FCE183"/>
<stop offset="0.9995" stop-color="#F8D867"/>
<stop offset="0.9996" stop-color="#F8D867"/>
<stop offset="0.9997" stop-color="#F8D867"/>
<stop offset="0.9998" stop-color="#F8D867"/>
<stop offset="0.9999" stop-color="#F6D44C"/>
<stop offset="1" stop-color="#F8D867"/>
</linearGradient>
</defs>
</svg>
