<svg width="72" height="96" viewBox="0 0 72 96" fill="none" xmlns="http://www.w3.org/2000/svg">
<g id="Group">
<g id="Group_2">
<path id="Vector" d="M18.0393 39.206V35.361C18.0393 24.6894 25.3334 12.213 34.8236 12.213H37.3334C46.7452 12.213 54.1177 24.6894 54.1177 35.361V39.206H64.0785V29.7898C64.0785 22.7277 61.3334 15.4302 56.4707 9.70203C51.2942 3.58154 44.5491 0.285889 37.4118 0.285889H34.5099C27.451 0.285889 20.7059 3.66001 15.451 9.70203C10.7452 15.3517 7.92163 22.7277 7.92163 29.7898V39.206H18.0393Z" fill="#E98427"/>
<path id="Vector_2" d="M71.8431 40.3829C71.6078 39.8337 71.2157 39.2844 70.7451 38.8921C70.0392 38.3428 69.2549 38.1074 68.3922 37.9504H3.29412C2.43137 38.1074 1.56863 38.3428 0.941176 38.9705C0.392157 39.4413 0.0784314 40.0691 0 40.7753C0 40.8538 0 41.0107 0 41.1676V55.1349C0 108.572 72 109.905 72 55.1349V41.0892C72 40.8538 71.9216 40.6183 71.8431 40.3829Z" fill="#ED9E4A"/>
<path id="Vector_3" d="M70.3529 41.1677C70.1176 40.6184 69.8038 40.1476 69.3333 39.7552C68.6274 39.2844 67.9215 39.049 67.1372 38.8921H4.54894C3.68619 39.049 2.90188 39.2844 2.27443 39.8337C1.72541 40.3045 1.41168 40.8538 1.33325 41.4815C1.33325 41.56 1.33325 41.7169 1.33325 41.8739V54.7426C1.33325 104.177 70.5097 105.433 70.5097 54.7426V41.8739C70.5097 41.6385 70.4313 41.4031 70.3529 41.1677Z" fill="#F3C27E"/>
<path id="Vector_4" d="M67.451 42.1093C67.2158 41.6385 66.902 41.2461 66.5099 40.9323C65.8824 40.5399 65.1765 40.3045 64.4707 40.1476H6.82359C6.03928 40.2261 5.3334 40.4615 4.78438 40.9323C4.31379 41.3246 4.00006 41.7954 3.92163 42.3447C3.92163 42.4232 3.92163 42.5016 3.92163 42.6586V53.6441C3.92163 95.7813 67.6079 96.8799 67.6079 53.6441V42.6586C67.5295 42.4232 67.5295 42.2662 67.451 42.1093Z" fill="#F8DCB0"/>
<path id="Vector_5" d="M44.5489 56.0765C44.5489 51.6823 40.7842 48.0728 36.0783 48.0728C31.3724 48.0728 27.6077 51.6823 27.6077 56.0765C27.6077 59.4507 29.8038 62.354 33.0195 63.531L26.9019 81.8925H44.6273L38.9803 63.6095C42.196 62.4324 44.5489 59.5291 44.5489 56.0765Z" fill="#B55119"/>
<g id="Group_3">
<path id="Vector_6" d="M29.8823 56.0765C29.8823 51.9962 33.098 48.6221 37.1764 48.1513C36.7843 48.0728 36.3921 48.0728 36 48.0728C31.2941 48.0728 27.5294 51.6823 27.5294 56.0765C27.5294 59.4507 29.7254 62.354 32.9411 63.531L26.8235 81.8925H29.098L35.2156 63.531C32.0784 62.354 29.8823 59.4507 29.8823 56.0765Z" fill="#B55119"/>
<path id="Vector_7" d="M44.5491 56.0766C44.5491 51.9962 41.3334 48.6221 37.1765 48.1513C33.0197 48.7006 29.8824 52.0747 29.8824 56.0766C29.8824 59.4507 32.0785 62.354 35.2942 63.531L29.1765 81.8925H44.5491L38.9804 63.6095C42.1961 62.4325 44.5491 59.5292 44.5491 56.0766Z" fill="#74371A"/>
</g>
<path id="Vector_8" d="M6.11773 43.2078C6.11773 43.2078 5.25498 45.3264 6.27459 47.2097C7.21577 49.0929 17.9609 46.268 17.7256 43.7571C17.4118 41.2461 7.68636 39.2844 6.11773 43.2078Z" fill="#FCF0D8"/>
<path id="Vector_9" d="M5.88243 52.3101C5.88243 52.3101 5.49028 54.1933 5.96087 55.9196C6.43145 57.5675 11.7648 55.135 11.6864 52.8594C11.4511 50.5054 6.66675 48.8575 5.88243 52.3101Z" fill="#FCF0D8"/>
<path id="Vector_10" opacity="0.5" d="M56.4706 9.70207C56 9.1528 55.6078 8.68199 55.1372 8.21118C55.3725 8.76046 55.5294 9.3882 55.6078 10.0159C55.6863 11.6638 54.9804 13.3901 53.7255 14.4101C52.549 15.3518 51.0588 15.3518 49.7255 14.8025C48.7843 14.4101 47.9216 13.7824 47.0588 13.2331C46.0392 12.6054 45.0196 12.0561 43.8431 11.6638C41.6471 10.8006 39.3725 10.4083 37.0196 10.3298C32.8627 10.2513 28.549 11.4284 25.098 13.8609C21.8824 16.1364 19.5294 19.3536 17.8824 22.8847C16.7059 25.3172 16.2353 28.142 14.4314 30.2607C13.6471 31.1238 12.6275 31.7515 11.451 31.5161C10.1176 31.2023 9.17647 30.4176 8.70588 29.1621C8.39216 28.3774 8.23529 27.5927 8.15686 26.8081C8.07843 27.7497 8 28.7698 8 29.7114V39.1275H18.1176V35.2826C18.1176 24.611 25.4118 12.1346 34.902 12.1346H37.4118C46.8235 12.1346 54.1961 24.611 54.1961 35.2826V37.7864H64.0784V29.7114C64.0784 22.7277 61.3333 15.3518 56.4706 9.70207Z" fill="#DA6A1C"/>
<path id="Vector_11" d="M9.17651 26.0233C9.17651 26.0233 13.4902 0.442766 40.0785 1.38438C40.0785 1.38438 16.4706 3.11067 9.17651 26.0233Z" fill="#F3C27E"/>
<path id="Vector_12" opacity="0.5" d="M18.1567 35.8318H8.03906V39.2059H18.1567V35.8318Z" fill="#B55119"/>
<path id="Vector_13" d="M66 32.2859H53V37.9511H66V32.2859Z" fill="#FAF5C7"/>
</g>
</g>
</svg>
