<svg width="72" height="96" viewBox="0 0 72 96" fill="none" xmlns="http://www.w3.org/2000/svg">
<g id="Group">
<g id="Group_2">
<path id="Vector" d="M18.0391 39.206V35.361C18.0391 24.6894 25.3332 12.213 34.8234 12.213H37.3332C46.745 12.213 54.1175 24.6894 54.1175 35.361V39.206H64.0783V29.7898C64.0783 22.7277 61.3332 15.4302 56.4705 9.70203C51.294 3.58154 44.5489 0.285889 37.4116 0.285889H34.5097C27.4509 0.285889 20.7058 3.66001 15.4509 9.70203C10.5881 15.3517 7.84302 22.6492 7.84302 29.7898V39.206H18.0391Z" fill="#696061"/>
<path id="Vector_2" d="M71.8431 40.3829C71.6078 39.8337 71.2157 39.2844 70.7451 38.8921C70.0392 38.3428 69.2549 38.1074 68.3922 37.9504H3.29412C2.43137 38.1074 1.56863 38.3428 0.941174 38.9705C0.392155 39.4413 0.0784314 40.0691 0 40.7753C0 40.8538 0 41.0107 0 41.1676V55.1349C0 108.572 72 109.905 72 55.1349V41.0892C72 40.8538 71.9216 40.6183 71.8431 40.3829Z" fill="#3F3B3C"/>
<path id="Vector_3" d="M70.353 41.1677C70.1178 40.6184 69.804 40.1476 69.3334 39.7552C68.6275 39.2844 67.9217 39.049 67.1374 38.8921H4.62755C3.76481 39.049 2.9805 39.2844 2.35305 39.8337C1.80403 40.3045 1.4903 40.8538 1.41187 41.4815C1.41187 41.56 1.41187 41.7169 1.41187 41.8739V54.7426C1.41187 104.177 70.5883 105.433 70.5883 54.7426V41.8739C70.4315 41.6385 70.4315 41.4031 70.353 41.1677Z" fill="#817676"/>
<path id="Vector_4" d="M67.3726 42.1093C67.1373 41.6385 66.8236 41.2461 66.4314 40.9323C65.804 40.5399 65.0981 40.3045 64.3922 40.1476H6.82359C6.03928 40.2261 5.33339 40.4615 4.78437 40.9323C4.31379 41.3246 4.00006 41.7954 3.92163 42.3447C3.92163 42.4232 3.92163 42.5016 3.92163 42.6586V53.6441C3.92163 95.7813 67.6079 96.8799 67.6079 53.6441V42.6586C67.5295 42.4232 67.451 42.2662 67.3726 42.1093Z" fill="#9C9495"/>
<path id="Vector_5" d="M44.5489 56.0765C44.5489 51.6823 40.7842 48.0728 36.0783 48.0728C31.3724 48.0728 27.6077 51.6823 27.6077 56.0765C27.6077 59.4507 29.8038 62.354 33.0195 63.531L26.9019 81.8925H44.6273L38.9803 63.6095C42.196 62.4324 44.5489 59.5291 44.5489 56.0765Z" fill="#3F3B3C"/>
<g id="Group_3">
<path id="Vector_6" d="M29.8823 56.0765C29.8823 51.9962 33.098 48.6221 37.1764 48.1513C36.7843 48.0728 36.3921 48.0728 36 48.0728C31.2941 48.0728 27.5294 51.6823 27.5294 56.0765C27.5294 59.4507 29.7254 62.354 32.9411 63.531L26.8235 81.8925H29.098L35.2156 63.531C32.0784 62.354 29.8823 59.4507 29.8823 56.0765Z" fill="#817676"/>
<path id="Vector_7" d="M44.5491 56.0766C44.5491 51.9962 41.3334 48.6221 37.1765 48.1513C33.0196 48.7006 29.8824 52.0747 29.8824 56.0766C29.8824 59.4507 32.0785 62.354 35.2942 63.531L29.1765 81.8925H44.5491L38.9804 63.6095C42.1961 62.4325 44.5491 59.5292 44.5491 56.0766Z" fill="#3F3B3C"/>
</g>
<path id="Vector_8" d="M9.17651 26.0234C9.17651 26.0234 13.4902 0.442827 40.0785 1.38444C40.0785 1.38444 16.4706 3.11073 9.17651 26.0234Z" fill="#9C9495"/>
<path id="Vector_9" d="M6.11773 43.2078C6.11773 43.2078 5.25498 45.3264 6.27459 47.2097C7.21577 49.0929 17.9609 46.268 17.7256 43.7571C17.4118 41.2461 7.68635 39.2844 6.11773 43.2078Z" fill="#BFBABB"/>
<path id="Vector_10" d="M5.80382 52.3101C5.80382 52.3101 5.41167 54.1933 5.88225 55.9196C6.35284 57.5675 11.6862 55.135 11.6077 52.8594C11.4509 50.5054 6.66656 48.8575 5.80382 52.3101Z" fill="#BFBABB"/>
<path id="Vector_11" opacity="0.6" d="M56.4706 9.70201C56 9.15274 55.6078 8.68193 55.1373 8.21112C55.3726 8.7604 55.5294 9.38814 55.6078 10.0159C55.6863 11.6637 54.9804 13.39 53.7255 14.4101C52.549 15.3517 51.0588 15.3517 49.7255 14.8024C48.7843 14.4101 47.9216 13.7823 47.0588 13.2331C46.0392 12.6053 45.0196 12.056 43.8431 11.6637C41.6471 10.8006 39.3725 10.4082 37.0196 10.3298C32.8627 10.2513 28.549 11.4283 25.098 13.8608C21.8824 16.1364 19.5294 19.3536 17.8824 22.8846C16.7059 25.3171 16.2353 28.142 14.4314 30.2606C13.6471 31.1237 12.6275 31.7515 11.451 31.5161C10.1176 31.2022 9.17647 30.4175 8.70588 29.162C8.39216 28.3774 8.23529 27.5927 8.15686 26.808C8.07843 27.7496 8 28.7697 8 29.7113V39.1275H18.1176V35.2825C18.1176 24.6109 25.4118 12.1345 34.902 12.1345H37.4118C46.8235 12.1345 54.1961 24.6109 54.1961 35.2825V39.1275H64.0784V29.7113C64.0784 22.7277 61.3333 15.3517 56.4706 9.70201Z" fill="#564E4E"/>
<path id="Vector_12" opacity="0.6" d="M64.0783 35.8318H53.9607V39.206H64.0783V35.8318Z" fill="#494343"/>
<path id="Vector_13" opacity="0.6" d="M18.0393 35.8318H7.92163V39.206H18.0393V35.8318Z" fill="#494343"/>
</g>
</g>
</svg>
