<svg width="72" height="96" viewBox="0 0 72 96" fill="none" xmlns="http://www.w3.org/2000/svg">
<path d="M18.0393 39.2059V35.361C18.0393 24.6893 25.3334 12.2129 34.8236 12.2129H37.3334C46.7452 12.2129 54.1177 24.6893 54.1177 35.361V39.2059H64.0785V29.7898C64.0785 22.7276 61.3334 15.4301 56.4707 9.70197C51.2942 3.58148 44.5491 0.285828 37.4118 0.285828H34.5099C27.451 0.285828 20.7059 3.65995 15.451 9.70197C10.7452 15.3517 7.92163 22.7276 7.92163 29.7898V39.2059H18.0393Z" fill="#E98427"/>
<path d="M71.8431 40.3829C71.6078 39.8337 71.2157 39.2844 70.7451 38.8921C70.0392 38.3428 69.2549 38.1074 68.3922 37.9504H3.29412C2.43137 38.1074 1.56863 38.3428 0.941176 38.9705C0.392157 39.4413 0.0784314 40.0691 0 40.7753C0 40.8538 0 41.0107 0 41.1676V55.1349C0 108.572 72 109.905 72 55.1349V41.0892C72 40.8538 71.9216 40.6183 71.8431 40.3829Z" fill="#ED9E4A"/>
<path d="M70.3529 41.1676C70.1176 40.6183 69.8038 40.1475 69.3333 39.7552C68.6274 39.2844 67.9215 39.049 67.1372 38.892H4.54894C3.68619 39.049 2.90188 39.2844 2.27443 39.8336C1.72541 40.3045 1.41168 40.8537 1.33325 41.4815C1.33325 41.5599 1.33325 41.7169 1.33325 41.8738V54.7425C1.33325 104.177 70.5097 105.433 70.5097 54.7425V41.8738C70.5097 41.6384 70.4313 41.403 70.3529 41.1676Z" fill="#F3C27E"/>
<path d="M67.451 42.1092C67.2158 41.6384 66.902 41.2461 66.5099 40.9322C65.8824 40.5399 65.1765 40.3045 64.4707 40.1475H6.82359C6.03928 40.226 5.3334 40.4614 4.78438 40.9322C4.31379 41.3245 4.00006 41.7953 3.92163 42.3446C3.92163 42.4231 3.92163 42.5016 3.92163 42.6585V53.644C3.92163 95.7813 67.6079 96.8798 67.6079 53.644V42.6585C67.5295 42.4231 67.5295 42.2662 67.451 42.1092Z" fill="#F8DCB0"/>
<path d="M44.5489 56.0765C44.5489 51.6823 40.7842 48.0728 36.0783 48.0728C31.3724 48.0728 27.6077 51.6823 27.6077 56.0765C27.6077 59.4506 29.8038 62.3539 33.0195 63.5309L26.9019 81.8924H44.6273L38.9803 63.6094C42.196 62.4324 44.5489 59.5291 44.5489 56.0765Z" fill="#B55119"/>
<path d="M29.8823 56.0765C29.8823 51.9961 33.098 48.622 37.1764 48.1512C36.7843 48.0728 36.3921 48.0728 36 48.0728C31.2941 48.0728 27.5294 51.6823 27.5294 56.0765C27.5294 59.4506 29.7254 62.3539 32.9411 63.5309L26.8235 81.8924H29.098L35.2156 63.5309C32.0784 62.3539 29.8823 59.4506 29.8823 56.0765Z" fill="#B55119"/>
<path d="M44.5491 56.0765C44.5491 51.9962 41.3334 48.6221 37.1765 48.1512C33.0197 48.7005 29.8824 52.0746 29.8824 56.0765C29.8824 59.4506 32.0785 62.3539 35.2942 63.531L29.1765 81.8924H44.5491L38.9804 63.6094C42.1961 62.4324 44.5491 59.5291 44.5491 56.0765Z" fill="#74371A"/>
<path d="M6.11773 43.2077C6.11773 43.2077 5.25498 45.3264 6.27459 47.2096C7.21577 49.0928 17.9609 46.268 17.7256 43.757C17.4118 41.246 7.68636 39.2843 6.11773 43.2077Z" fill="#FCF0D8"/>
<path d="M5.88243 52.3101C5.88243 52.3101 5.49028 54.1933 5.96087 55.9196C6.43145 57.5674 11.7648 55.1349 11.6864 52.8593C11.4511 50.5053 6.66675 48.8575 5.88243 52.3101Z" fill="#FCF0D8"/>
<path opacity="0.5" d="M56.4706 9.70195C56 9.15267 55.6078 8.68187 55.1372 8.21106C55.3725 8.76033 55.5294 9.38808 55.6078 10.0158C55.6863 11.6636 54.9804 13.3899 53.7255 14.41C52.549 15.3516 51.0588 15.3516 49.7255 14.8024C48.7843 14.41 47.9216 13.7823 47.0588 13.233C46.0392 12.6053 45.0196 12.056 43.8431 11.6636C41.6471 10.8005 39.3725 10.4082 37.0196 10.3297C32.8627 10.2512 28.549 11.4282 25.098 13.8607C21.8824 16.1363 19.5294 19.3535 17.8824 22.8846C16.7059 25.3171 16.2353 28.1419 14.4314 30.2605C13.6471 31.1237 12.6275 31.7514 11.451 31.516C10.1176 31.2021 9.17647 30.4175 8.70588 29.162C8.39216 28.3773 8.23529 27.5926 8.15686 26.8079C8.07843 27.7496 8 28.7696 8 29.7113V39.1274H18.1176V35.2825C18.1176 24.6108 25.4118 12.1345 34.902 12.1345H37.4118C46.8235 12.1345 54.1961 24.6108 54.1961 35.2825V37.7863H64.0784V29.7113C64.0784 22.7276 61.3333 15.3516 56.4706 9.70195Z" fill="#DA6A1C"/>
<path d="M9.17651 26.0233C9.17651 26.0233 13.4902 0.442766 40.0785 1.38438C40.0785 1.38438 16.4706 3.11067 9.17651 26.0233Z" fill="#F3C27E"/>
<path opacity="0.5" d="M18.1567 35.8317H8.03906V39.2058H18.1567V35.8317Z" fill="#B55119"/>
<path d="M66 32.2858H53V37.951H66V32.2858Z" fill="#FAF5C7"/>
</svg>
