<svg width="1185" height="1959" viewBox="0 0 1185 1959" fill="none" xmlns="http://www.w3.org/2000/svg">
<g clip-path="url(#clip0_167_734)">
<rect width="1185" height="1959" fill="#E9BB17"/>
<rect x="1090.5" y="1175.5" width="271.496" height="96.95" fill="#438342" stroke="#75C973"/>
<rect x="1090.5" y="980.5" width="271.496" height="96.95" fill="#438342" stroke="#75C973"/>
<rect x="1090.5" y="783.5" width="271.496" height="96.95" fill="#438342" stroke="#75C973"/>
<rect x="1090.5" y="588.5" width="271.496" height="96.95" fill="#438342" stroke="#75C973"/>
<rect x="1090.5" y="392.5" width="271.496" height="96.95" fill="#438342" stroke="#75C973"/>
<rect x="1090.5" y="196.5" width="271.496" height="96.95" fill="#438342" stroke="#75C973"/>
<rect x="1090.5" y="1.5" width="271.496" height="96.95" fill="#438342" stroke="#75C973"/>
<rect x="-176.5" y="99.5" width="271.496" height="96.95" fill="#438342" stroke="#75C973"/>
<rect x="95.5156" y="1469.75" width="271.496" height="96.95" fill="#438342" stroke="#75C973"/>
<rect x="368.012" y="1469.75" width="271.496" height="96.95" fill="#438342" stroke="#75C973"/>
<rect x="640.509" y="1469.75" width="271.496" height="96.95" fill="#438342" stroke="#75C973"/>
<rect x="913.005" y="1469.75" width="271.496" height="96.95" fill="#438342" stroke="#75C973"/>
<rect x="95.5156" y="490.25" width="271.496" height="96.95" fill="#438342" stroke="#75C973"/>
<rect x="368.012" y="490.25" width="271.496" height="96.95" fill="#438342" stroke="#75C973"/>
<rect x="640.509" y="490.25" width="271.496" height="96.95" fill="#438342" stroke="#75C973"/>
<rect x="913.005" y="490.25" width="271.496" height="96.95" fill="#438342" stroke="#75C973"/>
<rect x="0.5" y="980" width="271.496" height="96.95" fill="#438342" stroke="#75C973"/>
<rect x="272.996" y="980" width="271.496" height="96.95" fill="#438342" stroke="#75C973"/>
<rect x="545.492" y="980" width="271.496" height="96.95" fill="#438342" stroke="#75C973"/>
<rect x="817.988" y="980" width="271.496" height="96.95" fill="#438342" stroke="#75C973"/>
<rect x="0.5" y="0.5" width="271.496" height="96.95" fill="#438342" stroke="#75C973"/>
<rect x="272.996" y="0.5" width="271.496" height="96.95" fill="#438342" stroke="#75C973"/>
<rect x="545.492" y="0.5" width="271.496" height="96.95" fill="#438342" stroke="#75C973"/>
<rect x="817.988" y="0.5" width="271.496" height="96.95" fill="#438342" stroke="#75C973"/>
<rect x="0.5" y="1567.7" width="271.496" height="96.95" fill="#438342" stroke="#75C973"/>
<rect x="272.996" y="1567.7" width="271.496" height="96.95" fill="#438342" stroke="#75C973"/>
<rect x="545.492" y="1567.7" width="271.496" height="96.95" fill="#438342" stroke="#75C973"/>
<rect x="817.988" y="1567.7" width="271.496" height="96.95" fill="#438342" stroke="#75C973"/>
<rect x="-176.5" y="295.5" width="271.496" height="96.95" fill="#438342" stroke="#75C973"/>
<rect x="-176.5" y="490.5" width="271.496" height="96.95" fill="#438342" stroke="#75C973"/>
<rect x="-176.5" y="685.5" width="271.496" height="96.95" fill="#438342" stroke="#75C973"/>
<rect x="-176.5" y="881.5" width="271.496" height="96.95" fill="#438342" stroke="#75C973"/>
<rect x="-176.5" y="1077.5" width="271.496" height="96.95" fill="#438342" stroke="#75C973"/>
<rect x="-176.5" y="1273.5" width="271.496" height="96.95" fill="#438342" stroke="#75C973"/>
<rect x="-176.5" y="1469.5" width="271.496" height="96.95" fill="#438342" stroke="#75C973"/>
<rect x="-176.5" y="1665.5" width="271.496" height="96.95" fill="#438342" stroke="#75C973"/>
<rect x="-176.5" y="1862.5" width="271.496" height="96.95" fill="#438342" stroke="#75C973"/>
<rect x="0.5" y="588.2" width="271.496" height="96.95" fill="#438342" stroke="#75C973"/>
<rect x="272.996" y="588.2" width="271.496" height="96.95" fill="#438342" stroke="#75C973"/>
<rect x="545.492" y="588.2" width="271.496" height="96.95" fill="#438342" stroke="#75C973"/>
<rect x="817.988" y="588.2" width="271.496" height="96.95" fill="#438342" stroke="#75C973"/>
<rect x="95.5156" y="1077.95" width="271.496" height="96.95" fill="#438342" stroke="#75C973"/>
<rect x="368.012" y="1077.95" width="271.496" height="96.95" fill="#438342" stroke="#75C973"/>
<rect x="640.509" y="1077.95" width="271.496" height="96.95" fill="#438342" stroke="#75C973"/>
<rect x="913.005" y="1077.95" width="271.496" height="96.95" fill="#438342" stroke="#75C973"/>
<rect x="95.5156" y="98.45" width="271.496" height="96.95" fill="#438342" stroke="#75C973"/>
<rect x="368.012" y="98.45" width="271.496" height="96.95" fill="#438342" stroke="#75C973"/>
<rect x="640.509" y="98.45" width="271.496" height="96.95" fill="#438342" stroke="#75C973"/>
<rect x="913.005" y="98.45" width="271.496" height="96.95" fill="#438342" stroke="#75C973"/>
<rect x="95.5156" y="1665.65" width="271.496" height="96.95" fill="#438342" stroke="#75C973"/>
<rect x="368.012" y="1665.65" width="271.496" height="96.95" fill="#438342" stroke="#75C973"/>
<rect x="640.509" y="1665.65" width="271.496" height="96.95" fill="#438342" stroke="#75C973"/>
<rect x="913.005" y="1665.65" width="271.496" height="96.95" fill="#438342" stroke="#75C973"/>
<rect x="95.5156" y="686.15" width="271.496" height="96.95" fill="#438342" stroke="#75C973"/>
<rect x="368.012" y="686.15" width="271.496" height="96.95" fill="#438342" stroke="#75C973"/>
<rect x="640.509" y="686.15" width="271.496" height="96.95" fill="#438342" stroke="#75C973"/>
<rect x="913.005" y="686.15" width="271.496" height="96.95" fill="#438342" stroke="#75C973"/>
<rect x="0.5" y="1175.9" width="271.496" height="96.95" fill="#438342" stroke="#75C973"/>
<rect x="272.996" y="1175.9" width="271.496" height="96.95" fill="#438342" stroke="#75C973"/>
<rect x="545.492" y="1175.9" width="271.496" height="96.95" fill="#438342" stroke="#75C973"/>
<rect x="817.988" y="1175.9" width="271.496" height="96.95" fill="#438342" stroke="#75C973"/>
<rect x="0.5" y="196.4" width="271.496" height="96.95" fill="#438342" stroke="#75C973"/>
<rect x="272.996" y="196.4" width="271.496" height="96.95" fill="#438342" stroke="#75C973"/>
<rect x="545.492" y="196.4" width="271.496" height="96.95" fill="#438342" stroke="#75C973"/>
<rect x="817.988" y="196.4" width="271.496" height="96.95" fill="#438342" stroke="#75C973"/>
<rect x="0.5" y="1763.6" width="271.496" height="96.95" fill="#438342" stroke="#75C973"/>
<rect x="272.996" y="1763.6" width="271.496" height="96.95" fill="#438342" stroke="#75C973"/>
<rect x="545.492" y="1763.6" width="271.496" height="96.95" fill="#438342" stroke="#75C973"/>
<rect x="817.988" y="1763.6" width="271.496" height="96.95" fill="#438342" stroke="#75C973"/>
<rect x="0.5" y="784.1" width="271.496" height="96.95" fill="#438342" stroke="#75C973"/>
<rect x="272.996" y="784.1" width="271.496" height="96.95" fill="#438342" stroke="#75C973"/>
<rect x="545.492" y="784.1" width="271.496" height="96.95" fill="#438342" stroke="#75C973"/>
<rect x="817.988" y="784.1" width="271.496" height="96.95" fill="#438342" stroke="#75C973"/>
<rect x="95.5156" y="1273.85" width="271.496" height="96.95" fill="#438342" stroke="#75C973"/>
<rect x="368.012" y="1273.85" width="271.496" height="96.95" fill="#438342" stroke="#75C973"/>
<rect x="640.509" y="1273.85" width="271.496" height="96.95" fill="#438342" stroke="#75C973"/>
<rect x="913.005" y="1273.85" width="271.496" height="96.95" fill="#438342" stroke="#75C973"/>
<rect x="95.5156" y="294.35" width="271.496" height="96.95" fill="#438342" stroke="#75C973"/>
<rect x="368.012" y="294.35" width="271.496" height="96.95" fill="#438342" stroke="#75C973"/>
<rect x="640.509" y="294.35" width="271.496" height="96.95" fill="#438342" stroke="#75C973"/>
<rect x="913.005" y="294.35" width="271.496" height="96.95" fill="#438342" stroke="#75C973"/>
<rect x="95.5156" y="1861.55" width="271.496" height="96.95" fill="#438342" stroke="#75C973"/>
<rect x="368.012" y="1861.55" width="271.496" height="96.95" fill="#438342" stroke="#75C973"/>
<rect x="640.509" y="1861.55" width="271.496" height="96.95" fill="#438342" stroke="#75C973"/>
<rect x="913.005" y="1861.55" width="271.496" height="96.95" fill="#438342" stroke="#75C973"/>
<rect x="95.5156" y="882.05" width="271.496" height="96.95" fill="#438342" stroke="#75C973"/>
<rect x="368.012" y="882.05" width="271.496" height="96.95" fill="#438342" stroke="#75C973"/>
<rect x="640.509" y="882.05" width="271.496" height="96.95" fill="#438342" stroke="#75C973"/>
<rect x="913.005" y="882.05" width="271.496" height="96.95" fill="#438342" stroke="#75C973"/>
<rect x="0.5" y="1371.8" width="271.496" height="96.95" fill="#438342" stroke="#75C973"/>
<rect x="272.996" y="1371.8" width="271.496" height="96.95" fill="#438342" stroke="#75C973"/>
<rect x="545.492" y="1371.8" width="271.496" height="96.95" fill="#438342" stroke="#75C973"/>
<rect x="817.988" y="1371.8" width="271.496" height="96.95" fill="#438342" stroke="#75C973"/>
<rect x="0.5" y="392.3" width="271.496" height="96.95" fill="#438342" stroke="#75C973"/>
<rect x="272.996" y="392.3" width="271.496" height="96.95" fill="#438342" stroke="#75C973"/>
<rect x="545.492" y="392.3" width="271.496" height="96.95" fill="#438342" stroke="#75C973"/>
<rect x="817.988" y="392.3" width="271.496" height="96.95" fill="#438342" stroke="#75C973"/>
<rect x="1090.5" y="1371.5" width="271.496" height="96.95" fill="#438342" stroke="#75C973"/>
<rect x="1090.5" y="1567.5" width="271.496" height="96.95" fill="#438342" stroke="#75C973"/>
<rect x="1090.5" y="1763.5" width="271.496" height="96.95" fill="#438342" stroke="#75C973"/>
<path d="M699.194 1988.59C681.123 1919.06 665.361 1777.49 746.889 1767.44C814.485 1759.12 839.85 1814.75 846.463 1858.38C844.597 1807.97 854.535 1745.28 905.957 1773.97C964.452 1806.61 976.178 1846.73 974.786 1864.36C980.606 1812.2 1011.36 1720.66 1090.04 1759.21C1169.56 1798.16 1194.04 1852.71 1196.34 1875.11L1192.45 1969.77L699.194 1988.59Z" fill="#E9BB17" stroke="#DE7C23" stroke-width="10"/>
<path d="M1058.4 1310.62C740.106 1164.08 1009.44 1415.6 1183.9 1559.68L1201.64 1091.69C1091.47 794.335 1066.31 953.75 1067.5 1070.63C759.021 664.884 932.902 1061.56 1058.4 1310.62Z" fill="#F8D867"/>
<path d="M1205.07 1376.66C1151.87 1313.88 1038.65 1157.65 1011.37 1035" stroke="#DE7C23" stroke-width="10"/>
<path d="M1026.36 1344.26C1030.9 1363.09 1038.9 1397.67 1154.64 1486.44M1154.64 1486.44C1157.51 1488.64 1193.53 1517.75 1193.53 1517.75L1154.64 1486.44ZM1139.27 995C1135.18 1024.5 1142.97 1101.46 1201.72 1189.22" stroke="#DE7C23" stroke-width="10"/>
<path d="M240.135 1661.32L381.79 1584.24C393.804 1577.7 398.841 1562.95 393.346 1550.43L345.157 1440.64C347.627 1440.07 350.126 1439.71 352.528 1438.66C373.472 1429.46 383.045 1404.93 373.856 1383.99C364.667 1363.05 340.126 1353.49 319.183 1362.68C298.24 1371.87 288.667 1396.41 297.855 1417.34L348.898 1533.64L245.809 1589.76L213.038 1515.1C215.508 1514.53 218.007 1514.17 220.409 1513.12C241.352 1503.92 250.925 1479.39 241.736 1458.45C232.547 1437.51 208.006 1427.95 187.063 1437.14C166.12 1446.33 156.547 1470.87 165.736 1491.8L240.135 1661.32ZM243.747 1650.78L172.645 1488.77C165.09 1471.56 172.876 1451.6 190.095 1444.05C207.313 1436.49 227.272 1444.27 234.827 1461.48C242.382 1478.7 234.596 1498.65 217.377 1506.21C214.125 1507.64 210.769 1508.5 207.411 1508.88L202.316 1509.44L242.197 1600.31L358.596 1536.97L304.765 1414.31C297.21 1397.1 304.996 1377.14 322.214 1369.58C339.433 1362.03 359.392 1369.81 366.947 1387.02C374.502 1404.23 366.716 1424.19 349.497 1431.75C346.245 1433.18 342.889 1434.04 339.531 1434.42L334.435 1434.98L386.437 1553.47C390.386 1562.46 386.813 1572.91 378.17 1577.61L243.747 1650.78ZM257.032 1624.72C258.934 1623.89 259.805 1621.66 258.971 1619.75C258.136 1617.85 255.903 1616.98 254 1617.82C252.098 1618.65 251.227 1620.88 252.061 1622.79C252.896 1624.69 255.129 1625.56 257.032 1624.72ZM366.485 1564.33C368.388 1563.49 369.259 1561.26 368.424 1559.36C367.589 1557.46 365.357 1556.59 363.454 1557.42C361.551 1558.26 360.68 1560.49 361.515 1562.39C362.35 1564.29 364.583 1565.16 366.485 1564.33ZM250.969 1610.91C252.872 1610.07 253.743 1607.84 252.908 1605.94C252.073 1604.04 249.84 1603.17 247.937 1604C246.035 1604.84 245.164 1607.07 245.999 1608.97C246.833 1610.87 249.066 1611.74 250.969 1610.91ZM360.422 1550.52C362.325 1549.68 363.196 1547.45 362.361 1545.55C361.526 1543.64 359.294 1542.77 357.391 1543.61C355.488 1544.44 354.617 1546.68 355.452 1548.58C356.287 1550.48 358.52 1551.35 360.422 1550.52ZM225.979 1469.48C227.882 1468.65 228.753 1466.42 227.918 1464.51C227.083 1462.61 224.85 1461.74 222.948 1462.58C221.045 1463.41 220.174 1465.64 221.009 1467.55C221.844 1469.45 224.076 1470.32 225.979 1469.48ZM184.524 1487.68C186.427 1486.84 187.298 1484.61 186.463 1482.71C185.628 1480.81 183.396 1479.94 181.493 1480.77C179.59 1481.61 178.719 1483.84 179.554 1485.74C180.389 1487.64 182.621 1488.51 184.524 1487.68ZM358.099 1395.02C360.002 1394.19 360.872 1391.96 360.038 1390.05C359.203 1388.15 356.97 1387.28 355.067 1388.12C353.165 1388.95 352.294 1391.18 353.129 1393.09C353.963 1394.99 356.196 1395.86 358.099 1395.02ZM316.644 1413.22C318.547 1412.38 319.418 1410.15 318.583 1408.25C317.748 1406.35 315.515 1405.47 313.613 1406.31C311.71 1407.15 310.839 1409.38 311.674 1411.28C312.509 1413.18 314.741 1414.05 316.644 1413.22ZM184.126 1470.38C185.063 1469.98 185.794 1469.23 186.165 1468.28C186.923 1466.34 185.963 1464.15 184.022 1463.39C182.08 1462.64 179.894 1463.6 179.137 1465.54C178.38 1467.48 179.339 1469.67 181.28 1470.42C182.193 1470.78 183.216 1470.76 184.126 1470.38ZM213.43 1457.5C214.373 1457.12 215.117 1456.36 215.489 1455.41C216.232 1453.47 215.267 1451.27 213.339 1450.51C211.404 1449.77 209.204 1450.73 208.441 1452.66C207.697 1454.6 208.662 1456.8 210.59 1457.56C211.516 1457.91 212.52 1457.89 213.43 1457.5ZM196.157 1457.86C198.06 1457.02 198.931 1454.79 198.096 1452.89C197.261 1450.99 195.029 1450.12 193.126 1450.95C191.223 1451.79 190.352 1454.02 191.187 1455.92C192.022 1457.82 194.255 1458.69 196.157 1457.86ZM345.556 1383.06C346.493 1382.66 347.224 1381.91 347.595 1380.95C348.352 1379.01 347.393 1376.83 345.452 1376.07C343.51 1375.31 341.324 1376.27 340.567 1378.21C339.809 1380.16 340.768 1382.34 342.71 1383.1C343.622 1383.45 344.646 1383.44 345.556 1383.06ZM316.233 1395.93C317.17 1395.53 317.914 1394.77 318.285 1393.82C319.042 1391.88 318.083 1389.69 316.142 1388.93C314.2 1388.18 312.014 1389.14 311.257 1391.08C310.499 1393.02 311.459 1395.2 313.4 1395.96C314.313 1396.32 315.323 1396.31 316.233 1395.93ZM328.277 1383.4C330.18 1382.56 331.051 1380.33 330.216 1378.43C329.381 1376.53 327.148 1375.66 325.246 1376.49C323.343 1377.33 322.472 1379.56 323.307 1381.46C324.142 1383.36 326.374 1384.23 328.277 1383.4Z" fill="#E9BB17"/>
<path d="M581.135 622.324L722.79 545.24C734.804 538.696 739.841 523.952 734.346 511.433L686.157 401.635C688.627 401.066 691.126 400.71 693.528 399.655C714.472 390.464 724.045 365.926 714.856 344.989C705.667 324.052 681.126 314.486 660.183 323.678C639.24 332.869 629.667 357.407 638.855 378.344L689.898 494.644L586.809 550.765L554.038 476.096C556.508 475.527 559.007 475.17 561.409 474.116C582.352 464.924 591.925 440.386 582.736 419.449C573.547 398.512 549.006 388.946 528.063 398.138C507.12 407.33 497.547 431.868 506.736 452.805L581.135 622.324ZM584.747 611.778L513.645 449.772C506.09 432.559 513.876 412.602 531.095 405.045C548.313 397.488 568.272 405.268 575.827 422.482C583.382 439.695 575.596 459.652 558.377 467.209C555.125 468.636 551.769 469.497 548.411 469.877L543.316 470.44L583.197 561.311L699.596 497.966L645.765 375.312C638.21 358.098 645.996 338.142 663.214 330.585C680.433 323.028 700.392 330.807 707.947 348.021C715.502 365.235 707.716 385.191 690.497 392.748C687.245 394.176 683.889 395.037 680.531 395.417L675.435 395.98L727.437 514.466C731.386 523.464 727.813 533.913 719.17 538.607L584.747 611.778ZM598.032 585.724C599.934 584.888 600.805 582.656 599.971 580.754C599.136 578.852 596.903 577.981 595 578.816C593.098 579.652 592.227 581.884 593.061 583.786C593.896 585.688 596.129 586.559 598.032 585.724ZM707.485 525.33C709.388 524.495 710.259 522.262 709.424 520.36C708.589 518.458 706.357 517.588 704.454 518.423C702.551 519.258 701.68 521.49 702.515 523.392C703.35 525.295 705.583 526.165 707.485 525.33ZM591.969 571.909C593.872 571.074 594.743 568.842 593.908 566.94C593.073 565.038 590.84 564.167 588.937 565.002C587.035 565.837 586.164 568.07 586.999 569.972C587.833 571.874 590.066 572.745 591.969 571.909ZM701.422 511.516C703.325 510.681 704.196 508.448 703.361 506.546C702.526 504.644 700.294 503.774 698.391 504.609C696.488 505.444 695.617 507.676 696.452 509.578C697.287 511.48 699.52 512.351 701.422 511.516ZM566.979 430.484C568.882 429.648 569.753 427.416 568.918 425.514C568.083 423.612 565.85 422.741 563.948 423.576C562.045 424.412 561.174 426.644 562.009 428.546C562.844 430.448 565.076 431.319 566.979 430.484ZM525.524 448.677C527.427 447.842 528.298 445.61 527.463 443.708C526.628 441.806 524.396 440.935 522.493 441.77C520.59 442.605 519.719 444.838 520.554 446.74C521.389 448.642 523.621 449.512 525.524 448.677ZM699.099 356.023C701.002 355.188 701.872 352.956 701.038 351.053C700.203 349.151 697.97 348.281 696.067 349.116C694.165 349.951 693.294 352.184 694.129 354.086C694.963 355.988 697.196 356.858 699.099 356.023ZM657.644 374.217C659.547 373.382 660.418 371.149 659.583 369.247C658.748 367.345 656.515 366.475 654.613 367.31C652.71 368.145 651.839 370.378 652.674 372.28C653.509 374.182 655.741 375.052 657.644 374.217ZM525.126 431.38C526.063 430.984 526.794 430.229 527.165 429.278C527.923 427.337 526.963 425.151 525.022 424.395C523.08 423.638 520.894 424.597 520.137 426.539C519.38 428.48 520.339 430.665 522.28 431.422C523.193 431.778 524.216 431.763 525.126 431.38ZM554.43 418.502C555.373 418.121 556.117 417.36 556.489 416.408C557.232 414.473 556.267 412.274 554.339 411.511C552.404 410.768 550.204 411.734 549.441 413.661C548.697 415.597 549.662 417.796 551.59 418.558C552.516 418.908 553.52 418.886 554.43 418.502ZM537.157 418.859C539.06 418.024 539.931 415.792 539.096 413.89C538.261 411.987 536.029 411.117 534.126 411.952C532.223 412.787 531.352 415.02 532.187 416.922C533.022 418.824 535.255 419.694 537.157 418.859ZM686.556 344.056C687.493 343.66 688.224 342.905 688.595 341.954C689.352 340.013 688.393 337.827 686.452 337.07C684.51 336.314 682.324 337.273 681.567 339.214C680.809 341.156 681.768 343.341 683.71 344.098C684.622 344.454 685.646 344.439 686.556 344.056ZM657.233 356.925C658.17 356.53 658.914 355.769 659.285 354.818C660.042 352.876 659.083 350.691 657.142 349.934C655.2 349.177 653.014 350.137 652.257 352.078C651.499 354.019 652.459 356.205 654.4 356.962C655.313 357.317 656.323 357.308 657.233 356.925ZM669.277 344.399C671.18 343.564 672.051 341.331 671.216 339.429C670.381 337.527 668.148 336.657 666.246 337.492C664.343 338.327 663.472 340.559 664.307 342.462C665.142 344.364 667.374 345.234 669.277 344.399Z" fill="#E9BB17"/>
<path d="M1161.07 309.304L1002.42 280.368C988.961 277.918 975.785 286.232 972.202 299.426L940.775 415.141C938.495 414.034 936.326 412.742 933.795 412.055C911.723 406.06 888.866 419.149 882.873 441.215C876.88 463.28 889.976 486.133 912.048 492.127C934.12 498.122 956.977 485.033 962.97 462.968L996.258 340.399L1111.73 361.441L1090.36 440.134C1088.08 439.026 1085.91 437.735 1083.38 437.048C1061.31 431.053 1038.45 444.142 1032.46 466.207C1026.46 488.273 1039.56 511.125 1061.63 517.12C1083.7 523.114 1106.56 510.026 1112.55 487.96L1161.07 309.304ZM1151.64 315.246L1105.27 485.983C1100.35 504.124 1081.76 514.769 1063.61 509.841C1045.46 504.912 1034.81 486.326 1039.74 468.185C1044.67 450.043 1063.25 439.398 1081.4 444.327C1084.83 445.258 1087.98 446.694 1090.83 448.507L1095.15 451.268L1121.16 355.499L990.795 331.726L955.688 460.99C950.761 479.132 932.172 489.777 914.025 484.848C895.878 479.92 885.228 461.334 890.155 443.192C895.082 425.051 913.671 414.406 931.818 419.334C935.245 420.265 938.398 421.701 941.25 423.514L945.57 426.275L979.483 301.404C982.059 291.921 991.401 286.031 1001.07 287.803L1151.64 315.246ZM1124.94 327.185C1122.94 326.64 1120.86 327.831 1120.31 329.835C1119.77 331.84 1120.96 333.919 1122.97 334.464C1124.97 335.008 1127.05 333.818 1127.6 331.813C1128.14 329.808 1126.95 327.729 1124.94 327.185ZM1001.83 305.474C999.828 304.929 997.749 306.12 997.204 308.125C996.66 310.129 997.851 312.208 999.857 312.753C1001.86 313.298 1003.94 312.107 1004.49 310.102C1005.03 308.098 1003.84 306.018 1001.83 305.474ZM1120.99 341.743C1118.98 341.199 1116.91 342.389 1116.36 344.394C1115.82 346.399 1117.01 348.478 1119.01 349.022C1121.02 349.567 1123.1 348.376 1123.64 346.372C1124.19 344.367 1123 342.288 1120.99 341.743ZM997.88 320.032C995.874 319.488 993.795 320.679 993.25 322.683C992.706 324.688 993.897 326.767 995.903 327.312C997.908 327.856 999.988 326.665 1000.53 324.661C1001.08 322.656 999.885 320.577 997.88 320.032ZM1051.65 467.511C1049.64 466.967 1047.56 468.158 1047.02 470.162C1046.48 472.167 1047.67 474.246 1049.67 474.791C1051.68 475.335 1053.76 474.145 1054.3 472.14C1054.85 470.135 1053.65 468.056 1051.65 467.511ZM1095.34 479.377C1093.33 478.832 1091.25 480.023 1090.71 482.028C1090.16 484.032 1091.36 486.112 1093.36 486.656C1095.37 487.201 1097.45 486.01 1097.99 484.005C1098.54 482.001 1097.34 479.921 1095.34 479.377ZM902.065 442.519C900.06 441.974 897.981 443.165 897.436 445.17C896.892 447.174 898.083 449.254 900.088 449.798C902.094 450.343 904.173 449.152 904.718 447.147C905.262 445.143 904.071 443.063 902.065 442.519ZM945.754 454.384C943.749 453.84 941.67 455.03 941.125 457.035C940.581 459.04 941.772 461.119 943.777 461.663C945.783 462.208 947.862 461.017 948.407 459.013C948.951 457.008 947.76 454.929 945.754 454.384ZM1084.79 493.09C1083.81 492.81 1082.77 492.939 1081.88 493.446C1080.07 494.482 1079.45 496.785 1080.48 498.593C1081.52 500.401 1083.82 501.026 1085.63 499.991C1087.44 498.955 1088.07 496.652 1087.03 494.844C1086.54 493.994 1085.74 493.363 1084.79 493.09ZM1053.89 484.715C1052.92 484.42 1051.86 484.546 1050.98 485.053C1049.18 486.092 1048.55 488.41 1049.58 490.214C1050.62 492.008 1052.93 492.637 1054.74 491.616C1056.53 490.577 1057.16 488.259 1056.14 486.455C1055.64 485.601 1054.84 484.988 1053.89 484.715ZM1067.56 495.282C1065.56 494.737 1063.48 495.928 1062.93 497.933C1062.39 499.938 1063.58 502.017 1065.59 502.561C1067.59 503.106 1069.67 501.915 1070.22 499.91C1070.76 497.906 1069.57 495.827 1067.56 495.282ZM904.314 459.709C903.337 459.428 902.294 459.557 901.408 460.064C899.6 461.1 898.974 463.403 900.01 465.211C901.046 467.019 903.35 467.645 905.158 466.609C906.967 465.574 907.592 463.27 906.556 461.462C906.069 460.613 905.263 459.982 904.314 459.709ZM935.218 468.102C934.241 467.821 933.184 467.946 932.298 468.453C930.489 469.489 929.864 471.792 930.9 473.6C931.936 475.408 934.24 476.034 936.048 474.998C937.856 473.963 938.482 471.66 937.446 469.852C936.959 469.002 936.167 468.375 935.218 468.102ZM917.979 470.289C915.974 469.745 913.894 470.936 913.35 472.94C912.805 474.945 913.997 477.024 916.002 477.569C918.007 478.113 920.087 476.923 920.631 474.918C921.176 472.913 919.984 470.834 917.979 470.289Z" fill="#E9BB17"/>
<path d="M882.074 1199.3L723.422 1170.37C709.961 1167.92 696.785 1176.23 693.202 1189.43L661.775 1305.14C659.495 1304.03 657.326 1302.74 654.795 1302.05C632.723 1296.06 609.866 1309.15 603.873 1331.21C597.88 1353.28 610.976 1376.13 633.048 1382.13C655.12 1388.12 677.977 1375.03 683.97 1352.97L717.258 1230.4L832.731 1251.44L811.359 1330.13C809.079 1329.03 806.91 1327.74 804.379 1327.05C782.307 1321.05 759.45 1334.14 753.457 1356.21C747.464 1378.27 760.56 1401.13 782.632 1407.12C804.704 1413.11 827.561 1400.03 833.554 1377.96L882.074 1199.3ZM872.642 1205.25L826.272 1375.98C821.345 1394.12 802.756 1404.77 784.609 1399.84C766.462 1394.91 755.812 1376.33 760.739 1358.18C765.666 1340.04 784.255 1329.4 802.402 1334.33C805.829 1335.26 808.982 1336.69 811.834 1338.51L816.154 1341.27L842.163 1245.5L711.795 1221.73L676.688 1350.99C671.761 1369.13 653.172 1379.78 635.025 1374.85C616.878 1369.92 606.228 1351.33 611.155 1333.19C616.082 1315.05 634.671 1304.41 652.818 1309.33C656.245 1310.27 659.398 1311.7 662.25 1313.51L666.57 1316.28L700.483 1191.4C703.059 1181.92 712.401 1176.03 722.074 1177.8L872.642 1205.25ZM845.944 1217.18C843.939 1216.64 841.859 1217.83 841.315 1219.84C840.77 1221.84 841.962 1223.92 843.967 1224.46C845.972 1225.01 848.052 1223.82 848.596 1221.81C849.141 1219.81 847.949 1217.73 845.944 1217.18ZM722.834 1195.47C720.828 1194.93 718.749 1196.12 718.204 1198.12C717.66 1200.13 718.851 1202.21 720.857 1202.75C722.862 1203.3 724.941 1202.11 725.486 1200.1C726.03 1198.1 724.839 1196.02 722.834 1195.47ZM841.99 1231.74C839.985 1231.2 837.905 1232.39 837.361 1234.39C836.816 1236.4 838.008 1238.48 840.013 1239.02C842.018 1239.57 844.098 1238.38 844.642 1236.37C845.187 1234.37 843.995 1232.29 841.99 1231.74ZM718.88 1210.03C716.874 1209.49 714.795 1210.68 714.25 1212.68C713.706 1214.69 714.897 1216.77 716.903 1217.31C718.908 1217.86 720.988 1216.67 721.532 1214.66C722.076 1212.66 720.885 1210.58 718.88 1210.03ZM772.649 1357.51C770.644 1356.97 768.565 1358.16 768.02 1360.16C767.476 1362.17 768.667 1364.25 770.672 1364.79C772.678 1365.34 774.757 1364.14 775.302 1362.14C775.846 1360.14 774.655 1358.06 772.649 1357.51ZM816.338 1369.38C814.333 1368.83 812.254 1370.02 811.709 1372.03C811.165 1374.03 812.356 1376.11 814.361 1376.66C816.367 1377.2 818.446 1376.01 818.991 1374.01C819.535 1372 818.344 1369.92 816.338 1369.38ZM623.065 1332.52C621.06 1331.97 618.981 1333.17 618.436 1335.17C617.892 1337.17 619.083 1339.25 621.088 1339.8C623.094 1340.34 625.173 1339.15 625.718 1337.15C626.262 1335.14 625.071 1333.06 623.065 1332.52ZM666.754 1344.38C664.749 1343.84 662.67 1345.03 662.125 1347.04C661.581 1349.04 662.772 1351.12 664.777 1351.66C666.783 1352.21 668.862 1351.02 669.407 1349.01C669.951 1347.01 668.76 1344.93 666.754 1344.38ZM805.788 1383.09C804.81 1382.81 803.768 1382.94 802.881 1383.45C801.073 1384.48 800.448 1386.78 801.484 1388.59C802.52 1390.4 804.824 1391.03 806.632 1389.99C808.44 1388.96 809.066 1386.65 808.03 1384.84C807.543 1383.99 806.737 1383.36 805.788 1383.09ZM774.895 1374.72C773.921 1374.42 772.864 1374.55 771.978 1375.05C770.184 1376.09 769.554 1378.41 770.576 1380.21C771.616 1382.01 773.934 1382.64 775.739 1381.62C777.533 1380.58 778.162 1378.26 777.14 1376.46C776.639 1375.6 775.844 1374.99 774.895 1374.72ZM788.563 1385.28C786.558 1384.74 784.478 1385.93 783.934 1387.93C783.389 1389.94 784.581 1392.02 786.586 1392.56C788.591 1393.11 790.671 1391.92 791.215 1389.91C791.76 1387.91 790.568 1385.83 788.563 1385.28ZM625.314 1349.71C624.337 1349.43 623.294 1349.56 622.408 1350.06C620.6 1351.1 619.974 1353.4 621.01 1355.21C622.046 1357.02 624.35 1357.64 626.158 1356.61C627.967 1355.57 628.592 1353.27 627.556 1351.46C627.069 1350.61 626.263 1349.98 625.314 1349.71ZM656.218 1358.1C655.241 1357.82 654.184 1357.95 653.298 1358.45C651.489 1359.49 650.864 1361.79 651.9 1363.6C652.936 1365.41 655.24 1366.03 657.048 1365C658.856 1363.96 659.482 1361.66 658.446 1359.85C657.959 1359 657.167 1358.37 656.218 1358.1ZM638.979 1360.29C636.974 1359.74 634.894 1360.94 634.35 1362.94C633.805 1364.94 634.997 1367.02 637.002 1367.57C639.007 1368.11 641.087 1366.92 641.631 1364.92C642.176 1362.91 640.984 1360.83 638.979 1360.29Z" fill="#E9BB17"/>
<path d="M432.8 1270C419.954 1275.15 396.893 1289 402.661 1304.65C403.18 1306.06 404.619 1306.84 406.119 1306.89C417.075 1307.19 432.738 1311.32 422.885 1326.38C412.271 1342.6 396.135 1347.32 389.394 1347.64" stroke="#F8D867" stroke-width="15"/>
<path d="M545 248.843C530.62 253.835 501.322 259.292 494.465 243.221C493.887 241.867 494.42 240.382 495.523 239.401C504.283 231.606 514.23 217.477 494.827 212.816C474.049 207.825 457.352 215.416 451.6 219.836" stroke="#F8D867" stroke-width="15"/>
<path d="M11 67.7197C28.0121 57.0339 64.2659 41.4201 77.2767 61.4273C78.0837 62.6682 77.9022 64.2394 77.035 65.446C68.0164 77.9943 58.7599 99.9104 85.1875 100.517C113.034 101.157 132.05 86.5452 138.077 79.1596" stroke="#F8D867" stroke-width="15"/>
<ellipse cx="10.343" cy="9.95997" rx="10.343" ry="9.95997" transform="matrix(-0.989034 0.147688 0.147688 0.989034 453.855 1360.41)" fill="#F8D867"/>
<ellipse cx="11.1011" cy="10.5467" rx="11.1011" ry="10.5467" transform="matrix(-0.848418 0.529327 -0.585566 -0.810625 500.299 186.962)" fill="#F8D867"/>
<ellipse cx="14.5553" cy="13.9631" rx="14.5553" ry="13.9631" transform="matrix(0.705193 -0.709016 0.739372 0.673297 85.7266 135.767)" fill="#F8D867"/>
<path d="M509.23 1396.42C462.25 1403.43 443.278 1410.39 439.665 1413" stroke="#F8D867" stroke-width="15"/>
<path d="M488.971 127.292C444.872 154.805 423.949 162.741 419 163.269" stroke="#F8D867" stroke-width="15"/>
<path d="M117.407 210.355C165.466 162.035 189.752 145.782 195.887 143.695" stroke="#F8D867" stroke-width="15"/>
<path d="M389.958 49.9998L243.345 75.0501C230.908 77.1801 222.117 88.5467 223.181 101.111L232.508 211.306C230.183 211.066 227.895 210.633 225.484 210.837C204.465 212.616 188.795 231.178 190.574 252.191C192.353 273.204 210.92 288.868 231.939 287.089C252.958 285.31 268.628 266.748 266.849 245.735L256.97 129.014L363.674 110.764L370.017 185.703C367.691 185.464 365.404 185.03 362.993 185.234C341.974 187.013 326.304 205.576 328.083 226.588C329.861 247.601 348.428 263.266 369.447 261.487C390.467 259.707 406.137 241.145 404.358 220.132L389.958 49.9998ZM383.662 58.128L397.424 220.719C398.886 237.995 386.142 253.092 368.861 254.555C351.58 256.017 336.479 243.278 335.017 226.002C333.555 208.726 346.299 193.629 363.58 192.166C366.844 191.89 370.03 192.139 373.073 192.808L377.689 193.836L369.97 102.636L249.496 123.224L259.915 246.322C261.377 263.598 248.633 278.694 231.352 280.157C214.071 281.62 198.97 268.88 197.508 251.604C196.046 234.328 208.79 219.231 226.071 217.769C229.335 217.493 232.521 217.741 235.565 218.411L240.18 219.438L230.115 100.524C229.351 91.4935 235.584 83.4387 244.526 81.9182L383.662 58.128ZM364.3 76.9074C362.39 77.0691 360.965 78.7579 361.126 80.6669C361.288 82.5759 362.977 84.0011 364.887 83.8395C366.796 83.6778 368.222 81.989 368.06 80.08C367.899 78.171 366.21 76.7458 364.3 76.9074ZM250.767 96.9897C248.858 97.1513 247.432 98.8401 247.593 100.749C247.755 102.658 249.444 104.083 251.354 103.922C253.263 103.76 254.689 102.071 254.528 100.162C254.366 98.2532 252.677 96.828 250.767 96.9897ZM365.473 90.7715C363.564 90.9331 362.138 92.6219 362.3 94.531C362.461 96.44 364.151 97.8652 366.06 97.7035C367.97 97.5419 369.395 95.8531 369.234 93.944C369.072 92.035 367.383 90.6099 365.473 90.7715ZM251.941 110.854C250.031 111.015 248.605 112.704 248.767 114.613C248.929 116.522 250.618 117.947 252.527 117.786C254.437 117.624 255.863 115.935 255.701 114.026C255.539 112.117 253.85 110.692 251.941 110.854ZM345.125 221.655C343.215 221.817 341.789 223.506 341.951 225.415C342.113 227.324 343.802 228.749 345.711 228.587C347.621 228.426 349.047 226.737 348.885 224.828C348.724 222.919 347.034 221.494 345.125 221.655ZM386.729 218.134C384.82 218.295 383.394 219.984 383.556 221.893C383.717 223.802 385.407 225.227 387.316 225.066C389.226 224.904 390.651 223.215 390.49 221.306C390.328 219.397 388.639 217.972 386.729 218.134ZM207.616 247.258C205.706 247.419 204.281 249.108 204.442 251.017C204.604 252.926 206.293 254.351 208.203 254.19C210.112 254.028 211.538 252.339 211.376 250.43C211.215 248.521 209.525 247.096 207.616 247.258ZM249.221 243.736C247.311 243.898 245.885 245.587 246.047 247.496C246.208 249.405 247.898 250.83 249.807 250.668C251.717 250.507 253.143 248.818 252.981 246.909C252.819 245 251.13 243.575 249.221 243.736ZM381.92 233.35C380.984 233.415 380.122 233.856 379.514 234.576C378.274 236.044 378.46 238.238 379.929 239.477C381.398 240.716 383.592 240.531 384.832 239.062C386.071 237.594 385.886 235.4 384.417 234.161C383.726 233.578 382.829 233.286 381.92 233.35ZM352.505 235.853C351.569 235.905 350.692 236.347 350.085 237.067C348.859 238.534 349.045 240.741 350.501 241.982C351.969 243.207 354.176 243.02 355.417 241.565C356.643 240.098 356.456 237.891 355.001 236.651C354.297 236.069 353.414 235.79 352.505 235.853ZM367.687 240.691C365.778 240.852 364.352 242.541 364.514 244.45C364.675 246.359 366.364 247.784 368.274 247.623C370.184 247.461 371.609 245.772 371.448 243.863C371.286 241.954 369.597 240.529 367.687 240.691ZM214.995 261.442C214.06 261.507 213.197 261.949 212.589 262.668C211.35 264.137 211.535 266.33 213.004 267.569C214.473 268.809 216.667 268.623 217.907 267.154C219.147 265.686 218.961 263.493 217.492 262.253C216.802 261.671 215.904 261.379 214.995 261.442ZM244.425 258.951C243.489 259.016 242.613 259.459 242.005 260.178C240.766 261.647 240.951 263.84 242.42 265.08C243.889 266.319 246.083 266.133 247.323 264.665C248.562 263.196 248.377 261.003 246.908 259.763C246.218 259.181 245.333 258.888 244.425 258.951ZM230.178 266.293C228.269 266.455 226.843 268.143 227.005 270.052C227.166 271.961 228.856 273.387 230.765 273.225C232.675 273.063 234.1 271.375 233.939 269.466C233.777 267.557 232.088 266.131 230.178 266.293Z" fill="#E9BB17"/>
<path d="M65.0707 1988C5.35147 1988 -17.8727 1954.53 -22.0198 1937.79C-38.6066 1912.68 -61.8281 1834.86 -22.0198 1724.4C17.7884 1613.93 52.6273 1703.48 65.0707 1762.06C144.692 1671.68 156.31 1757.87 152.167 1812.26C291.516 1752.01 243.403 1837.37 201.927 1887.58C361.179 1897.62 318.048 1941.97 276.576 1962.89C230.957 1971.26 124.79 1988 65.0707 1988Z" fill="#E9BB17" stroke="#DE7C23" stroke-width="12"/>
<path d="M502.941 1737C493.41 1738.94 488.482 1733.66 487.209 1730.78C483.646 1726.79 477.099 1713.52 479.42 1692.34C481.741 1671.15 490.569 1686.16 494.694 1696.3C504.102 1677.45 509.102 1692.6 510.426 1702.53C530.466 1687.17 525.903 1704.1 521.116 1714.49C546.898 1711.15 541.634 1720.53 535.779 1725.64C528.804 1728.62 512.471 1735.07 502.941 1737Z" fill="#E9BB17" stroke="#DE7C23" stroke-width="8"/>
<path d="M163.22 416.448C164.294 426.113 158.598 430.551 155.615 431.562C151.328 434.757 137.53 440.095 116.635 435.896C95.7412 431.697 111.471 424.241 121.948 421.037C104.006 409.987 119.541 406.356 129.551 405.922C116.038 384.593 132.496 390.646 142.414 396.339C141.382 370.362 150.26 376.441 154.828 382.728C157.178 389.941 162.145 406.783 163.22 416.448Z" fill="#E9BB17" stroke="#DE7C23" stroke-width="8"/>
<path d="M1142.52 679.357C1153.75 702.381 1143.55 718.441 1137.05 723.593C1129.24 735.317 1099.74 760.792 1044.19 768.894C988.633 776.997 1021.05 744.556 1044.2 727.322C989.893 715.812 1025.21 693.035 1049.66 683.085C997.234 642.152 1043.43 642.581 1073.08 647.912C1047.49 584.383 1074.91 591.596 1091.81 603.143C1104.03 618.954 1131.28 656.333 1142.52 679.357Z" fill="#E9BB17" stroke="#DE7C23" stroke-width="12"/>
<path d="M1113.76 -45.0313C1173.44 -47.2044 1197.87 -14.598 1202.62 1.9768C1220.11 26.4616 1246.15 103.391 1210.39 215.229C1174.63 327.068 1136.55 238.849 1121.99 180.761C1045.71 273.977 1030.96 188.266 1033.12 133.758C896.056 199.041 941.031 111.989 980.652 60.3031C821.141 56.0625 862.629 10.1699 903.312 -12.2463C948.596 -22.2692 1054.08 -42.8582 1113.76 -45.0313Z" fill="#E9BB17" stroke="#DE7C23" stroke-width="12"/>
<path d="M22 1537.25C31.6949 1528.53 52.949 1514.82 63.8341 1526.05C64.8785 1527.13 64.948 1528.77 64.3273 1530.13C60.0487 1539.55 57.1147 1554.41 73.9125 1552.35C92.0873 1550.11 102.809 1538.41 105.898 1532.83" stroke="#F8D867" stroke-width="15"/>
<ellipse cx="91.225" cy="1573.28" rx="9.76872" ry="9.40692" transform="rotate(-55.3139 91.225 1573.28)" fill="#F8D867"/>
<path d="M107.229 1622.63C132.76 1585.74 146.571 1572.56 150.285 1570.59" stroke="#F8D867" stroke-width="15"/>
<path d="M106.715 1008.8C115.315 1098.24 31.3584 1093.43 -11.6952 1079.84L-25.3885 489C23.3107 511.482 142.27 571.428 228.514 631.355C314.759 691.282 257.969 745.515 218.794 765.141C273.138 796.514 343.534 866.724 346.7 953.035C349.233 1022.08 187.765 1018.98 106.715 1008.8Z" fill="#F8D867"/>
<path d="M-10.4111 619.567C35.8825 619.165 145.967 632.143 215.956 687.27" stroke="#DE7C23" stroke-width="11"/>
<path d="M-9.39359 805.375L284.895 939.853" stroke="#DE7C23" stroke-width="11"/>
<path d="M-5.93857 991.048C10.2817 1015.79 47.8311 1057.32 68.2672 1025.43" stroke="#DE7C23" stroke-width="11"/>
<path d="M973.069 1692.17C973.558 1691.29 973.74 1690.28 973.585 1689.3C973.43 1688.31 972.948 1687.4 972.216 1686.72C947.202 1663.48 924.842 1640.12 905.417 1616.63C909.233 1614.39 912.881 1611.85 916.307 1608.95C935.638 1592.57 938.576 1565.28 923.905 1549.82C916.546 1542.07 906.277 1539.54 895.962 1540.81C885.646 1542.08 875.002 1546.86 865.156 1553.73C854.741 1560.99 849.895 1572.38 849.058 1583.4C848.222 1594.41 851.109 1605.27 856.948 1612.77C857.524 1613.51 857.775 1613.69 858.318 1614.22C858.86 1614.75 859.551 1615.41 860.396 1616.2C862.086 1617.78 864.376 1619.89 867.109 1622.42C872.575 1627.48 879.812 1634.21 887.443 1641.55C902.217 1655.77 918.223 1672.35 925.609 1683.09C925.152 1686.24 923.155 1690.3 919.831 1694.72L914.273 1683.03C914.154 1682.76 913.981 1682.51 913.764 1682.3C913.548 1682.1 913.292 1681.94 913.012 1681.83C912.732 1681.73 912.434 1681.68 912.136 1681.69C911.837 1681.7 911.545 1681.78 911.275 1681.91C911.005 1682.03 910.764 1682.22 910.565 1682.44C910.367 1682.66 910.216 1682.92 910.121 1683.21C910.026 1683.49 909.989 1683.79 910.012 1684.09C910.035 1684.39 910.117 1684.68 910.255 1684.94L916.589 1698.26C916.626 1698.34 916.668 1698.42 916.714 1698.49C914.702 1700.76 912.366 1703.06 909.729 1705.36L906.657 1694.86C906.491 1694.3 906.106 1693.82 905.588 1693.54C905.069 1693.25 904.46 1693.19 903.893 1693.35C903.326 1693.52 902.849 1693.9 902.565 1694.42C902.282 1694.94 902.216 1695.55 902.383 1696.12L906.001 1708.45C902.925 1710.88 899.577 1713.26 896.012 1715.57L894.532 1703.56C894.502 1703.27 894.413 1702.99 894.271 1702.73C894.129 1702.47 893.937 1702.24 893.705 1702.05C893.474 1701.87 893.208 1701.73 892.923 1701.65C892.639 1701.57 892.341 1701.55 892.047 1701.58C891.753 1701.62 891.469 1701.71 891.213 1701.86C890.956 1702.01 890.731 1702.2 890.551 1702.44C890.371 1702.67 890.24 1702.94 890.165 1703.23C890.09 1703.52 890.073 1703.81 890.114 1704.11L891.817 1717.91C891.827 1718 891.844 1718.09 891.866 1718.18C889.338 1719.7 886.707 1721.16 884.025 1722.58L881.174 1712.86C881.096 1712.58 880.962 1712.31 880.78 1712.08C880.598 1711.84 880.371 1711.65 880.112 1711.51C879.854 1711.36 879.569 1711.27 879.275 1711.24C878.981 1711.2 878.683 1711.23 878.399 1711.31C878.115 1711.4 877.85 1711.54 877.62 1711.72C877.391 1711.91 877.201 1712.14 877.062 1712.4C876.923 1712.66 876.837 1712.95 876.81 1713.25C876.783 1713.54 876.815 1713.84 876.904 1714.12L879.992 1724.66C877.369 1725.96 874.691 1727.18 871.981 1728.34L869.939 1721.37C869.857 1721.09 869.72 1720.82 869.537 1720.6C869.354 1720.37 869.127 1720.18 868.871 1720.04C868.614 1719.9 868.332 1719.81 868.041 1719.78C867.75 1719.75 867.456 1719.77 867.176 1719.86C866.895 1719.94 866.633 1720.07 866.405 1720.26C866.178 1720.44 865.988 1720.67 865.848 1720.92C865.708 1721.18 865.619 1721.46 865.588 1721.75C865.557 1722.04 865.583 1722.34 865.665 1722.62L867.847 1730.05C866.153 1730.72 864.456 1731.38 862.747 1731.99C861.817 1732.32 861.024 1732.95 860.491 1733.78C859.958 1734.61 859.715 1735.59 859.801 1736.57C859.887 1737.56 860.296 1738.48 860.965 1739.21C861.634 1739.93 862.525 1740.41 863.497 1740.58C876.261 1742.71 889.612 1744.65 904.646 1741.04C919.661 1737.43 936.04 1728.33 955.188 1709.41L955.206 1709.39L972.252 1693.22C972.576 1692.91 972.851 1692.55 973.069 1692.17ZM962.781 1689.93L949.06 1702.95C949.039 1702.97 949.017 1702.99 948.996 1703.01C930.6 1721.21 915.742 1729.22 902.569 1732.38C895.214 1734.14 888.275 1734.27 881.392 1733.8C893.108 1728.25 903.998 1721.58 912.823 1714.43C925.496 1704.16 934.595 1693.3 934.834 1682.01C934.853 1681.11 934.598 1680.22 934.103 1679.47C925.989 1667.12 909.017 1649.96 893.615 1635.14C885.914 1627.72 878.633 1620.96 873.157 1615.89C870.419 1613.36 868.131 1611.24 866.482 1609.7C865.657 1608.93 864.991 1608.29 864.526 1607.84C864.061 1607.39 863.659 1606.9 863.976 1607.31C859.916 1602.09 857.257 1593.01 857.935 1584.07C858.195 1580.65 858.907 1577.29 860.122 1574.12L861.805 1577.63C861.978 1578 862.25 1578.32 862.592 1578.55C862.934 1578.78 863.332 1578.91 863.743 1578.92C864.153 1578.94 864.56 1578.84 864.918 1578.64C865.275 1578.43 865.571 1578.14 865.77 1577.78C865.946 1577.46 866.043 1577.11 866.051 1576.75C866.059 1576.39 865.979 1576.03 865.818 1575.7L862.642 1569.09C864.327 1566.38 866.471 1563.92 869.165 1561.84L872.791 1574.05C872.913 1574.48 873.162 1574.87 873.507 1575.15C873.852 1575.44 874.275 1575.62 874.722 1575.66C875.169 1575.7 875.618 1575.61 876.011 1575.39C876.404 1575.18 876.722 1574.85 876.923 1574.44C877.184 1573.93 877.233 1573.33 877.06 1572.78L873.023 1559.19C875.474 1557.62 877.95 1556.2 880.425 1554.98L881.599 1564.23C881.654 1564.72 881.865 1565.17 882.201 1565.52C882.538 1565.87 882.98 1566.11 883.461 1566.18C883.942 1566.26 884.435 1566.18 884.864 1565.94C885.293 1565.71 885.635 1565.35 885.837 1564.91C886.013 1564.52 886.075 1564.09 886.014 1563.67L884.673 1553.07C887.381 1551.96 890.051 1551.09 892.646 1550.48L895.956 1561.62C896.077 1562.05 896.326 1562.44 896.67 1562.72C897.015 1563.01 897.438 1563.19 897.884 1563.23C898.33 1563.28 898.78 1563.18 899.172 1562.97C899.565 1562.75 899.884 1562.42 900.086 1562.02C900.346 1561.5 900.395 1560.9 900.222 1560.35L897.044 1549.65C897.046 1549.65 897.048 1549.65 897.05 1549.65C900.043 1549.28 902.834 1549.29 905.436 1549.69L908.329 1559.43C908.451 1559.86 908.7 1560.24 909.044 1560.53C909.388 1560.82 909.811 1561 910.258 1561.04C910.704 1561.08 911.153 1560.99 911.546 1560.77C911.939 1560.56 912.257 1560.23 912.46 1559.83C912.72 1559.31 912.769 1558.71 912.596 1558.16L910.503 1551.11C913.056 1552.19 915.378 1553.77 917.449 1555.95C928.013 1567.08 926.518 1588.63 910.554 1602.15C910.553 1602.15 910.552 1602.15 910.551 1602.15C905.884 1606.11 901.325 1609.39 896.699 1611.33C896.062 1611.6 895.497 1612.01 895.048 1612.54C894.598 1613.06 894.277 1613.68 894.109 1614.35C893.942 1615.02 893.932 1615.72 894.081 1616.4C894.23 1617.07 894.534 1617.7 894.968 1618.24C914.541 1642.37 937.524 1666.23 962.781 1689.93ZM940.853 1704.01C941.221 1702.84 940.565 1701.59 939.394 1701.23C938.223 1700.86 936.972 1701.51 936.604 1702.69C936.238 1703.86 936.891 1705.11 938.064 1705.47C939.238 1705.84 940.49 1705.19 940.853 1704.01ZM947.213 1682.68C947.579 1681.51 946.924 1680.26 945.751 1679.89C944.579 1679.53 943.333 1680.18 942.965 1681.36C942.598 1682.53 943.252 1683.78 944.425 1684.14C945.597 1684.51 946.847 1683.85 947.213 1682.68ZM896.906 1597.14C897.187 1596.62 897.251 1596.01 897.083 1595.44C896.915 1594.88 896.529 1594.4 896.01 1594.12C895.491 1593.84 894.881 1593.78 894.315 1593.94C893.75 1594.11 893.274 1594.5 892.992 1595.02C892.711 1595.54 892.647 1596.15 892.815 1596.71C892.983 1597.28 893.369 1597.75 893.888 1598.04C894.407 1598.32 895.017 1598.38 895.583 1598.21C896.149 1598.04 896.624 1597.66 896.906 1597.14ZM878.332 1602.07C878.613 1601.55 878.676 1600.94 878.508 1600.37C878.34 1599.81 877.954 1599.33 877.435 1599.05C876.917 1598.77 876.307 1598.71 875.741 1598.87C875.175 1599.04 874.699 1599.43 874.418 1599.95C874.137 1600.47 874.073 1601.08 874.241 1601.64C874.409 1602.21 874.795 1602.68 875.314 1602.96C875.833 1603.25 876.442 1603.31 877.008 1603.14C877.574 1602.97 878.05 1602.59 878.332 1602.07ZM877.2 1586.79C877.481 1586.27 877.544 1585.66 877.376 1585.09C877.208 1584.53 876.822 1584.05 876.303 1583.77C875.785 1583.49 875.175 1583.43 874.609 1583.59C874.043 1583.76 873.567 1584.15 873.286 1584.67C873.005 1585.19 872.941 1585.8 873.109 1586.36C873.277 1586.93 873.663 1587.4 874.182 1587.68C874.701 1587.97 875.31 1588.03 875.876 1587.86C876.442 1587.69 876.918 1587.31 877.2 1586.79Z" fill="#E9BB17"/>
<path d="M631.884 80.1581C631.408 81.036 631.24 82.0488 631.408 83.0336C631.577 84.0184 632.072 84.9178 632.813 85.5873C658.149 108.476 680.833 131.525 700.585 154.74C696.8 157.034 693.188 159.625 689.803 162.576C670.703 179.222 668.146 206.552 683.031 221.801C690.498 229.453 700.801 231.834 711.098 230.421C721.395 229.009 731.971 224.084 741.72 217.077C752.032 209.665 756.72 198.213 757.402 187.185C758.085 176.157 755.046 165.344 749.103 157.922C748.516 157.188 748.263 157.012 747.713 156.491C747.163 155.971 746.463 155.323 745.607 154.543C743.895 152.985 741.576 150.904 738.808 148.413C733.272 143.429 725.941 136.809 718.209 129.571C703.238 115.557 687.002 99.2028 679.466 88.572C679.88 85.4131 681.82 81.3272 685.082 76.8648L690.802 88.4719C690.925 88.7442 691.101 88.9891 691.321 89.1919C691.54 89.3947 691.798 89.5512 692.08 89.6522C692.361 89.7531 692.659 89.7964 692.958 89.7795C693.256 89.7626 693.548 89.6857 693.816 89.5536C694.084 89.4215 694.323 89.2368 694.518 89.0105C694.713 88.7842 694.86 88.521 694.951 88.2364C695.043 87.9519 695.076 87.6519 695.048 87.3544C695.021 87.0568 694.934 86.7678 694.793 86.5045L688.274 73.276C688.236 73.1956 688.193 73.1175 688.146 73.0422C690.125 70.7532 692.429 68.4195 695.034 66.0805L698.252 76.5334C698.427 77.0978 698.818 77.5699 699.34 77.8459C699.862 78.1219 700.473 78.1792 701.037 78.0051C701.601 77.831 702.074 77.4399 702.35 76.9177C702.626 76.3955 702.683 75.785 702.509 75.2206L698.719 62.9368C701.761 60.4691 705.075 58.0412 708.607 55.6825L710.254 67.6628C710.289 67.9567 710.381 68.2408 710.527 68.4985C710.673 68.7562 710.868 68.9822 711.102 69.1635C711.336 69.3447 711.604 69.4774 711.89 69.5539C712.176 69.6304 712.474 69.6491 712.767 69.609C713.06 69.5688 713.343 69.4706 713.597 69.32C713.852 69.1695 714.074 68.9696 714.251 68.7322C714.428 68.4947 714.555 68.2244 714.626 67.9371C714.697 67.6498 714.71 67.3512 714.664 67.0588L712.769 53.2849C712.757 53.1928 712.74 53.1015 712.716 53.0116C715.223 51.4528 717.833 49.9555 720.495 48.4995L723.481 58.1779C723.563 58.4625 723.701 58.7279 723.886 58.9586C724.072 59.1893 724.302 59.3806 724.562 59.5215C724.822 59.6623 725.108 59.7497 725.403 59.7786C725.698 59.8076 725.995 59.7774 726.278 59.69C726.561 59.6025 726.824 59.4595 727.05 59.2693C727.277 59.0791 727.464 58.8455 727.6 58.5823C727.735 58.319 727.817 58.0314 727.84 57.7362C727.863 57.441 727.827 57.1442 727.734 56.8631L724.498 46.3672C727.104 45.0344 729.764 43.7774 732.458 42.578L734.596 49.5198C734.682 49.7993 734.823 50.0592 735.009 50.2844C735.196 50.5097 735.425 50.696 735.683 50.8327C735.942 50.9694 736.225 51.0538 736.516 51.0812C736.807 51.1085 737.101 51.0782 737.381 50.992C737.66 50.9058 737.92 50.7653 738.145 50.5787C738.37 50.3921 738.557 50.1629 738.693 49.9043C738.83 49.6457 738.914 49.3627 738.942 49.0715C738.969 48.7803 738.939 48.4865 738.852 48.207L736.567 40.8055C738.251 40.1122 739.939 39.4262 741.64 38.7966C742.564 38.4538 743.349 37.8137 743.87 36.9769C744.392 36.1401 744.621 35.1538 744.521 34.1728C744.421 33.1919 743.999 32.2717 743.32 31.5567C742.641 30.8418 741.744 30.3724 740.769 30.2224C727.977 28.2678 714.6 26.5177 699.618 30.3375C684.655 34.1526 668.405 43.4836 649.523 62.6686L649.505 62.6838L632.686 79.0962C632.367 79.408 632.097 79.766 631.884 80.1581ZM642.203 82.2533L655.74 69.039C655.761 69.0176 655.782 68.9959 655.803 68.9741C673.944 50.5258 688.689 42.3113 701.816 38.9643C709.145 37.0956 716.082 36.8698 722.971 37.2476C711.333 42.9588 700.538 49.7821 691.814 57.0549C679.286 67.4982 670.339 78.485 670.257 89.7822C670.251 90.6827 670.519 91.5637 671.024 92.3091C679.31 104.545 696.52 121.462 712.127 136.072C719.931 143.377 727.306 150.036 732.852 155.028C735.625 157.525 737.942 159.608 739.613 161.129C740.448 161.89 741.123 162.512 741.594 162.958C742.066 163.404 742.475 163.889 742.152 163.486C746.284 168.647 749.07 177.691 748.517 186.636C748.305 190.058 747.64 193.431 746.469 196.611L744.737 193.126C744.559 192.756 744.283 192.442 743.937 192.219C743.592 191.997 743.192 191.874 742.782 191.864C742.371 191.855 741.966 191.959 741.611 192.166C741.256 192.372 740.965 192.673 740.77 193.035C740.599 193.353 740.507 193.709 740.504 194.071C740.501 194.433 740.586 194.79 740.752 195.111L744.019 201.678C742.372 204.409 740.264 206.904 737.598 209.022L733.802 196.862C733.674 196.432 733.419 196.05 733.071 195.767C732.722 195.484 732.296 195.313 731.849 195.277C731.401 195.24 730.953 195.34 730.564 195.563C730.174 195.785 729.86 196.121 729.665 196.525C729.411 197.045 729.371 197.643 729.551 198.193L733.778 211.722C731.349 213.326 728.893 214.781 726.435 216.04L725.132 206.802C725.071 206.319 724.853 205.869 724.512 205.521C724.171 205.174 723.725 204.948 723.243 204.878C722.761 204.808 722.269 204.898 721.844 205.134C721.418 205.371 721.081 205.74 720.885 206.186C720.714 206.576 720.659 207.007 720.725 207.427L722.215 218.005C719.522 219.155 716.864 220.06 714.278 220.711L710.814 209.614C710.686 209.184 710.431 208.803 710.083 208.52C709.735 208.237 709.31 208.066 708.863 208.029C708.416 207.992 707.968 208.091 707.578 208.313C707.188 208.535 706.875 208.869 706.678 209.272C706.425 209.793 706.384 210.391 706.565 210.941L709.892 221.598C709.89 221.598 709.888 221.599 709.886 221.599C706.898 222.009 704.108 222.037 701.5 221.67L698.471 211.98C698.344 211.55 698.089 211.168 697.741 210.885C697.393 210.602 696.968 210.431 696.521 210.394C696.074 210.357 695.626 210.456 695.236 210.678C694.846 210.9 694.533 211.235 694.336 211.638C694.083 212.158 694.042 212.756 694.223 213.306L696.414 220.325C693.847 219.286 691.503 217.737 689.402 215.584C678.683 204.603 679.877 183.034 695.65 169.287C695.651 169.288 695.652 169.289 695.654 169.289C700.265 165.27 704.777 161.926 709.376 159.917C710.009 159.64 710.568 159.22 711.01 158.689C711.452 158.159 711.765 157.533 711.923 156.861C712.082 156.189 712.081 155.489 711.923 154.817C711.765 154.145 711.452 153.519 711.01 152.989C691.102 129.13 667.788 105.59 642.203 82.2533ZM663.931 67.8598C663.58 69.0378 664.254 70.2782 665.43 70.6282C666.606 70.9783 667.847 70.3075 668.198 69.1295C668.548 67.9535 667.878 66.7122 666.7 66.3611C665.521 66.012 664.278 66.6847 663.931 67.8598ZM657.871 89.2828C657.521 90.4588 658.194 91.6963 659.372 92.0474C660.548 92.3974 661.785 91.7246 662.136 90.5466C662.487 89.3686 661.815 88.1293 660.637 87.7782C659.46 87.4301 658.22 88.1038 657.871 89.2828ZM709.367 174.111C709.093 174.634 709.038 175.245 709.214 175.808C709.39 176.372 709.783 176.842 710.305 177.116C710.828 177.39 711.439 177.445 712.002 177.269C712.565 177.093 713.036 176.701 713.31 176.178C713.584 175.655 713.639 175.045 713.463 174.481C713.287 173.918 712.895 173.447 712.372 173.173C711.849 172.899 711.239 172.844 710.675 173.02C710.112 173.196 709.641 173.589 709.367 174.111ZM727.871 168.924C727.597 169.446 727.542 170.057 727.718 170.62C727.894 171.184 728.286 171.654 728.809 171.928C729.332 172.202 729.942 172.257 730.506 172.082C731.069 171.906 731.54 171.513 731.814 170.99C732.088 170.467 732.143 169.857 731.967 169.294C731.791 168.73 731.398 168.26 730.876 167.986C730.353 167.711 729.742 167.656 729.179 167.832C728.615 168.008 728.145 168.401 727.871 168.924ZM729.216 184.186C728.942 184.709 728.887 185.319 729.063 185.883C729.239 186.446 729.631 186.917 730.154 187.191C730.677 187.465 731.287 187.52 731.851 187.344C732.414 187.168 732.885 186.776 733.159 186.253C733.433 185.73 733.488 185.12 733.312 184.556C733.136 183.993 732.744 183.522 732.221 183.248C731.698 182.974 731.088 182.919 730.524 183.095C729.961 183.271 729.49 183.663 729.216 184.186Z" fill="#E9BB17"/>
<path d="M499.069 760.165C499.558 759.294 499.74 758.284 499.585 757.297C499.43 756.31 498.948 755.404 498.216 754.724C473.202 731.484 450.842 708.12 431.417 684.631C435.233 682.391 438.881 679.85 442.307 676.947C461.638 660.569 464.576 633.278 449.905 617.822C442.546 610.067 432.277 607.542 421.962 608.81C411.646 610.079 401.002 614.856 391.156 621.726C380.741 628.993 375.895 640.379 375.058 651.396C374.222 662.413 377.109 673.268 382.948 680.773C383.524 681.514 383.775 681.694 384.318 682.222C384.86 682.75 385.551 683.408 386.396 684.199C388.086 685.782 390.376 687.894 393.109 690.424C398.575 695.485 405.812 702.206 413.443 709.551C428.217 723.774 444.223 740.353 451.609 751.088C451.152 754.241 449.155 758.299 445.831 762.715L440.273 751.03C440.154 750.756 439.981 750.508 439.764 750.302C439.548 750.097 439.292 749.936 439.012 749.832C438.732 749.727 438.434 749.679 438.136 749.692C437.837 749.705 437.545 749.778 437.275 749.906C437.005 750.034 436.764 750.216 436.565 750.439C436.367 750.663 436.216 750.924 436.121 751.207C436.026 751.49 435.989 751.79 436.012 752.088C436.035 752.386 436.117 752.676 436.255 752.941L442.589 766.259C442.626 766.34 442.668 766.419 442.714 766.495C440.702 768.756 438.366 771.057 435.729 773.36L432.657 762.863C432.491 762.296 432.106 761.819 431.588 761.535C431.069 761.252 430.46 761.186 429.893 761.352C429.326 761.519 428.849 761.903 428.565 762.421C428.282 762.94 428.216 763.549 428.383 764.116L432.001 776.452C428.925 778.877 425.577 781.258 422.012 783.567L420.532 771.565C420.502 771.271 420.413 770.985 420.271 770.726C420.129 770.466 419.937 770.237 419.705 770.053C419.474 769.868 419.208 769.732 418.923 769.651C418.639 769.571 418.341 769.548 418.047 769.584C417.753 769.62 417.469 769.714 417.213 769.861C416.956 770.008 416.731 770.205 416.551 770.44C416.371 770.675 416.24 770.943 416.165 771.23C416.09 771.516 416.073 771.814 416.114 772.107L417.817 785.906C417.827 785.999 417.844 786.09 417.866 786.18C415.338 787.704 412.707 789.165 410.025 790.583L407.174 780.864C407.096 780.579 406.962 780.311 406.78 780.078C406.598 779.845 406.371 779.65 406.112 779.506C405.854 779.361 405.569 779.27 405.275 779.237C404.981 779.204 404.683 779.23 404.399 779.313C404.115 779.397 403.85 779.536 403.62 779.723C403.391 779.91 403.201 780.141 403.062 780.402C402.923 780.664 402.837 780.95 402.81 781.245C402.783 781.54 402.815 781.837 402.904 782.12L405.992 792.66C403.369 793.956 400.691 795.176 397.981 796.337L395.939 789.366C395.857 789.086 395.72 788.824 395.537 788.596C395.354 788.368 395.127 788.179 394.871 788.038C394.614 787.898 394.332 787.81 394.041 787.778C393.75 787.747 393.456 787.773 393.176 787.855C392.895 787.938 392.633 788.074 392.405 788.258C392.178 788.441 391.988 788.668 391.848 788.925C391.708 789.181 391.619 789.463 391.588 789.754C391.557 790.045 391.583 790.339 391.665 790.619L393.847 798.052C392.153 798.722 390.456 799.384 388.747 799.99C387.817 800.32 387.024 800.949 386.491 801.778C385.958 802.608 385.715 803.591 385.801 804.573C385.887 805.555 386.296 806.481 386.965 807.206C387.634 807.93 388.525 808.412 389.497 808.576C402.261 810.709 415.612 812.645 430.646 809.035C445.661 805.429 462.04 796.326 481.188 777.407L481.206 777.392L498.252 761.216C498.576 760.909 498.851 760.555 499.069 760.165ZM488.781 757.926L475.06 770.95C475.039 770.971 475.017 770.993 474.996 771.014C456.6 789.207 441.742 797.215 428.569 800.379C421.214 802.145 414.275 802.274 407.392 801.8C419.108 796.252 429.998 789.58 438.823 782.429C451.496 772.162 460.595 761.301 460.834 750.006C460.853 749.106 460.598 748.221 460.103 747.469C451.989 735.119 435.017 717.963 419.615 703.136C411.914 695.723 404.633 688.962 399.157 683.892C396.419 681.357 394.131 679.242 392.482 677.698C391.657 676.926 390.991 676.294 390.526 675.841C390.061 675.389 389.659 674.898 389.976 675.306C385.916 670.087 383.257 661.005 383.935 652.069C384.195 648.65 384.907 645.287 386.122 642.124L387.805 645.632C387.978 646.005 388.25 646.323 388.592 646.55C388.934 646.778 389.332 646.906 389.743 646.921C390.153 646.937 390.56 646.838 390.918 646.636C391.275 646.435 391.571 646.138 391.77 645.779C391.946 645.463 392.043 645.109 392.051 644.747C392.059 644.385 391.979 644.027 391.818 643.703L388.642 637.091C390.327 634.384 392.471 631.918 395.165 629.838L398.791 642.049C398.913 642.481 399.162 642.866 399.507 643.154C399.852 643.442 400.275 643.619 400.722 643.662C401.169 643.705 401.618 643.611 402.011 643.394C402.404 643.177 402.722 642.846 402.923 642.445C403.184 641.928 403.233 641.33 403.06 640.778L399.023 627.192C401.474 625.622 403.95 624.201 406.425 622.976L407.599 632.232C407.654 632.716 407.865 633.168 408.201 633.521C408.538 633.873 408.98 634.105 409.461 634.182C409.942 634.258 410.435 634.175 410.864 633.945C411.293 633.715 411.635 633.35 411.837 632.907C412.013 632.519 412.075 632.089 412.014 631.668L410.673 621.071C413.381 619.959 416.051 619.091 418.646 618.475L421.956 629.62C422.077 630.052 422.326 630.437 422.67 630.724C423.015 631.012 423.438 631.189 423.884 631.232C424.33 631.275 424.78 631.183 425.172 630.966C425.565 630.75 425.884 630.42 426.086 630.019C426.346 629.503 426.395 628.905 426.222 628.353L423.044 617.65C423.046 617.65 423.048 617.649 423.05 617.648C426.043 617.28 428.834 617.292 431.436 617.695L434.329 627.427C434.451 627.859 434.7 628.243 435.044 628.531C435.388 628.819 435.811 628.996 436.258 629.039C436.704 629.082 437.153 628.99 437.546 628.773C437.939 628.557 438.257 628.227 438.46 627.826C438.72 627.31 438.769 626.712 438.596 626.16L436.503 619.111C439.056 620.186 441.378 621.767 443.449 623.949C454.013 635.079 452.518 656.63 436.554 670.154C436.553 670.154 436.552 670.153 436.551 670.152C431.884 674.107 427.325 677.387 422.699 679.332C422.062 679.6 421.497 680.013 421.048 680.537C420.598 681.061 420.277 681.683 420.109 682.352C419.942 683.022 419.932 683.722 420.081 684.396C420.23 685.07 420.534 685.7 420.968 686.237C440.541 710.372 463.524 734.234 488.781 757.926ZM466.853 772.015C467.221 770.842 466.565 769.592 465.394 769.226C464.223 768.859 462.972 769.513 462.604 770.686C462.238 771.857 462.891 773.107 464.064 773.475C465.238 773.84 466.49 773.185 466.853 772.015ZM473.213 750.679C473.579 749.508 472.924 748.261 471.751 747.893C470.579 747.527 469.333 748.182 468.965 749.355C468.598 750.528 469.252 751.777 470.425 752.145C471.597 752.509 472.847 751.853 473.213 750.679ZM422.906 665.139C423.187 664.62 423.251 664.011 423.083 663.445C422.915 662.879 422.529 662.403 422.01 662.122C421.491 661.84 420.881 661.777 420.315 661.945C419.75 662.113 419.274 662.499 418.992 663.018C418.711 663.537 418.647 664.146 418.815 664.712C418.983 665.278 419.369 665.754 419.888 666.035C420.407 666.316 421.017 666.38 421.583 666.212C422.149 666.044 422.624 665.658 422.906 665.139ZM404.332 670.068C404.613 669.549 404.676 668.94 404.508 668.374C404.34 667.808 403.954 667.332 403.435 667.051C402.917 666.769 402.307 666.706 401.741 666.874C401.175 667.042 400.699 667.428 400.418 667.947C400.137 668.466 400.073 669.075 400.241 669.641C400.409 670.207 400.795 670.683 401.314 670.964C401.833 671.245 402.442 671.309 403.008 671.141C403.574 670.973 404.05 670.587 404.332 670.068ZM403.2 654.788C403.481 654.269 403.544 653.66 403.376 653.094C403.208 652.528 402.822 652.052 402.303 651.771C401.785 651.489 401.175 651.426 400.609 651.594C400.043 651.762 399.567 652.148 399.286 652.667C399.005 653.186 398.941 653.795 399.109 654.361C399.277 654.927 399.663 655.403 400.182 655.684C400.701 655.965 401.31 656.029 401.876 655.861C402.442 655.693 402.918 655.307 403.2 654.788Z" fill="#E9BB17"/>
<path d="M725 1610.14C734.429 1604.59 754.096 1596.87 761.386 1607.56C762.231 1608.8 761.958 1610.42 761.089 1611.65C756.024 1618.77 751.406 1630.29 765.484 1631.38C780.934 1632.58 791.813 1624.66 795.321 1620.55" stroke="#F8D867" stroke-width="15"/>
<path d="M284 670.14C293.429 664.592 313.096 656.873 320.386 667.56C321.231 668.799 320.958 670.423 320.089 671.646C315.024 678.771 310.406 690.285 324.484 691.377C339.934 692.575 350.813 684.661 354.321 680.554" stroke="#F8D867" stroke-width="15"/>
<circle cx="776.699" cy="1652.14" r="8.22955" transform="rotate(-43.8106 776.699 1652.14)" fill="#F8D867"/>
<circle cx="335.699" cy="712.144" r="8.22955" transform="rotate(-43.8106 335.699 712.144)" fill="#F8D867"/>
<path d="M781.41 1696.55C809.252 1669.84 823.058 1661.01 826.481 1659.94" stroke="#F8D867" stroke-width="15"/>
<path d="M340.41 756.552C368.252 729.843 382.058 721.013 385.481 719.936" stroke="#F8D867" stroke-width="15"/>
<path d="M1029.96 1539.85C1021.94 1546.21 1004.74 1555.91 996.524 1547.1C995.501 1546.01 995.551 1544.36 996.237 1543.02C999.987 1535.73 1002.67 1524.55 989.503 1525.36C974.966 1526.26 965.873 1535.05 963.144 1539.33" stroke="#F8D867" stroke-width="15"/>
<path d="M851.835 335C860.646 340.219 875.842 352.82 870.543 363.643C869.884 364.99 868.325 365.531 866.834 365.367C858.68 364.467 847.279 365.95 852.739 377.959C858.768 391.218 870.221 396.577 875.194 397.599" stroke="#F8D867" stroke-width="15"/>
<path d="M1206.71 445.719C1197.11 442.151 1177.76 438.263 1172.68 449.189C1172.04 450.55 1172.6 452.101 1173.67 453.157C1179.5 458.931 1185.52 468.728 1172.74 472.035C1158.64 475.687 1147.28 470.153 1143.35 466.93" stroke="#F8D867" stroke-width="15"/>
<path d="M854.957 138.846C846.937 145.215 829.744 154.914 821.524 146.103C820.501 145.006 820.551 143.357 821.237 142.023C824.987 134.726 827.67 123.546 814.503 124.362C799.966 125.264 790.873 134.051 788.144 138.332" stroke="#F8D867" stroke-width="15"/>
<circle cx="976.353" cy="1507.5" r="7.73488" transform="rotate(128.207 976.353 1507.5)" fill="#F8D867"/>
<circle cx="840.742" cy="396.618" r="7.73488" transform="rotate(17.3024 840.742 396.618)" fill="#F8D867"/>
<circle cx="7.73488" cy="7.73488" r="7.73488" transform="matrix(-0.83171 -0.555211 -0.555211 0.83171 1176.51 490.959)" fill="#F8D867"/>
<circle cx="801.353" cy="106.497" r="7.73488" transform="rotate(128.207 801.353 106.497)" fill="#F8D867"/>
<path d="M966.172 1466.78C943.744 1495.27 932.046 1505.29 929 1506.74" stroke="#F8D867" stroke-width="15"/>
<path d="M806.336 420.658C840.957 431.443 854.493 438.795 856.932 441.123" stroke="#F8D867" stroke-width="15"/>
<path d="M1168.73 534.967C1138.57 514.833 1124.34 508.935 1121 508.502" stroke="#F8D867" stroke-width="15"/>
<path d="M791.172 65.7778C768.744 94.2723 757.046 104.293 754 105.742" stroke="#F8D867" stroke-width="15"/>
<path d="M231.062 507.104C120.148 430.861 199.068 369.443 252.391 348.265C281.399 332.823 307.13 363.009 316.37 380.033C367.561 540.99 280.827 531.812 231.062 507.104Z" fill="#E9BB17"/>
<path d="M211.886 430.166C219.51 439.772 230.951 433.279 236.552 429.725C239.68 426.807 243.775 418.473 235.126 408.486C226.478 398.498 216.251 404.082 212.218 408.123C208.931 411.468 204.262 420.561 211.886 430.166Z" fill="#F8D867"/>
<path d="M301.122 488.186L265.224 363.689C267.843 375.456 265.044 401.199 250.406 416.8C237.832 430.203 232.875 432.058 236.552 429.725M236.552 429.725C230.951 433.279 219.51 439.772 211.886 430.166C204.262 420.561 208.931 411.468 212.218 408.123C216.251 404.082 226.478 398.498 235.126 408.486C243.775 418.473 239.68 426.807 236.552 429.725Z" stroke="#438342" stroke-width="4" stroke-linecap="round"/>
<circle cx="193.263" cy="445.037" r="4.5" transform="rotate(82.1151 193.263 445.037)" fill="#FFEEB0"/>
<circle cx="192.364" cy="423.961" r="4.5" transform="rotate(82.1151 192.364 423.961)" fill="#FFEEB0"/>
<circle cx="198.946" cy="405.887" r="4.5" transform="rotate(82.1151 198.946 405.887)" fill="#FFEEB0"/>
<path d="M718.419 776.176C692.937 610.007 815.042 634.72 879.279 667.847C917.749 682.697 912.426 731.353 904.956 753.825C803.664 932.208 738.393 843.052 718.419 776.176Z" fill="#E9BB17"/>
<path d="M776.357 690.143C771.717 703.024 784.603 710.069 791.267 713.298C795.875 714.553 806.191 713.543 810.591 699.466C814.99 685.389 803.681 678.962 797.477 677.508C792.37 676.353 780.996 677.263 776.357 690.143Z" fill="#F8D867"/>
<path d="M773.709 808.936L870.796 701.718C861.165 711.117 835.084 723.584 811.675 718.856C791.566 714.794 786.893 711.178 791.267 713.298M791.267 713.298C784.603 710.069 771.717 703.024 776.357 690.143C780.996 677.263 792.37 676.353 797.477 677.508C803.681 678.962 814.99 685.389 810.591 699.466C806.191 713.543 795.875 714.553 791.267 713.298Z" stroke="#438342" stroke-width="4" stroke-linecap="round"/>
<circle cx="745.338" cy="679.337" r="4.5" transform="rotate(129.743 745.338 679.337)" fill="#FFEEB0"/>
<circle cx="765.338" cy="662.337" r="4.5" transform="rotate(129.743 765.338 662.337)" fill="#FFEEB0"/>
<circle cx="790.338" cy="656.337" r="4.5" transform="rotate(129.743 790.338 656.337)" fill="#FFEEB0"/>
<path d="M73.6647 1258.89C144.352 1098.28 226.563 1197.94 258.833 1267.84C280.879 1305.38 250.162 1344.22 232.047 1358.95C55.3435 1448.97 52.8323 1329.75 73.6647 1258.89Z" fill="#E9BB17"/>
<path d="M163.851 1224.25C152.293 1233.55 160.233 1247.33 164.573 1254.08C168.126 1257.84 178.236 1262.73 190.248 1252.19C202.26 1241.66 195.429 1229.33 190.512 1224.49C186.441 1220.54 175.41 1214.96 163.851 1224.25Z" fill="#F8D867"/>
<path d="M94.3652 1332.61L244.652 1288.25C230.441 1291.51 199.288 1288.32 180.309 1270.74C164.005 1255.63 161.724 1249.65 164.573 1254.08M164.573 1254.08C160.233 1247.33 152.293 1233.55 163.851 1224.25C175.41 1214.96 186.441 1220.54 190.512 1224.49C195.429 1229.33 202.26 1241.66 190.248 1252.19C178.236 1262.73 168.126 1257.84 164.573 1254.08Z" stroke="#438342" stroke-width="4" stroke-linecap="round"/>
<circle cx="124.337" cy="1217.52" r="4.5" transform="rotate(129.743 124.337 1217.52)" fill="#FFEEB0"/>
<circle cx="139.301" cy="1202.66" r="4.5" transform="rotate(129.743 139.301 1202.66)" fill="#FFEEB0"/>
<circle cx="157.091" cy="1195.34" r="4.5" transform="rotate(129.743 157.091 1195.34)" fill="#FFEEB0"/>
<path d="M434.478 1728.56C521.841 1758.21 473.421 1805.84 438.291 1825.95C419.647 1839.22 397.894 1824.92 389.348 1816.11C334.084 1727.7 396.408 1720.91 434.478 1728.56Z" fill="#E9BB17"/>
<path d="M447.407 1779.63C442.766 1774.18 436.228 1778.2 433.035 1780.38C431.27 1782.15 429.053 1787.09 434.298 1792.74C439.544 1798.39 445.393 1794.92 447.661 1792.48C449.51 1790.47 452.047 1785.07 447.407 1779.63Z" fill="#F8D867"/>
<path d="M394.2 1747.61L417.662 1819.47C415.896 1812.66 417.004 1797.6 425.221 1788.2C432.279 1780.13 435.131 1778.95 433.035 1780.38M433.035 1780.38C436.228 1778.2 442.766 1774.18 447.407 1779.63C452.047 1785.07 449.51 1790.47 447.661 1792.48C445.393 1794.92 439.544 1798.39 434.298 1792.74C429.053 1787.09 431.27 1782.15 433.035 1780.38Z" stroke="#438342" stroke-width="4" stroke-linecap="round"/>
<circle cx="441.121" cy="1745.12" r="4.5" transform="rotate(-150.882 441.121 1745.12)" fill="#FFEEB0"/>
<circle cx="460.493" cy="1757.09" r="4.5" transform="rotate(-150.882 460.493 1757.09)" fill="#FFEEB0"/>
<circle cx="470.965" cy="1773.22" r="4.5" transform="rotate(-150.882 470.965 1773.22)" fill="#FFEEB0"/>
</g>
<defs>
<clipPath id="clip0_167_734">
<rect width="1185" height="1959" fill="white"/>
</clipPath>
</defs>
</svg>
