<svg width="1728" height="1029" viewBox="0 0 1728 1029" fill="none" xmlns="http://www.w3.org/2000/svg">
<g clip-path="url(#clip0_639_33564)">
<path d="M1728 0H0V1152H1728V0Z" fill="#420863"/>
<path d="M864 1003.85C1198.91 1003.85 1470.41 828.801 1470.41 612.864C1470.41 396.927 1198.91 221.875 864 221.875C529.087 221.875 257.587 396.927 257.587 612.864C257.587 828.801 529.087 1003.85 864 1003.85Z" fill="#601D86"/>
<path d="M864 932.198C1137.58 932.198 1359.36 789.228 1359.36 612.864C1359.36 436.5 1137.58 293.53 864 293.53C590.42 293.53 368.64 436.5 368.64 612.864C368.64 789.228 590.42 932.198 864 932.198Z" fill="#6F219E"/>
<path d="M1728 1006.16H0V1152H1728V1006.16Z" fill="#DA6A1C"/>
<path d="M1477.56 1006.16H250.445V1152H1477.56V1006.16Z" fill="#E98427"/>
<path d="M1172.28 1006.16H555.725V1152H1172.28V1006.16Z" fill="#ED9E4A"/>
<path d="M1728 955.238C1520.64 949.018 1210.52 945.101 864 945.101C517.478 945.101 207.36 949.018 0 955.238V1006.16C207.36 1032.65 517.478 1049.7 864 1049.7C1210.52 1049.7 1520.64 1032.88 1728 1006.16V955.238Z" fill="#ED9E4A"/>
<mask id="mask0_639_33564" style="mask-type:luminance" maskUnits="userSpaceOnUse" x="0" y="945" width="1728" height="105">
<path d="M1728 955.238C1520.64 949.018 1210.52 945.101 864 945.101C517.478 945.101 207.36 949.018 0 955.238V1006.16C207.36 1032.65 517.478 1049.7 864 1049.7C1210.52 1049.7 1520.64 1032.88 1728 1006.16V955.238Z" fill="white"/>
</mask>
<g mask="url(#mask0_639_33564)">
<path d="M1757.03 971.136L1668.1 939.11" stroke="#714B2D" stroke-width="0.75" stroke-miterlimit="10"/>
<path d="M1757.03 1013.99L1573.4 939.11" stroke="#714B2D" stroke-width="0.75" stroke-miterlimit="10"/>
<path d="M1757.03 1069.98L1478.94 939.11" stroke="#714B2D" stroke-width="0.75" stroke-miterlimit="10"/>
<path d="M1384.24 939.11L1666.94 1096.47" stroke="#714B2D" stroke-width="0.75" stroke-miterlimit="10"/>
<path d="M1289.78 939.11L1521.1 1096.47" stroke="#714B2D" stroke-width="0.75" stroke-miterlimit="10"/>
<path d="M1195.08 939.11L1375.03 1096.47" stroke="#714B2D" stroke-width="0.75" stroke-miterlimit="10"/>
<path d="M1100.39 939.11L1228.95 1096.47" stroke="#714B2D" stroke-width="0.75" stroke-miterlimit="10"/>
<path d="M1005.93 939.11L1083.11 1096.47" stroke="#714B2D" stroke-width="0.75" stroke-miterlimit="10"/>
<path d="M911.232 939.11L937.037 1096.47" stroke="#714B2D" stroke-width="0.75" stroke-miterlimit="10"/>
<path d="M816.768 939.11L790.963 1096.47" stroke="#714B2D" stroke-width="0.75" stroke-miterlimit="10"/>
<path d="M722.074 939.11L644.89 1096.47" stroke="#714B2D" stroke-width="0.75" stroke-miterlimit="10"/>
<path d="M627.61 939.11L499.046 1096.47" stroke="#714B2D" stroke-width="0.75" stroke-miterlimit="10"/>
<path d="M532.915 939.11L352.973 1096.47" stroke="#714B2D" stroke-width="0.75" stroke-miterlimit="10"/>
<path d="M438.221 939.11L206.899 1096.47" stroke="#714B2D" stroke-width="0.75" stroke-miterlimit="10"/>
<path d="M343.757 939.11L61.056 1096.47" stroke="#714B2D" stroke-width="0.75" stroke-miterlimit="10"/>
<path d="M0 1056.38L249.062 939.11" stroke="#714B2D" stroke-width="0.75" stroke-miterlimit="10"/>
<path d="M0 1002.24L154.598 939.11" stroke="#714B2D" stroke-width="0.75" stroke-miterlimit="10"/>
<path d="M0 960.768L59.904 939.11" stroke="#714B2D" stroke-width="0.75" stroke-miterlimit="10"/>
</g>
<path d="M1728 1006.16C1656.58 1015.6 1584.69 1022.98 1512.81 1028.97C1440.92 1034.73 1368.81 1038.87 1296.69 1042.33C1152.46 1049.01 1008.23 1052.24 864 1052.7C719.77 1052.24 575.309 1049.01 431.309 1042.33C359.194 1038.87 287.309 1034.5 215.194 1028.97C143.309 1022.98 71.424 1015.6 0 1006.16C71.6544 1015.14 143.309 1021.82 215.424 1027.35C287.309 1032.88 359.424 1037.03 431.539 1040.26C575.77 1046.71 720 1049.24 864.23 1049.47C1008.46 1049.47 1152.69 1046.71 1296.92 1040.26C1369.04 1037.03 1440.92 1032.88 1513.04 1027.35C1584.69 1021.82 1656.35 1015.14 1728 1006.16Z" fill="white"/>
<path d="M864 1023.9C1088.72 1023.9 1270.89 1009.25 1270.89 991.181C1270.89 973.112 1088.72 958.464 864 958.464C639.283 958.464 457.114 973.112 457.114 991.181C457.114 1009.25 639.283 1023.9 864 1023.9Z" fill="#F8D867"/>
<path d="M1272.27 957.312C1272.27 975.514 1090.02 990.029 865.382 990.029C640.742 990.029 458.496 975.283 458.496 957.312L637.517 57.6H1093.25L1272.27 957.312Z" fill="url(#paint0_linear_639_33564)"/>
<g opacity="0.7">
<path d="M951.322 457.114C954.121 457.114 956.39 454.844 956.39 452.045C956.39 449.245 954.121 446.976 951.322 446.976C948.522 446.976 946.253 449.245 946.253 452.045C946.253 454.844 948.522 457.114 951.322 457.114Z" fill="white"/>
<path d="M615.398 649.267C615.398 652.493 618.163 655.258 621.389 655.258C624.614 655.258 627.379 652.493 627.379 649.267C627.379 646.042 624.614 643.277 621.389 643.277C617.933 643.277 615.398 646.042 615.398 649.267Z" fill="white"/>
<path d="M553.421 797.184C553.421 800.64 556.186 803.174 559.411 803.174C562.637 803.174 565.402 800.41 565.402 797.184C565.402 793.728 562.637 791.194 559.411 791.194C556.186 791.194 553.421 793.958 553.421 797.184Z" fill="white"/>
<path d="M743.962 766.541C743.962 769.536 746.496 772.07 749.491 772.07C752.486 772.07 755.021 769.536 755.021 766.541C755.021 763.545 752.486 761.011 749.491 761.011C746.266 761.242 743.962 763.545 743.962 766.541Z" fill="white"/>
<path d="M741.427 555.264C745.881 555.264 749.491 551.654 749.491 547.2C749.491 542.746 745.881 539.136 741.427 539.136C736.974 539.136 733.363 542.746 733.363 547.2C733.363 551.654 736.974 555.264 741.427 555.264Z" fill="white"/>
<path d="M908.928 861.235C913.382 861.235 916.992 857.625 916.992 853.171C916.992 848.718 913.382 845.107 908.928 845.107C904.474 845.107 900.864 848.718 900.864 853.171C900.864 857.625 904.474 861.235 908.928 861.235Z" fill="white"/>
<path d="M1103.85 579.456C1109.19 579.456 1113.52 575.123 1113.52 569.779C1113.52 564.435 1109.19 560.102 1103.85 560.102C1098.5 560.102 1094.17 564.435 1094.17 569.779C1094.17 575.123 1098.5 579.456 1103.85 579.456Z" fill="white"/>
<path d="M802.944 342.835C808.288 342.835 812.621 338.503 812.621 333.158C812.621 327.814 808.288 323.482 802.944 323.482C797.6 323.482 793.267 327.814 793.267 333.158C793.267 338.503 797.6 342.835 802.944 342.835Z" fill="white"/>
<path d="M1068.13 367.258C1068.13 370.483 1070.67 373.018 1073.89 373.018C1077.12 373.018 1079.65 370.483 1079.65 367.258C1079.65 364.032 1077.12 361.498 1073.89 361.498C1070.67 361.498 1068.13 364.032 1068.13 367.258Z" fill="white"/>
<path d="M1032.88 685.67C1032.88 689.587 1035.88 692.582 1039.8 692.582C1043.71 692.582 1046.71 689.587 1046.71 685.67C1046.71 681.754 1043.71 678.758 1039.8 678.758C1035.88 678.758 1032.88 681.754 1032.88 685.67Z" fill="white"/>
<path d="M902.016 636.365C902.016 640.282 905.011 643.277 908.928 643.277C912.845 643.277 915.84 640.282 915.84 636.365C915.84 632.448 912.845 629.453 908.928 629.453C905.011 629.453 902.016 632.448 902.016 636.365Z" fill="white"/>
<path d="M1170.2 788.198C1169.05 788.198 1168.13 788.429 1167.21 788.89C1168.13 787.968 1168.59 786.586 1168.59 785.203C1168.59 782.208 1166.05 779.674 1163.06 779.674C1160.06 779.674 1157.53 782.208 1157.53 785.203C1157.53 788.198 1160.06 790.733 1163.06 790.733C1163.75 790.733 1164.44 790.502 1165.13 790.272C1163.98 791.654 1163.06 793.267 1163.06 795.11C1163.06 799.027 1166.28 802.253 1170.2 802.253C1174.12 802.253 1177.34 799.027 1177.34 795.11C1177.34 791.194 1174.12 788.198 1170.2 788.198Z" fill="white"/>
<path d="M662.861 437.299C664.474 437.299 665.856 437.53 667.008 438.221C665.856 436.838 664.934 434.995 664.934 432.922C664.934 428.544 668.621 424.858 672.998 424.858C677.376 424.858 681.062 428.544 681.062 432.922C681.062 437.299 677.376 440.986 672.998 440.986C672.077 440.986 670.925 440.755 670.233 440.525C672.077 442.368 672.998 444.902 672.998 447.667C672.998 453.427 668.39 457.805 662.861 457.805C657.101 457.805 652.723 453.197 652.723 447.667C652.723 441.907 657.331 437.299 662.861 437.299Z" fill="white"/>
</g>
<path d="M261.734 974.822C263.578 973.67 265.19 972.749 267.264 971.827C269.107 970.906 271.181 970.214 273.254 969.754C277.402 968.602 281.549 968.371 285.696 968.371C289.843 968.602 293.99 969.062 298.138 970.214C300.211 970.906 302.054 971.827 303.898 972.518C305.741 973.44 307.584 974.592 309.197 975.514C305.51 974.131 301.594 972.288 297.677 971.366C293.76 970.445 289.613 969.984 285.466 969.984C281.318 969.984 277.402 969.984 273.254 970.906C269.338 971.597 265.421 973.21 261.734 974.822Z" fill="#7C2712"/>
<path d="M174.643 974.362C176.256 973.21 177.869 972.518 179.712 971.597C181.555 970.906 183.398 970.214 185.242 969.754C188.928 968.832 192.845 968.371 196.762 968.371C200.678 968.371 204.595 968.832 208.282 969.754C210.125 970.214 211.968 970.906 213.811 971.827C215.654 972.749 217.267 973.67 218.88 974.592C215.424 973.21 211.738 971.827 208.051 971.136C204.365 970.445 200.448 970.214 196.762 970.214C193.075 970.214 189.158 970.445 185.472 971.136C181.786 971.597 178.099 972.979 174.643 974.362Z" fill="#7C2712"/>
<path d="M174.643 974.362C180.173 972.058 186.163 969.754 197.222 969.754C218.88 969.754 218.88 978.97 240.768 978.97C262.426 978.97 262.426 969.754 284.314 969.754C305.971 969.754 305.971 978.97 327.859 978.97C332.698 978.97 343.066 977.587 348.826 971.597C334.31 663.322 238.003 532.685 238.003 532.685C448.128 478.08 491.213 176.026 493.747 159.667H174.643V974.362Z" fill="#EA4C0C"/>
<mask id="mask1_639_33564" style="mask-type:luminance" maskUnits="userSpaceOnUse" x="174" y="159" width="320" height="820">
<path d="M174.643 974.362C180.173 972.058 186.163 969.754 197.222 969.754C218.88 969.754 218.88 978.97 240.768 978.97C262.426 978.97 262.426 969.754 284.314 969.754C305.971 969.754 305.971 978.97 327.859 978.97C332.698 978.97 343.066 977.587 348.826 971.597C334.31 663.322 238.003 532.685 238.003 532.685C448.128 478.08 491.213 176.026 493.747 159.667H174.643V974.362Z" fill="white"/>
</mask>
<g mask="url(#mask1_639_33564)">
<path d="M173.491 951.782C179.021 949.478 185.242 947.174 196.301 947.174C218.419 947.174 218.419 956.39 240.307 956.39C262.426 956.39 262.426 947.174 284.314 947.174C306.432 947.174 306.432 956.39 328.32 956.39C333.158 956.39 343.757 955.008 349.517 949.018" stroke="#ED9E4A" stroke-width="1.5" stroke-miterlimit="10"/>
</g>
<mask id="mask2_639_33564" style="mask-type:luminance" maskUnits="userSpaceOnUse" x="174" y="159" width="320" height="820">
<path d="M174.643 974.362C180.173 972.058 186.163 969.754 197.222 969.754C218.88 969.754 218.88 978.97 240.768 978.97C262.426 978.97 262.426 969.754 284.314 969.754C305.971 969.754 305.971 978.97 327.859 978.97C332.698 978.97 343.066 977.587 348.826 971.597C334.31 663.322 238.003 532.685 238.003 532.685C448.128 478.08 491.213 176.026 493.747 159.667H174.643V974.362Z" fill="white"/>
</mask>
<g mask="url(#mask2_639_33564)">
<path d="M419.098 217.267C416.563 248.371 409.882 279.245 399.975 308.966C397.671 316.57 394.675 323.712 391.911 331.085C389.146 338.458 385.69 345.6 382.464 352.742C375.783 367.027 368.41 380.851 360.346 394.214L357.351 399.283L354.125 404.122L347.674 413.798L344.448 418.637C343.296 420.25 342.144 421.862 340.992 423.475L333.85 432.922C329.242 439.373 323.942 445.133 318.874 451.123C316.339 454.118 313.805 457.114 311.271 460.109L303.207 468.634C281.549 491.213 257.357 511.488 231.091 528.538C254.823 508.493 277.402 487.066 297.907 463.795L305.511 455.04C308.045 452.045 310.349 449.05 312.883 446.054C317.722 440.064 322.56 434.074 326.938 427.853C336.154 415.411 344.679 402.739 352.743 389.606C360.807 376.474 368.179 362.88 375.091 349.056C378.317 342.144 382.003 335.232 384.768 328.09C387.763 320.947 390.989 314.035 393.523 306.662C404.122 277.632 412.646 247.68 419.098 217.267Z" fill="#C2370C"/>
<path d="M226.483 197.222C232.243 224.179 234.086 251.827 233.395 279.475C233.395 282.931 233.395 286.387 233.165 289.843L232.474 300.211C232.013 307.123 231.322 314.035 230.63 320.947C229.939 327.859 228.787 334.541 227.866 341.453C226.944 348.365 225.562 355.046 224.179 361.958C223.027 368.87 221.184 375.552 219.802 382.234C218.419 388.915 216.576 395.597 214.733 402.278C213.811 405.504 212.89 408.96 211.968 412.186L208.742 422.093L205.517 432L202.061 441.677C192.614 467.712 181.325 492.826 167.962 516.787C177.869 491.213 187.315 465.408 195.379 439.373L198.374 429.696L201.139 419.789L203.904 409.882C204.826 406.656 205.517 403.2 206.438 399.974C208.051 393.293 209.894 386.842 211.277 380.16C212.659 373.478 214.272 366.797 215.424 360.115C216.806 353.434 218.189 346.752 219.11 340.07C220.262 333.389 221.414 326.707 222.106 319.795C223.027 313.114 223.949 306.202 224.64 299.52C225.331 292.838 226.022 285.926 226.483 279.245C228.326 251.827 228.557 224.64 226.483 197.222Z" fill="#C2370C"/>
<path d="M313.344 188.006C314.035 203.213 313.805 218.65 313.114 233.856C312.192 249.062 311.04 264.269 309.197 279.475C307.354 294.682 304.819 309.888 302.054 324.864C299.059 339.84 295.373 354.816 291.226 369.562C287.078 384.307 282.01 398.822 276.25 413.107C273.485 420.25 270.259 427.162 267.034 434.304L261.965 444.672C260.352 448.128 258.278 451.354 256.435 454.81C241.459 481.536 221.414 506.189 196.531 523.93C218.88 503.194 236.39 478.08 249.984 451.354C253.44 444.672 256.435 437.76 259.661 431.078C262.656 424.166 265.651 417.254 268.186 410.112C270.95 403.2 273.254 395.827 275.789 388.915C278.093 381.773 280.397 374.63 282.47 367.258C286.618 352.742 290.304 337.997 293.53 323.251C296.755 308.506 299.52 293.53 302.285 278.554C304.819 263.578 307.123 248.602 308.966 233.395C310.349 218.419 311.962 203.213 313.344 188.006Z" fill="#C2370C"/>
<path d="M280.397 944.41C277.632 909.158 274.637 873.907 271.642 838.656C270.029 821.146 268.416 803.405 266.573 785.895C264.73 768.384 262.887 750.874 260.583 733.363C258.509 715.853 256.205 698.343 253.44 681.063C250.906 663.552 247.911 646.272 244.455 628.992C242.842 620.237 240.768 611.712 238.925 603.187L235.93 590.285L232.474 577.613C227.635 560.794 222.106 543.975 214.042 528.077C223.719 542.823 230.631 559.411 236.621 576.231C242.611 593.05 247.219 610.099 251.367 627.379C259.661 661.939 264.96 696.96 269.568 732.211C273.715 767.462 276.711 802.714 278.554 837.965C280.627 873.677 281.549 908.928 280.397 944.41Z" fill="#C2370C"/>
<path d="M212.659 939.571C210.816 905.242 209.664 870.912 208.282 836.583L204.365 733.594L203.443 707.789L202.291 681.984C202.061 673.459 201.6 664.934 201.139 656.179C200.679 647.654 200.218 639.13 199.757 630.605C197.683 596.275 195.61 562.176 190.771 528.077C199.296 561.485 203.674 595.815 206.899 630.144C207.821 638.669 208.512 647.194 209.203 655.949C209.895 664.474 210.586 672.998 211.046 681.754L212.429 707.559L213.581 733.363C214.042 741.888 214.042 750.643 214.272 759.168C214.502 767.693 214.733 776.448 214.963 784.973C215.194 802.253 215.424 819.303 215.424 836.583C215.194 870.682 214.503 905.242 212.659 939.571Z" fill="#C2370C"/>
</g>
<mask id="mask3_639_33564" style="mask-type:luminance" maskUnits="userSpaceOnUse" x="174" y="159" width="320" height="820">
<path d="M174.643 974.362C180.173 972.058 186.163 969.754 197.222 969.754C218.88 969.754 218.88 978.97 240.768 978.97C262.426 978.97 262.426 969.754 284.314 969.754C305.971 969.754 305.971 978.97 327.859 978.97C332.698 978.97 343.066 977.587 348.826 971.597C334.31 663.322 238.003 532.685 238.003 532.685C448.128 478.08 491.213 176.026 493.747 159.667H174.643V974.362Z" fill="white"/>
</mask>
<g mask="url(#mask3_639_33564)">
<path d="M570.931 164.966C523.699 272.794 378.086 414.95 174.643 318.874V164.966H570.931Z" fill="#C2370C"/>
</g>
<path d="M236.39 545.818C179.482 537.754 146.534 519.782 144.922 519.091L150.451 509.875L155.981 500.659C156.211 500.659 163.354 504.576 176.256 509.414C188.006 521.856 207.821 537.984 236.39 545.818Z" fill="#DA6A1C"/>
<path d="M254.592 528.077L252.518 534.758L248.371 547.2C244.224 546.739 240.307 546.278 236.621 545.587C208.051 537.754 188.006 521.395 176.256 509.184C188.237 513.562 204.826 519.091 225.331 523.238C234.317 525.312 244.224 526.925 254.592 528.077Z" fill="#ED9E4A"/>
<path d="M1466.27 974.822C1462.35 973.901 1458.43 972.518 1454.52 972.058C1450.6 971.597 1446.68 971.366 1442.53 971.366C1438.62 971.366 1434.47 971.827 1430.78 972.518C1428.94 972.979 1426.87 973.44 1425.02 974.131C1422.95 974.592 1421.11 975.283 1419.03 975.744C1422.72 974.131 1426.41 972.288 1430.55 971.366C1434.47 970.214 1438.62 969.754 1442.76 969.754C1446.91 969.754 1451.06 969.984 1454.98 970.906C1458.66 971.597 1462.58 973.21 1466.27 974.822Z" fill="#7C2712"/>
<path d="M1553.36 974.362C1551.51 973.901 1549.67 973.44 1547.83 972.979C1545.98 972.518 1544.14 972.288 1542.3 972.058C1538.61 971.597 1534.92 971.366 1531.24 971.366C1527.55 971.136 1523.87 971.597 1520.18 972.058C1516.49 972.518 1512.81 973.67 1509.12 974.592C1512.58 972.979 1516.26 971.597 1519.95 970.906C1523.64 970.214 1527.55 969.754 1531.24 969.754C1535.16 969.754 1538.84 970.214 1542.53 970.906C1546.21 971.597 1549.9 972.979 1553.36 974.362Z" fill="#7C2712"/>
<path d="M1553.36 974.362C1547.83 972.058 1541.84 969.754 1530.78 969.754C1509.12 969.754 1509.12 978.97 1487.23 978.97C1465.57 978.97 1465.57 969.754 1443.69 969.754C1422.03 969.754 1422.03 978.97 1400.14 978.97C1395.3 978.97 1384.93 977.587 1379.17 971.597C1393.69 663.322 1490 532.685 1490 532.685C1279.87 478.08 1236.79 176.026 1234.25 159.667H1553.13V974.362H1553.36Z" fill="#EA4C0C"/>
<mask id="mask4_639_33564" style="mask-type:luminance" maskUnits="userSpaceOnUse" x="1234" y="159" width="320" height="820">
<path d="M1553.36 974.362C1547.83 972.058 1541.84 969.754 1530.78 969.754C1509.12 969.754 1509.12 978.97 1487.23 978.97C1465.57 978.97 1465.57 969.754 1443.69 969.754C1422.03 969.754 1422.03 978.97 1400.14 978.97C1395.3 978.97 1384.93 977.587 1379.17 971.597C1393.69 663.322 1490 532.685 1490 532.685C1279.87 478.08 1236.79 176.026 1234.25 159.667H1553.13V974.362H1553.36Z" fill="white"/>
</mask>
<g mask="url(#mask4_639_33564)">
<path d="M1554.51 951.782C1548.98 949.478 1542.76 947.174 1531.7 947.174C1509.58 947.174 1509.58 956.39 1487.69 956.39C1465.57 956.39 1465.57 947.174 1443.69 947.174C1421.57 947.174 1421.57 956.39 1399.68 956.39C1394.84 956.39 1384.24 955.008 1378.48 949.018" stroke="#ED9E4A" stroke-width="1.5" stroke-miterlimit="10"/>
</g>
<mask id="mask5_639_33564" style="mask-type:luminance" maskUnits="userSpaceOnUse" x="1234" y="159" width="320" height="820">
<path d="M1553.36 974.362C1547.83 972.058 1541.84 969.754 1530.78 969.754C1509.12 969.754 1509.12 978.97 1487.23 978.97C1465.57 978.97 1465.57 969.754 1443.69 969.754C1422.03 969.754 1422.03 978.97 1400.14 978.97C1395.3 978.97 1384.93 977.587 1379.17 971.597C1393.69 663.322 1490 532.685 1490 532.685C1279.87 478.08 1236.79 176.026 1234.25 159.667H1553.13V974.362H1553.36Z" fill="white"/>
</mask>
<g mask="url(#mask5_639_33564)">
<path d="M1308.9 217.267C1315.12 247.91 1323.65 277.632 1334.71 306.432C1337.24 313.805 1340.47 320.717 1343.46 327.859C1346.23 335.002 1349.91 341.914 1353.14 348.826C1359.82 362.65 1367.19 376.243 1375.49 389.376C1383.55 402.509 1392.08 415.411 1401.29 427.622C1405.67 434.074 1410.74 439.834 1415.35 445.824C1417.88 448.819 1420.19 451.814 1422.72 454.81L1430.32 463.565C1450.83 486.835 1473.18 508.032 1497.14 528.307C1471.1 511.258 1446.91 490.982 1425.02 468.403L1416.96 459.878C1414.2 457.114 1411.89 453.888 1409.36 450.893C1404.29 444.902 1398.99 438.912 1394.38 432.691L1387.24 423.245C1386.09 421.632 1384.93 420.019 1383.78 418.406L1380.56 413.568L1374.11 403.891L1370.88 399.053L1367.88 393.984C1359.82 380.621 1352.22 366.797 1345.77 352.512C1342.54 345.37 1339.08 338.227 1336.32 330.854C1333.56 323.482 1330.56 316.339 1328.26 308.736C1318.12 279.014 1311.44 248.371 1308.9 217.267Z" fill="#C2370C"/>
<path d="M1501.52 197.222C1499.44 224.64 1499.67 252.058 1501.75 279.245C1502.21 286.157 1502.9 292.838 1503.59 299.52C1504.05 306.202 1505.2 313.114 1506.12 319.795C1507.05 326.477 1508.2 333.158 1509.12 340.07C1510.04 346.752 1511.65 353.434 1512.81 360.115C1513.96 366.797 1515.57 373.478 1516.95 380.16C1518.34 386.842 1520.18 393.293 1521.79 399.974C1522.71 403.2 1523.4 406.656 1524.33 409.882L1527.09 419.789L1529.86 429.696L1532.85 439.373C1540.92 465.408 1550.13 491.213 1560.27 516.787C1546.68 492.826 1535.39 467.482 1526.17 441.677L1522.71 432L1519.49 422.093L1516.26 412.186C1515.34 408.96 1514.42 405.504 1513.5 402.278C1511.65 395.597 1509.81 388.915 1508.43 382.234C1506.82 375.552 1505.2 368.87 1504.05 361.958C1502.9 355.046 1501.29 348.365 1500.36 341.453C1499.44 334.541 1498.06 327.859 1497.6 320.947C1496.91 314.035 1495.99 307.123 1495.76 300.211L1495.07 289.843C1494.84 286.387 1494.84 282.931 1494.84 279.475C1493.91 251.827 1495.76 223.949 1501.52 197.222Z" fill="#C2370C"/>
<path d="M1414.66 188.006C1416.04 203.213 1417.65 218.419 1419.49 233.395C1421.34 248.371 1423.64 263.578 1426.18 278.554C1428.71 293.53 1431.48 308.506 1434.93 323.251C1438.16 337.997 1441.84 352.742 1445.99 367.258C1448.06 374.63 1450.37 381.773 1452.67 388.915C1455.21 396.058 1457.51 403.2 1460.28 410.112C1462.81 417.254 1465.8 424.166 1468.8 431.078C1472.03 437.99 1475.02 444.902 1478.48 451.354C1492.07 478.31 1509.58 503.194 1531.93 523.93C1507.05 506.189 1487.23 481.536 1472.03 454.81C1470.18 451.354 1468.11 448.128 1466.5 444.672L1461.43 434.304C1458.2 427.392 1454.98 420.25 1452.21 413.107C1446.45 398.822 1441.61 384.307 1437.24 369.562C1433.09 354.816 1429.4 339.84 1426.41 324.864C1423.64 309.888 1420.88 294.682 1419.26 279.475C1417.42 264.269 1416.04 249.062 1415.35 233.856C1414.43 218.65 1413.96 203.443 1414.66 188.006Z" fill="#C2370C"/>
<path d="M1447.6 944.41C1446.68 908.928 1447.6 873.677 1449.22 838.195C1451.06 802.944 1454.05 767.462 1458.2 732.442C1462.58 697.19 1468.11 662.17 1476.4 627.61C1480.55 610.33 1485.16 593.05 1491.15 576.461C1497.14 559.872 1504.05 543.283 1513.73 528.307C1505.89 544.205 1500.13 560.794 1495.3 577.843L1491.84 590.515L1488.84 603.418C1487 611.942 1484.93 620.467 1483.32 629.222C1480.09 646.502 1476.86 663.782 1474.33 681.293C1471.8 698.803 1469.26 716.083 1467.19 733.594C1464.88 751.104 1463.04 768.614 1461.2 786.125C1459.35 803.635 1457.74 821.146 1456.13 838.886C1453.13 873.907 1450.37 909.158 1447.6 944.41Z" fill="#C2370C"/>
<path d="M1515.34 939.571C1513.27 905.242 1512.58 870.912 1512.58 836.352C1512.35 819.072 1512.81 802.022 1513.04 784.742C1513.04 776.218 1513.5 767.462 1513.73 758.938C1513.96 750.413 1514.19 741.658 1514.42 733.133L1515.57 707.328L1516.95 681.523C1517.41 672.998 1518.11 664.243 1518.8 655.718C1519.49 647.194 1520.18 638.669 1521.1 629.914C1524.56 595.584 1528.7 561.254 1537.23 527.846C1532.39 561.946 1530.32 596.045 1528.24 630.374C1527.78 638.899 1527.32 647.424 1526.86 655.949C1526.4 664.474 1525.94 672.998 1525.71 681.754L1524.56 707.558L1523.64 733.363L1519.72 836.352C1518.57 870.912 1517.18 905.242 1515.34 939.571Z" fill="#C2370C"/>
</g>
<mask id="mask6_639_33564" style="mask-type:luminance" maskUnits="userSpaceOnUse" x="1234" y="159" width="320" height="820">
<path d="M1553.36 974.362C1547.83 972.058 1541.84 969.754 1530.78 969.754C1509.12 969.754 1509.12 978.97 1487.23 978.97C1465.57 978.97 1465.57 969.754 1443.69 969.754C1422.03 969.754 1422.03 978.97 1400.14 978.97C1395.3 978.97 1384.93 977.587 1379.17 971.597C1393.69 663.322 1490 532.685 1490 532.685C1279.87 478.08 1236.79 176.026 1234.25 159.667H1553.13V974.362H1553.36Z" fill="white"/>
</mask>
<g mask="url(#mask6_639_33564)">
<path d="M1157.07 164.966C1204.3 272.794 1349.91 414.95 1553.36 318.874V164.966H1157.07Z" fill="#C2370C"/>
</g>
<path d="M1491.61 545.818C1548.52 537.754 1581.47 519.782 1583.08 519.091L1577.55 509.875L1572.02 500.659C1571.79 500.659 1564.65 504.576 1551.74 509.414C1539.99 521.856 1520.18 537.984 1491.61 545.818Z" fill="#DA6A1C"/>
<path d="M1473.41 528.077L1475.71 534.758L1479.86 547.2C1484.01 546.739 1487.92 546.278 1491.61 545.587C1520.18 537.754 1540.22 521.395 1551.97 509.184C1539.99 513.562 1523.4 519.091 1502.9 523.238C1493.68 525.312 1483.78 526.925 1473.41 528.077Z" fill="#ED9E4A"/>
<path d="M599.962 164.966C549.965 259.891 395.136 385.229 179.482 300.442V164.966H599.962Z" fill="#EA4C0C"/>
<mask id="mask7_639_33564" style="mask-type:luminance" maskUnits="userSpaceOnUse" x="179" y="164" width="421" height="165">
<path d="M599.962 164.966C549.965 259.891 395.136 385.229 179.482 300.442V164.966H599.962Z" fill="white"/>
</mask>
<g mask="url(#mask7_639_33564)">
<path d="M168.192 252.058C185.011 258.97 202.061 264.73 219.571 269.568C236.851 274.406 254.592 278.323 272.333 281.088C281.318 282.47 290.074 283.392 299.059 284.083C308.045 284.774 316.8 285.005 325.786 285.005C343.526 284.774 361.267 282.931 378.547 278.554C413.107 270.259 445.133 252.979 473.242 230.861C487.296 219.802 500.429 207.59 512.64 194.227C524.851 181.094 536.371 167.04 546.509 152.064C538.214 168.192 527.616 183.168 516.096 197.453C510.336 204.595 504.115 211.277 497.894 217.958C491.443 224.64 484.762 230.861 477.85 236.851C464.026 248.832 448.589 259.2 432.461 268.186C416.102 276.71 398.822 283.853 380.851 288.23C362.88 292.608 344.218 294.451 325.786 294.451C307.354 294.221 288.922 292.378 270.95 288.922C252.979 285.466 235.238 280.627 218.189 274.637C200.909 267.955 184.09 261.043 168.192 252.058Z" fill="#C2370C"/>
<path d="M160.819 209.434C190.541 219.11 220.954 226.944 251.366 232.474C282.01 237.773 312.883 240.998 343.526 238.003C351.13 237.312 358.502 235.93 365.875 234.086C373.248 232.243 380.39 229.709 387.302 226.714C401.357 220.723 414.72 213.12 427.392 204.365C433.843 199.987 439.834 195.379 445.824 190.541C451.814 185.702 457.805 180.634 463.334 175.334C474.854 164.736 485.683 153.677 496.051 141.926C487.526 155.059 477.389 167.27 466.79 178.79C461.491 184.55 455.731 190.08 449.971 195.379C444.211 200.678 437.99 205.747 431.77 210.586C425.549 215.424 418.867 219.802 411.955 223.949C405.043 228.096 398.131 232.013 390.758 235.008C383.386 238.234 375.782 240.998 367.949 243.072C360.115 245.146 352.051 246.528 344.218 247.219C328.32 248.602 312.422 248.602 296.525 246.989C280.858 245.606 265.19 242.842 249.754 239.386C234.317 235.93 219.11 231.552 204.365 226.714C189.619 221.645 175.104 216.115 160.819 209.434Z" fill="#C2370C"/>
<path d="M614.477 160.589V190.08C447.898 194.227 295.142 202.291 165.427 213.35V160.589H614.477Z" fill="#C2370C"/>
</g>
<path d="M599.962 164.966C549.965 259.891 395.136 385.229 179.482 300.442V164.966H599.962Z" stroke="#ED9E4A" stroke-width="2.5" stroke-miterlimit="10"/>
<path d="M1128.04 164.966C1178.04 259.891 1332.63 385.229 1548.52 300.442V164.966H1128.04Z" fill="#EA4C0C"/>
<mask id="mask8_639_33564" style="mask-type:luminance" maskUnits="userSpaceOnUse" x="1128" y="164" width="421" height="165">
<path d="M1128.04 164.966C1178.04 259.891 1332.63 385.229 1548.52 300.442V164.966H1128.04Z" fill="white"/>
</mask>
<g mask="url(#mask8_639_33564)">
<path d="M1559.81 252.058C1543.91 260.813 1527.09 267.955 1509.81 273.946C1492.53 279.936 1475.02 284.774 1457.05 288.23C1439.08 291.686 1420.65 293.53 1402.21 293.76C1383.78 293.76 1365.35 291.917 1347.15 287.539C1329.18 283.162 1311.9 276.25 1295.54 267.494C1279.41 258.509 1263.97 248.141 1250.15 236.16C1243.24 230.17 1236.33 223.949 1230.11 217.267C1223.65 210.586 1217.66 203.904 1211.9 196.762C1200.38 182.477 1190.02 167.501 1181.49 151.373C1191.63 166.349 1203.15 180.403 1215.36 193.536C1227.57 206.669 1240.7 218.88 1254.76 230.17C1282.87 252.288 1314.89 269.568 1349.45 277.862C1366.5 282.24 1384.47 284.083 1402.21 284.314C1411.2 284.544 1419.96 284.083 1428.94 283.392C1437.93 282.701 1446.68 281.549 1455.67 280.397C1473.41 277.632 1490.92 273.946 1508.43 268.877C1525.94 264.73 1543.22 258.97 1559.81 252.058Z" fill="#C2370C"/>
<path d="M1567.18 209.434C1552.9 216.115 1538.38 221.645 1523.4 226.714C1508.43 231.552 1493.45 235.93 1478.02 239.386C1462.58 242.842 1447.14 245.376 1431.24 246.989C1415.58 248.602 1399.45 248.602 1383.55 247.219C1375.72 246.528 1367.42 245.146 1359.82 243.072C1351.99 240.998 1344.38 238.234 1337.01 235.008C1329.64 231.782 1322.73 227.866 1315.81 223.949C1308.9 219.802 1302.45 215.424 1296 210.586C1289.78 205.747 1283.56 200.678 1277.8 195.379C1272.04 190.08 1266.28 184.55 1260.98 178.79C1250.38 167.27 1240.24 155.059 1231.72 141.926C1242.09 153.677 1252.92 164.966 1264.44 175.334C1270.2 180.634 1275.96 185.702 1281.95 190.541C1287.94 195.379 1294.16 199.987 1300.38 204.365C1313.05 213.12 1326.41 220.954 1340.47 226.714C1347.38 229.709 1354.75 232.243 1361.89 234.086C1369.27 235.93 1376.64 237.312 1384.24 238.003C1414.66 240.998 1445.76 237.773 1476.4 232.474C1507.05 226.944 1537.46 219.11 1567.18 209.434Z" fill="#C2370C"/>
<path d="M1113.52 160.589V190.08C1280.1 194.227 1432.86 202.291 1562.57 213.35V160.589H1113.52Z" fill="#C2370C"/>
</g>
<path d="M1128.04 164.966C1178.04 259.891 1332.63 385.229 1548.52 300.442V164.966H1128.04Z" stroke="#ED9E4A" stroke-width="2.5" stroke-miterlimit="10"/>
<path d="M1178.04 164.966C1115.37 232.934 998.093 278.784 864 278.784C729.907 278.784 612.634 233.165 549.965 164.966H1178.04Z" fill="#EA4C0C"/>
<mask id="mask9_639_33564" style="mask-type:luminance" maskUnits="userSpaceOnUse" x="549" y="164" width="630" height="115">
<path d="M1178.04 164.966C1115.37 232.934 998.093 278.784 864 278.784C729.907 278.784 612.634 233.165 549.965 164.966H1178.04Z" fill="white"/>
</mask>
<g mask="url(#mask9_639_33564)">
<path d="M1142.32 133.171L1136.1 140.774C1134.03 143.309 1132.19 145.843 1129.88 148.147L1123.2 155.29C1122.05 156.442 1120.9 157.594 1119.74 158.746L1116.06 161.971L1108.92 168.653L1107.07 170.266L1105.23 171.878L1101.54 174.874L1093.94 181.094C1091.4 182.938 1088.64 184.781 1086.11 186.854C1064.68 201.83 1041.64 214.042 1017.22 223.718C993.024 233.395 967.68 240.307 942.106 245.146C916.301 249.754 890.266 252.058 864.231 252.288C838.195 252.058 811.93 249.984 786.355 245.146C760.781 240.307 735.437 233.626 711.245 223.718C687.053 214.042 663.782 201.83 642.355 186.854C639.821 185.011 637.056 183.168 634.522 181.094L626.919 174.874L623.232 171.878L621.389 170.266L619.546 168.653L612.403 161.971L608.717 158.746C607.565 157.594 606.413 156.442 605.261 155.29L598.579 148.147C596.275 145.843 594.432 143.309 592.359 140.774L586.138 133.171L592.819 140.314C595.123 142.618 597.197 145.152 599.501 147.226L606.643 153.907C607.795 155.059 608.947 156.211 610.099 157.133L613.786 160.128L621.159 166.118L623.002 167.731L625.075 169.114L628.992 171.878L636.826 177.408C639.59 179.251 642.355 180.864 644.89 182.477C666.547 196.301 689.818 207.36 713.779 216.115C737.741 224.87 762.624 231.322 787.968 235.469C813.082 239.616 838.656 241.92 864.231 241.92C889.805 241.92 915.379 239.846 940.493 235.469C965.607 231.322 990.49 224.87 1014.68 216.115C1038.64 207.36 1061.91 196.301 1083.57 182.477C1086.34 180.864 1089.1 179.021 1091.64 177.408L1099.47 171.878L1103.39 169.114L1105.46 167.731L1107.3 166.118L1114.68 160.128L1118.36 157.133C1119.51 155.981 1120.67 155.059 1121.82 153.907L1128.96 147.226C1131.49 145.152 1133.57 142.618 1135.64 140.314L1142.32 133.171Z" fill="#C2370C"/>
<path d="M1050.39 151.834C1038.87 164.045 1025.05 173.952 1010.53 182.246C995.789 190.31 980.122 196.992 963.994 201.83C947.866 206.899 931.277 210.355 914.688 212.89C897.869 215.194 881.05 216.346 864.23 216.576C847.411 216.346 830.362 215.424 813.773 212.89C797.184 210.355 780.365 206.899 764.467 201.83C748.339 196.762 732.672 190.31 717.927 182.246C703.181 173.952 689.357 164.045 678.067 151.834C690.97 162.432 705.255 171.187 720.23 178.099C735.207 185.011 750.874 190.541 766.771 194.688C782.669 198.835 799.027 202.061 815.386 203.904C831.744 205.978 848.102 206.899 864.691 206.899C881.28 206.899 897.639 205.978 913.997 203.904C930.355 202.061 946.483 198.835 962.611 194.688C978.509 190.541 994.176 185.011 1009.15 178.099C1023.44 171.187 1037.49 162.662 1050.39 151.834Z" fill="#C2370C"/>
</g>
<mask id="mask10_639_33564" style="mask-type:luminance" maskUnits="userSpaceOnUse" x="549" y="164" width="630" height="115">
<path d="M1178.04 164.966C1115.37 232.934 998.093 278.784 864 278.784C729.907 278.784 612.634 233.165 549.965 164.966H1178.04Z" fill="white"/>
</mask>
<g mask="url(#mask10_639_33564)">
<path d="M1172.28 160.589V191.693C1074.36 188.698 970.906 187.085 864 187.085C757.094 187.085 653.645 188.698 555.725 191.693V160.589H1172.28Z" fill="#C2370C"/>
</g>
<path d="M1178.04 164.966C1115.37 232.934 998.093 278.784 864 278.784C729.907 278.784 612.634 233.165 549.965 164.966H1178.04Z" stroke="#ED9E4A" stroke-width="2.5" stroke-miterlimit="10"/>
<path d="M321.638 0V173.952C297.446 175.334 273.485 176.947 250.445 178.56C156.442 185.242 72.1152 193.306 0 202.522V0H321.638Z" fill="#FB873C"/>
<path d="M516.326 0V164.966C448.358 167.27 383.155 170.496 321.638 173.952V0H516.326Z" fill="#FDB274"/>
<path d="M1406.36 0V173.952C1344.61 170.266 1279.64 167.27 1211.67 164.966V0H1406.36Z" fill="#FDB274"/>
<path d="M1211.67 0V164.966C1102.23 161.05 985.421 158.976 864 158.976C742.579 158.976 625.766 161.05 516.326 164.966V0H1211.67Z" fill="#FED2AA"/>
<path d="M1728 0V202.522C1655.88 193.306 1571.56 185.242 1477.56 178.56C1454.52 176.947 1430.55 175.334 1406.36 173.952V0H1728Z" fill="#FB873C"/>
<path d="M1728 202.522V217.267C1520.64 190.771 1210.52 173.722 864 173.722C517.478 173.722 207.36 190.541 0 217.267V202.522C207.36 175.795 517.478 158.976 864 158.976C1210.52 158.976 1520.64 175.795 1728 202.522Z" fill="#E9BB18"/>
<mask id="mask11_639_33564" style="mask-type:luminance" maskUnits="userSpaceOnUse" x="0" y="158" width="1728" height="60">
<path d="M1728 202.522V217.267C1520.64 190.771 1210.52 173.722 864 173.722C517.478 173.722 207.36 190.541 0 217.267V202.522C207.36 175.795 517.478 158.976 864 158.976C1210.52 158.976 1520.64 175.795 1728 202.522Z" fill="white"/>
</mask>
<g mask="url(#mask11_639_33564)">
<path d="M1370.19 158.976H1341.16V195.61H1370.19V158.976Z" fill="#AC7A22"/>
<path d="M1329.41 158.976H1314.89V195.61H1329.41V158.976Z" fill="white"/>
<path d="M357.766 195.647H386.796V159.013H357.766V195.647Z" fill="#AC7A22"/>
<path d="M398.772 195.647H413.287V159.013H398.772V195.647Z" fill="white"/>
<path d="M898.56 151.603H829.44V188.237H898.56V151.603Z" fill="white"/>
<path d="M949.132 187.994H956.965V151.36H949.132V187.994Z" fill="#AC7A22"/>
<path d="M778.983 151.603H771.149V188.237H778.983V151.603Z" fill="#AC7A22"/>
<path d="M937.958 151.603H912.615V188.237H937.958V151.603Z" fill="#AC7A22"/>
<path d="M790.004 187.994H815.348V151.36H790.004V187.994Z" fill="#AC7A22"/>
</g>
<path d="M0 202.291C71.424 192.845 143.309 185.933 215.194 179.942C287.078 174.413 359.194 170.035 431.309 166.81C575.539 160.128 719.77 157.133 864 156.902C1008.23 157.133 1152.69 160.128 1296.69 166.81C1368.81 170.266 1440.69 174.413 1512.81 179.942C1584.69 185.702 1656.58 192.845 1728 202.291V202.522C1656.35 193.536 1584.69 186.624 1512.58 181.325C1440.69 175.795 1368.58 171.648 1296.46 168.422C1152.23 161.971 1008 159.206 863.77 159.206C719.539 159.206 575.309 161.971 431.078 168.422C358.963 171.648 287.078 175.795 214.963 181.325C143.309 186.854 71.6544 193.536 0 202.291Z" fill="white"/>
<path d="M146.995 0H0V983.808H146.995V0Z" fill="#FB873C"/>
<path d="M146.995 0V983.808H62.8992L74.6496 908.237C74.6496 906.854 79.9488 905.702 88.4736 904.781V0H146.995Z" fill="#C2370C"/>
<path d="M96.0768 908.237C96.0768 905.472 118.886 903.168 146.995 903.168C175.104 903.168 197.914 905.472 197.914 908.237L212.429 999.936C212.429 1003.62 183.168 1006.62 147.226 1006.62C111.283 1006.62 82.0224 1003.62 82.0224 999.936L96.0768 908.237Z" fill="#FB873C"/>
<path d="M209.664 983.578C206.669 984.499 201.6 985.421 193.306 986.342C180.864 987.494 164.506 988.186 146.995 988.186C129.485 988.186 112.896 987.494 100.685 986.342C92.3904 985.421 87.552 984.499 84.3264 983.578L85.0176 978.97C90.7776 981.043 113.357 983.578 146.995 983.578C180.634 983.578 203.213 981.043 208.973 978.97L209.664 983.578Z" fill="#F96616"/>
<path d="M209.664 983.578C199.526 986.803 188.928 987.725 178.56 988.646C167.962 989.568 157.594 989.798 146.995 989.798C136.397 989.568 126.029 989.568 115.43 988.646C105.062 987.725 94.2336 986.803 84.3264 983.578C89.3952 984.96 94.6944 985.651 99.7632 986.112C105.062 986.573 110.131 987.034 115.43 987.264C126.029 987.725 136.397 987.955 146.995 987.955C157.594 987.955 167.962 987.725 178.56 987.264C183.859 987.034 189.158 986.573 194.227 986.112C199.296 985.651 204.595 985.19 209.664 983.578Z" fill="#FDB274"/>
<path d="M197.683 908.237C197.683 911.002 174.874 913.306 146.765 913.306C118.656 913.306 95.8464 911.002 95.8464 908.237C95.8464 905.472 118.656 903.168 146.765 903.168C175.104 902.938 197.683 905.242 197.683 908.237Z" fill="#FFEBD5"/>
<path d="M183.859 0V907.546C180.864 907.776 177.869 908.006 174.643 908.006C166.118 908.467 156.672 908.698 146.765 908.698C132.941 908.698 120.269 908.237 109.67 907.546V0H183.859Z" fill="#FB873C"/>
<path d="M183.859 0V907.546C180.864 907.776 177.869 908.006 174.643 908.006C166.118 908.467 156.672 908.698 146.765 908.698V0H183.859Z" fill="#FDB274"/>
<path d="M183.859 0V907.546C180.864 907.776 177.869 908.006 174.643 908.006V0H183.859Z" fill="#FED2AA"/>
<path d="M1581.1 983.705H1728.09L1728.09 -0.10321H1581.1V983.705Z" fill="#FB873C"/>
<path d="M1581 0V983.808H1665.1L1653.12 908.237C1653.12 906.854 1647.82 905.702 1639.3 904.781V0H1581Z" fill="#C2370C"/>
<path d="M1631.92 908.237C1631.92 905.472 1609.11 903.168 1581 903.168C1552.9 903.168 1530.09 905.472 1530.09 908.237L1515.57 999.936C1515.57 1003.62 1544.83 1006.62 1580.77 1006.62C1616.95 1006.62 1645.98 1003.62 1645.98 999.936L1631.92 908.237Z" fill="#FB873C"/>
<path d="M1518.34 983.578C1521.33 984.499 1526.4 985.421 1534.69 986.342C1547.14 987.494 1563.49 988.186 1581.01 988.186C1598.52 988.186 1615.1 987.494 1627.32 986.342C1635.38 985.421 1640.45 984.499 1643.67 983.578L1642.98 978.97C1637.22 981.043 1614.64 983.578 1581.01 983.578C1547.14 983.578 1525.02 981.043 1519.03 978.97L1518.34 983.578Z" fill="#F96616"/>
<path d="M1518.34 983.578C1523.4 984.73 1528.7 985.19 1534 985.421C1539.3 985.882 1544.37 986.112 1549.67 986.112C1560.04 986.342 1570.64 986.573 1581.01 986.573C1591.6 986.803 1601.97 986.342 1612.34 986.112C1617.64 985.882 1622.71 985.651 1628.01 985.421C1633.31 984.96 1638.37 984.73 1643.67 983.578C1638.61 984.96 1633.31 985.651 1628.24 986.342C1622.94 986.803 1617.87 987.264 1612.57 987.494C1601.97 988.186 1591.6 988.416 1581.01 988.416C1570.41 988.416 1560.04 988.186 1549.44 987.494C1544.14 987.264 1538.84 986.803 1533.77 986.342C1528.7 985.651 1523.4 985.19 1518.34 983.578Z" fill="#FDB274"/>
<path d="M1530.09 908.237C1530.09 911.002 1552.9 913.306 1581 913.306C1609.11 913.306 1631.92 911.002 1631.92 908.237C1631.92 905.472 1609.11 903.168 1581 903.168C1552.9 902.938 1530.09 905.242 1530.09 908.237Z" fill="#FFEBD5"/>
<path d="M1544.14 0V907.546C1547.14 907.776 1550.13 908.006 1553.36 908.006C1561.88 908.467 1571.33 908.698 1581.24 908.698C1595.06 908.698 1607.73 908.237 1618.33 907.546V0H1544.14Z" fill="#FB873C"/>
<path d="M1544.14 0V907.546C1547.14 907.776 1550.13 908.006 1553.36 908.006C1561.88 908.467 1571.33 908.698 1581.24 908.698V0H1544.14Z" fill="#FDB274"/>
<path d="M1544.14 0V907.546C1547.14 907.776 1550.13 908.006 1553.36 908.006V0H1544.14Z" fill="#FED2AA"/>
</g>
<defs>
<linearGradient id="paint0_linear_639_33564" x1="865.382" y1="57.6" x2="865.382" y2="990.029" gradientUnits="userSpaceOnUse">
<stop stop-color="#F8D867"/>
<stop offset="1" stop-color="#F8D867" stop-opacity="0"/>
</linearGradient>
<clipPath id="clip0_639_33564">
<rect width="1728" height="1152" fill="white"/>
</clipPath>
</defs>
</svg>
