<svg width="1728" height="1029" viewBox="0 0 1728 1029" fill="none" xmlns="http://www.w3.org/2000/svg">
<g clip-path="url(#clip0_1471_107985)">
<path d="M1728 0H0V1152H1728V0Z" fill="#420863"/>
<path d="M864.001 1003.85C1198.91 1003.85 1470.41 828.801 1470.41 612.864C1470.41 396.927 1198.91 221.875 864.001 221.875C529.088 221.875 257.588 396.927 257.588 612.864C257.588 828.801 529.088 1003.85 864.001 1003.85Z" fill="#601D86"/>
<path d="M864.001 932.199C1137.58 932.199 1359.36 789.228 1359.36 612.864C1359.36 436.501 1137.58 293.53 864.001 293.53C590.421 293.53 368.641 436.501 368.641 612.864C368.641 789.228 590.421 932.199 864.001 932.199Z" fill="#6F219E"/>
<path d="M1728 1006.16H0V1152H1728V1006.16Z" fill="#DA6A1C"/>
<path d="M1477.56 1006.16H250.445V1152H1477.56V1006.16Z" fill="#E98427"/>
<path d="M1172.27 1006.16H555.725V1152H1172.27V1006.16Z" fill="#ED9E4A"/>
<path d="M1728 955.238C1520.64 949.017 1210.52 945.101 864 945.101C517.478 945.101 207.36 949.017 0 955.238V1006.16C207.36 1032.65 517.478 1049.7 864 1049.7C1210.52 1049.7 1520.64 1032.88 1728 1006.16V955.238Z" fill="#ED9E4A"/>
<mask id="mask0_1471_107985" style="mask-type:luminance" maskUnits="userSpaceOnUse" x="0" y="945" width="1728" height="105">
<path d="M1728 955.238C1520.64 949.017 1210.52 945.101 864 945.101C517.478 945.101 207.36 949.017 0 955.238V1006.16C207.36 1032.65 517.478 1049.7 864 1049.7C1210.52 1049.7 1520.64 1032.88 1728 1006.16V955.238Z" fill="white"/>
</mask>
<g mask="url(#mask0_1471_107985)">
<path d="M1757.03 971.136L1668.1 939.11" stroke="#714B2D" stroke-width="0.75" stroke-miterlimit="10"/>
<path d="M1757.03 1013.99L1573.4 939.11" stroke="#714B2D" stroke-width="0.75" stroke-miterlimit="10"/>
<path d="M1757.03 1069.98L1478.94 939.11" stroke="#714B2D" stroke-width="0.75" stroke-miterlimit="10"/>
<path d="M1384.24 939.11L1666.94 1096.47" stroke="#714B2D" stroke-width="0.75" stroke-miterlimit="10"/>
<path d="M1289.78 939.11L1521.1 1096.47" stroke="#714B2D" stroke-width="0.75" stroke-miterlimit="10"/>
<path d="M1195.08 939.11L1375.03 1096.47" stroke="#714B2D" stroke-width="0.75" stroke-miterlimit="10"/>
<path d="M1100.39 939.11L1228.95 1096.47" stroke="#714B2D" stroke-width="0.75" stroke-miterlimit="10"/>
<path d="M1005.93 939.11L1083.11 1096.47" stroke="#714B2D" stroke-width="0.75" stroke-miterlimit="10"/>
<path d="M911.232 939.11L937.037 1096.47" stroke="#714B2D" stroke-width="0.75" stroke-miterlimit="10"/>
<path d="M816.768 939.11L790.963 1096.47" stroke="#714B2D" stroke-width="0.75" stroke-miterlimit="10"/>
<path d="M722.073 939.11L644.889 1096.47" stroke="#714B2D" stroke-width="0.75" stroke-miterlimit="10"/>
<path d="M627.61 939.11L499.047 1096.47" stroke="#714B2D" stroke-width="0.75" stroke-miterlimit="10"/>
<path d="M532.915 939.11L352.973 1096.47" stroke="#714B2D" stroke-width="0.75" stroke-miterlimit="10"/>
<path d="M438.22 939.11L206.898 1096.47" stroke="#714B2D" stroke-width="0.75" stroke-miterlimit="10"/>
<path d="M343.757 939.11L61.0566 1096.47" stroke="#714B2D" stroke-width="0.75" stroke-miterlimit="10"/>
<path d="M0 1056.38L249.062 939.11" stroke="#714B2D" stroke-width="0.75" stroke-miterlimit="10"/>
<path d="M0 1002.24L154.598 939.11" stroke="#714B2D" stroke-width="0.75" stroke-miterlimit="10"/>
<path d="M0 960.768L59.904 939.11" stroke="#714B2D" stroke-width="0.75" stroke-miterlimit="10"/>
</g>
<path d="M1728 1006.16C1656.58 1015.6 1584.69 1022.98 1512.81 1028.97C1440.92 1034.73 1368.81 1038.87 1296.69 1042.33C1152.46 1049.01 1008.23 1052.24 864 1052.7C719.77 1052.24 575.309 1049.01 431.309 1042.33C359.194 1038.87 287.309 1034.5 215.194 1028.97C143.309 1022.98 71.424 1015.6 0 1006.16C71.6544 1015.14 143.309 1021.82 215.424 1027.35C287.309 1032.88 359.424 1037.03 431.539 1040.26C575.77 1046.71 720 1049.24 864.23 1049.47C1008.46 1049.47 1152.69 1046.71 1296.92 1040.26C1369.04 1037.03 1440.92 1032.88 1513.04 1027.35C1584.69 1021.82 1656.35 1015.14 1728 1006.16Z" fill="white"/>
<path d="M864 1023.9C1088.72 1023.9 1270.89 1009.25 1270.89 991.181C1270.89 973.112 1088.72 958.464 864 958.464C639.283 958.464 457.113 973.112 457.113 991.181C457.113 1009.25 639.283 1023.9 864 1023.9Z" fill="#F8D867"/>
<path d="M620.156 438.427L617.366 438.808C615.836 438.953 614.651 438.792 614.4 436.953L610.273 410.064C610.151 409.176 609.912 408.369 608.863 408.254C606.897 408.523 604.902 409.054 602.865 409.268C600.438 409.47 599.619 408.678 599.344 406.196C599.292 405.816 599.185 405.507 599.044 404.945C598.816 403.749 598.487 402.761 598.325 401.103C598.068 398.748 598.099 396.613 599.367 396.439L621.543 393.279C622.541 393.014 622.985 392.953 623.872 392.832L624.261 392.843C626.671 392.514 630.375 392.201 631.831 393.875L631.938 394.184C631.972 394.438 632.024 394.818 632.186 395.054C633.365 405.099 632.595 405.14 628.393 405.585L627.632 405.689L623.608 406.497L627.785 435.64C627.195 437.465 623.978 438.034 621.116 438.36L620.156 438.427Z" fill="white"/>
<path d="M643.09 392.157C643.236 389.436 652.085 389.667 653.611 389.496C654.191 389.495 654.594 389.643 654.778 390.138L654.814 390.456C654.935 391.537 655.842 394.462 656.627 408.349L666.033 407.23C665.99 406.848 665.946 405.308 665.974 404.983L664.537 389.301C664.438 388.411 666.324 388.006 667.024 387.927L672.684 387.293C672.684 387.293 672.748 387.286 673.01 387.321L674.183 387.447C675.173 387.658 675.619 388.767 675.98 389.692L676.165 390.187L676.386 392.159C676.672 395.282 677.347 399.006 679.85 428.801C679.944 430.207 679.301 430.794 678.199 431.304C677.585 431.566 675.556 431.858 673.521 432.086C672.058 432.25 671.479 432.251 670.518 432.294C669.048 432.395 668.376 432.148 668.078 430.636C668.035 430.254 667.843 429.117 667.679 428.233C667.537 427.541 667.459 426.841 667.438 426.65L667.331 425.696C667.209 424.615 667.109 423.725 667.066 422.764C666.952 421.746 666.823 420.022 666.716 419.068C665.444 419.21 664.052 419.431 663.112 419.665C661.727 419.949 660.088 420.262 658.999 420.319L658.123 420.546C658.281 423.105 659.54 430.885 659.464 432.503L659.457 432.44C659.345 433.161 658.999 433.522 658.441 433.713L658.504 433.706C654.809 434.636 652.675 435.132 649.099 435.405C648.668 435.582 648.421 435.674 648.103 435.709C647.212 435.809 647.119 434.983 647.02 434.092L647.012 434.029C646.977 433.71 646.677 431.039 643.09 392.157Z" fill="white"/>
<path d="M694.054 429.434C693.028 429.461 690.085 428.89 690.063 427.928C689.789 424.868 687.213 403.316 686.426 393.106C686.279 390.742 686.072 389.154 686.11 386.709C686.5 384.617 695.858 384.356 707.501 383.055C710.619 382.711 711.244 383.234 712.308 385.066L712.302 385.002L712.614 385.617C712.787 386.115 713.035 387.442 713.206 389.355C713.401 391.522 712.506 393.723 711.758 393.983C711.323 394.15 709.231 394.466 709.04 394.483L700.22 395.017L699.472 395.277C699.755 401.292 700.265 401.246 700.711 401.206C702.177 401.075 703.307 400.781 704.455 400.678L705.092 400.621C705.469 400.522 705.851 400.488 706.17 400.46C709.108 400.26 709.818 402.446 709.96 404.746C710.08 406.085 710.073 407.435 710.1 408.461L710.146 408.97C710.301 410.692 709.17 410.986 707.901 411.164L701.707 411.591C700.779 411.995 701.084 413.96 701.187 415.107L701.221 415.49C701.261 415.936 701.341 416.828 702.233 416.748L712.879 415.794C713.07 415.777 715.434 415.629 715.664 417.472C715.704 417.918 716.204 421.343 716.468 422.861L716.737 425.857C716.33 427.05 713.449 427.887 712.429 427.979L712.174 428.001C712.307 428.054 706.86 428.928 694.054 429.434Z" fill="white"/>
<path d="M747.62 425.229L747.556 425.232C746.135 411.274 745.678 393.928 745.383 382.92C745.344 382.217 745.369 381.51 745.329 380.807C745.24 380.364 747.85 380.025 752.514 379.765L756.157 379.561C762.163 379.225 769.995 379.429 773.912 384.145C776.455 387.208 777.202 391.397 777.871 395.334C779.292 410.446 775.057 420.682 761.554 424.514C760.35 424.774 759.339 425.022 757.869 425.105L750.968 425.49C750.073 425.54 748.852 425.48 747.62 425.229ZM759.142 411.188L759.477 413.733C759.668 413.722 760.368 413.619 760.496 413.612C764.188 413.149 766.003 406.638 765.674 400.759C765.36 395.136 763.214 390 759.252 390.221C758.997 390.235 757.985 390.484 758.028 391.251L759.142 411.188Z" fill="white"/>
<path d="M788.709 406.959C788.537 405.492 788.432 404.086 788.39 402.679C787.934 387.198 794.883 377.453 812.347 376.939C824.949 376.567 831.238 381.376 831.686 396.602C832.253 415.857 821.243 422.456 807.873 422.85C798.341 423.131 789.921 417.68 788.709 406.959ZM801.047 399.809L801.051 399.937C801.258 404.797 802.495 409.819 809.863 409.986C815.246 410.148 819.483 406.181 819.253 398.377C819.07 392.171 816.22 388.862 810.718 389.024C803.681 389.231 800.883 394.244 801.047 399.809Z" fill="white"/>
<path d="M850.55 422.199C849.782 422.201 849.59 422.329 847.926 422.333C845.174 422.34 842.166 422.028 842.033 420.044L841.81 382.22C841.803 379.468 840.58 376.528 846.276 376.513C847.94 376.509 848.196 376.572 848.708 376.571L849.028 376.57C850.436 376.567 853.06 376.624 853.767 377.711L864.182 396.437L864.138 379.157C864.324 376.532 867.332 376.525 870.532 376.517L870.98 376.516C875.78 376.504 876.105 378.487 876.109 380.151L876.27 419.062C876.084 421.367 874.805 421.946 873.205 421.95C870.965 421.956 870.069 421.83 867.701 421.836L866.357 421.839C865.717 421.841 864.498 420.756 864.305 420.18L854.074 397.998C854.766 419.18 854.198 422.254 852.47 422.258L851.958 422.259C851.83 422.26 851.638 422.196 851.446 422.196L850.55 422.199Z" fill="white"/>
<path d="M886.174 405.536C886.082 404.062 886.053 402.653 886.087 401.245C886.466 385.762 893.929 376.405 911.395 376.832C924 377.14 930.02 382.281 929.647 397.509C929.177 416.767 917.827 422.763 904.455 422.436C894.922 422.203 886.807 416.307 886.174 405.536ZM898.88 399.061L898.877 399.189C898.822 404.053 899.786 409.134 907.135 409.698C912.501 410.149 916.946 406.417 917.137 398.611C917.289 392.405 914.62 388.947 909.118 388.812C902.08 388.64 899.016 393.495 898.88 399.061Z" fill="white"/>
<path d="M954.018 423.986L954.146 423.992C952.572 423.46 950.425 419.244 949.031 414.107C943.696 393.892 942.428 386.39 941.269 382.868C940.775 381.303 940.617 380.654 940.634 380.335C940.706 378.992 942.502 378.96 945.633 379.126L948.829 379.296C955.092 379.628 955.545 381.96 956.411 386.171C956.72 387.598 955.929 388.004 958.551 406.217C961.467 399.578 963.016 389.727 965.346 384.467C966.871 381.087 969.825 380.987 973.34 381.174L975.641 381.296C978.964 381.473 981.073 381.585 981.126 382.998L978.399 388.493C975.742 393.863 974.189 398.972 966.01 416.611C965.936 416.8 965.865 416.924 965.865 416.924C964.795 418.982 961.872 424.531 959.06 424.382L958.613 424.358C958.23 424.338 957.587 424.368 956.82 424.327C955.989 424.283 954.97 424.164 954.018 423.986Z" fill="white"/>
<path d="M994.012 426.613C993.438 426.567 988.074 426.208 988.24 424.102C988.351 422.699 990.098 413.592 996.767 386.898C997.872 384.289 1000.33 382.429 1007.3 382.724C1016.78 383.088 1018.93 385.056 1019.85 391.291L1022.36 425.387C1022.35 425.514 1022.27 425.637 1022.26 425.765C1021.96 427.153 1021.56 428.983 1016.71 428.6C1015.31 428.489 1009.76 428.05 1009.72 426.057L1009.49 419.234C1009.52 418.08 1007.17 417.766 1005.57 417.64L1005.19 417.61C1003.91 417.509 1002.89 417.428 1002.76 418.316L1002.11 424.043C1001.97 424.995 1001.69 426.128 1000.83 426.509L1000.89 426.515C998.665 427.045 997.762 427.102 995.592 426.93C995.342 426.846 994.331 426.638 994.012 426.613ZM1005.47 396.125L1003.62 408.241L1008.91 408.659C1009.07 402.637 1009.02 399.23 1008.68 395.415L1008.67 395.479C1008.62 395.283 1008.47 394.821 1008.35 394.62L1008.42 394.625C1008.42 394.625 1008.22 393.839 1007.65 393.793C1007.14 393.753 1006.15 394.06 1005.85 394.678L1005.85 394.614C1005.72 394.604 1005.49 395.87 1005.47 396.125Z" fill="white"/>
<path d="M1039.45 430.773C1038.69 430.694 1038.48 430.802 1036.83 430.63C1034.09 430.347 1031.13 429.72 1031.21 427.733L1034.97 390.096C1035.26 387.359 1034.35 384.306 1040.02 384.892C1041.67 385.063 1041.92 385.153 1042.43 385.205L1042.75 385.238C1044.15 385.383 1046.75 385.717 1047.34 386.871L1055.72 406.591L1057.5 389.402C1057.96 386.812 1060.95 387.121 1064.14 387.451L1064.58 387.497C1069.36 387.99 1069.47 389.997 1069.3 391.652L1065.36 430.364C1064.93 432.636 1063.6 433.077 1062.01 432.913C1059.78 432.682 1058.9 432.463 1056.55 432.219L1055.21 432.081C1054.57 432.015 1053.48 430.808 1053.34 430.215L1045.51 407.078C1043.96 428.216 1043.07 431.212 1041.36 431.034L1040.85 430.982C1040.72 430.968 1040.54 430.885 1040.34 430.865L1039.45 430.773Z" fill="white"/>
<path d="M1088.2 390.795C1087.64 392.231 1086.96 393.782 1086.16 395.447C1085.35 397.113 1084.49 398.77 1083.56 400.42C1082.68 402.033 1081.8 403.561 1080.94 405.004L1076.81 404.506C1077.25 403.356 1077.7 402.121 1078.16 400.801C1078.66 399.486 1079.12 398.166 1079.54 396.842C1080.01 395.479 1080.42 394.155 1080.79 392.867C1081.21 391.584 1081.56 390.403 1081.87 389.322L1087.84 390.042L1088.2 390.795Z" fill="white"/>
<path d="M1124.91 426.988C1123.14 438.502 1114.64 440.178 1107.22 439.16C1102.15 438.464 1097.51 436.471 1095.75 435.648L1095.03 435.29L1095.14 435.371C1095.08 435.362 1095.03 435.29 1094.96 435.281C1093.72 434.464 1091.82 433.235 1091.99 432.03C1092.18 430.635 1092.08 429.459 1092.25 428.191C1092.9 423.499 1094.4 420.54 1095.48 420.688C1095.54 420.697 1095.6 420.769 1095.66 420.778L1095.6 420.769C1097.15 421.24 1104.57 425.553 1108.37 426.075C1109.64 426.249 1110.52 425.918 1110.64 425.094C1110.79 423.953 1110.36 423.376 1108.87 422.913C1104.54 421.543 1097.85 418.946 1096.07 413.082C1095.63 411.6 1096 407.968 1096.23 406.256C1097.95 393.766 1106.56 392.686 1115.44 393.905C1118.61 394.34 1126.32 395.528 1128.13 398.876C1128.42 399.562 1128.52 400.738 1128.3 402.324C1127.8 405.938 1126.3 409.802 1125.43 410.069C1124.96 410.135 1124.45 410.129 1123.81 410.042C1120.71 409.615 1113.5 407.528 1110.71 407.145C1109.63 406.997 1108.96 407.164 1108.87 407.861C1108.5 410.524 1112.36 411.634 1115.16 412.406C1123.24 414.679 1126.09 418.429 1124.91 426.988Z" fill="white"/>
<path d="M664.101 517.75L662.832 517.918C661.888 518.108 661.199 518.264 660.501 518.357C654.538 519.15 654.146 515.715 653.75 512.734L653.547 511.211C653.265 509.57 652.881 507.168 652.51 504.376C651.287 495.177 650.087 483.715 649.923 481.994L649.872 481.613C649.855 481.486 649.902 481.351 649.885 481.224C649.624 478.289 649.372 475.417 652.21 473.942C652.921 473.461 654.245 473.22 655.378 473.005L661.469 472.196C671.366 470.88 681.199 470.542 683.079 484.69C684.714 496.997 678.31 501.27 667.122 503.08C666.361 503.181 666.429 503.689 666.488 504.133C666.626 505.664 667.382 509.889 667.508 510.841C668.022 514.711 667.662 517.341 664.101 517.75ZM670.259 486.845C669.956 484.561 668.629 482.349 666.708 482.475C663.765 482.672 662.647 485.92 663.018 488.711C663.355 491.249 665.063 493.411 667.431 492.773C669.652 492.478 670.605 489.446 670.259 486.845Z" fill="white"/>
<path d="M695.345 502.389C692.316 472.075 691.624 470.477 694.621 469.051C695.491 468.762 697.717 468.516 701.032 468.214C703.584 467.996 703.675 468.823 704.055 471.678C704.689 476.244 705.475 486.267 708.304 507.203C708.881 511.26 708.344 511.641 704.591 512.056C702.937 512.239 702.739 512.196 701.142 512.309C698.018 512.589 696.533 513.719 695.85 508.708C695.554 506.616 695.478 504.178 695.345 502.389Z" fill="white"/>
<path d="M724.569 510.61C723.995 510.661 718.646 511.196 718.461 509.092C718.337 507.689 718.55 498.419 720.698 470.989C721.355 468.233 723.471 465.991 730.398 465.125C739.8 463.912 742.252 465.495 744.193 471.492L752.318 504.7C752.329 504.828 752.277 504.961 752.288 505.088C752.22 506.508 752.128 508.379 747.282 508.805C745.88 508.929 740.333 509.417 739.968 507.457L738.608 500.766C738.444 499.624 736.074 499.704 734.48 499.845L734.097 499.878C732.822 499.99 731.802 500.08 731.817 500.978L732.13 506.733C732.151 507.695 732.06 508.859 731.271 509.378L731.335 509.373C729.229 510.265 728.347 510.471 726.18 510.661C725.919 510.62 724.888 510.582 724.569 510.61ZM730.816 478.644L730.995 490.9L736.286 490.434C735.44 484.469 734.824 481.118 733.856 477.413L733.861 477.477C733.781 477.291 733.55 476.862 733.406 476.682L733.47 476.676C733.47 476.676 733.148 475.933 732.574 475.984C732.064 476.029 731.141 476.495 730.942 477.155L730.936 477.092C730.809 477.103 730.794 478.389 730.816 478.644Z" fill="white"/>
<path d="M770.035 507.248C769.268 507.292 769.084 507.431 767.423 507.528C764.675 507.688 761.654 507.544 761.41 505.571L759.08 467.819C758.92 465.071 757.534 462.203 763.221 461.871C764.882 461.775 765.141 461.824 765.652 461.794L765.972 461.775C767.377 461.693 770.001 461.604 770.767 462.649L782.209 480.766L781.203 463.515C781.242 460.884 784.245 460.709 787.439 460.523L787.887 460.497C792.678 460.217 793.113 462.179 793.21 463.84L795.54 502.683C795.483 504.994 794.238 505.643 792.641 505.737C790.405 505.867 789.503 505.791 787.139 505.929L785.797 506.008C785.158 506.045 783.881 505.03 783.656 504.466L772.204 482.888C774.076 503.999 773.68 507.099 771.955 507.2L771.444 507.23C771.316 507.237 771.121 507.184 770.929 507.195L770.035 507.248Z" fill="white"/>
<path d="M804.73 488.638C804.564 487.17 804.465 485.764 804.429 484.356C804.035 468.873 811.023 459.157 828.489 458.713C841.093 458.392 847.362 463.227 847.749 478.454C848.238 497.712 837.201 504.266 823.83 504.606C814.297 504.848 805.899 499.364 804.73 488.638ZM817.097 481.537L817.101 481.665C817.288 486.526 818.504 491.553 825.872 491.75C831.254 491.933 835.507 487.984 835.309 480.178C835.151 473.972 832.314 470.651 826.812 470.791C819.774 470.97 816.956 475.971 817.097 481.537Z" fill="white"/>
<path d="M892.616 489.272L892.315 502.709C891.323 504.159 889.776 504.637 887.088 504.576C883.057 504.486 878.904 504.137 878.954 501.898L878.96 501.642C878.832 501.639 879.063 497.035 879.536 461.581C880.284 459.613 885.216 459.467 890.655 459.589L898.781 459.771C905.947 459.931 912.827 461.429 912.604 471.411C912.454 478.129 908.645 482.397 902.709 484.505C903.529 485.035 914.179 498.333 915.108 502.578L915.105 502.706C915.095 503.154 914.245 503.967 912.255 504.179C910.848 504.147 903.876 503.864 902.344 503.701C901.193 503.612 900.522 502.124 892.616 489.272ZM891.816 476.387C891.781 477.923 892.535 478.58 894.07 478.614C897.142 478.683 898.314 474.932 898.364 472.693L898.387 471.669C898.101 470.126 896.712 469.263 895.304 469.231C894.473 469.213 892.546 469.49 892.071 470.695C892.044 471.911 891.849 474.915 891.833 475.619L891.816 476.387Z" fill="white"/>
<path d="M925.435 488.699C925.389 487.222 925.404 485.812 925.483 484.407C926.348 468.943 934.102 459.826 951.546 460.802C964.135 461.506 969.99 466.834 969.139 482.042C968.063 501.276 956.53 506.912 943.175 506.165C933.654 505.632 925.729 499.484 925.435 488.699ZM938.338 482.626L938.331 482.754C938.123 487.614 938.927 492.723 946.254 493.517C951.604 494.137 956.164 490.546 956.6 482.75C956.947 476.552 954.389 473.012 948.893 472.704C941.864 472.311 938.65 477.067 938.338 482.626Z" fill="white"/>
<path d="M978.664 491.849C978.671 490.371 978.737 488.964 978.866 487.561C980.286 472.139 988.361 463.306 1005.76 464.908C1018.31 466.063 1023.98 471.598 1022.58 486.765C1020.81 505.948 1009.09 511.167 995.765 509.941C986.27 509.067 978.57 502.638 978.664 491.849ZM991.777 486.244L991.765 486.371C991.383 491.22 992.003 496.355 999.297 497.412C1004.62 498.223 1009.31 494.799 1010.02 487.023C1010.59 480.842 1008.16 477.212 1002.68 476.707C995.671 476.062 992.287 480.699 991.777 486.244Z" fill="white"/>
<path d="M1029.83 510.333L1035.49 469.893C1036.1 467.132 1038.26 467.41 1038.83 467.484C1046.83 468.514 1046.98 468.856 1048.05 471.511L1048.26 471.924L1054.87 485.23C1058.95 481.109 1063.87 475.935 1068.02 471.823C1068.57 471.507 1069.84 471.671 1070.8 471.793L1074.22 472.235C1075.47 472.589 1076.84 473.991 1076.84 475.475L1074.48 511.308C1074.42 511.816 1074.5 512.665 1074.48 512.856C1073.77 518.378 1071.13 518.813 1067.26 518.314C1065.86 518.135 1066.13 518.04 1064.29 517.803C1063.34 517.681 1061.84 516.778 1062.21 510.953C1063.27 494.183 1063.83 493.804 1063.84 490.708C1062.23 492.695 1055.07 503.258 1052.78 502.964L1052.46 502.923C1049.61 502.555 1046.93 494.274 1044.72 489.923C1043.92 496.08 1043.58 505.264 1043.03 509.517L1042.83 511.104C1042.57 513.071 1042.03 515.26 1040.26 515.031L1030.35 513.757C1029.53 513.65 1029.74 511.031 1029.83 510.333Z" fill="white"/>
<path d="M1272.27 957.312C1272.27 975.513 1090.02 990.028 865.383 990.028C640.743 990.028 458.496 975.283 458.496 957.312L637.517 57.5996H1093.25L1272.27 957.312Z" fill="url(#paint0_linear_1471_107985)"/>
<path d="M261.734 974.822C263.578 973.67 265.19 972.749 267.264 971.827C269.107 970.905 271.181 970.214 273.254 969.754C277.402 968.602 281.549 968.371 285.696 968.371C289.843 968.601 293.99 969.062 298.138 970.214C300.211 970.906 302.054 971.827 303.898 972.518C305.741 973.44 307.584 974.592 309.197 975.514C305.51 974.131 301.594 972.288 297.677 971.366C293.76 970.445 289.613 969.984 285.466 969.984C281.318 969.984 277.402 969.984 273.254 970.906C269.338 971.597 265.421 973.21 261.734 974.822Z" fill="#7C2712"/>
<path d="M174.643 974.362C176.255 973.21 177.868 972.518 179.711 971.597C181.555 970.906 183.398 970.214 185.241 969.754C188.927 968.832 192.844 968.371 196.761 968.371C200.678 968.371 204.595 968.832 208.281 969.754C210.124 970.214 211.967 970.905 213.811 971.827C215.654 972.749 217.267 973.67 218.879 974.592C215.423 973.21 211.737 971.827 208.051 971.136C204.364 970.445 200.447 970.214 196.761 970.214C193.075 970.214 189.158 970.445 185.471 971.136C181.785 971.597 178.099 972.979 174.643 974.362Z" fill="#7C2712"/>
<path d="M174.643 974.361C180.172 972.057 186.163 969.753 197.222 969.753C218.879 969.753 218.879 978.969 240.767 978.969C262.425 978.969 262.425 969.753 284.313 969.753C305.971 969.753 305.971 978.969 327.859 978.969C332.697 978.969 343.065 977.587 348.825 971.597C334.31 663.321 238.003 532.685 238.003 532.685C448.127 478.08 491.212 176.025 493.747 159.667H174.643V974.361Z" fill="#EA4C0C"/>
<mask id="mask1_1471_107985" style="mask-type:luminance" maskUnits="userSpaceOnUse" x="174" y="159" width="320" height="820">
<path d="M174.643 974.361C180.172 972.057 186.163 969.753 197.222 969.753C218.879 969.753 218.879 978.969 240.767 978.969C262.425 978.969 262.425 969.753 284.313 969.753C305.971 969.753 305.971 978.969 327.859 978.969C332.697 978.969 343.065 977.587 348.825 971.597C334.31 663.321 238.003 532.685 238.003 532.685C448.127 478.08 491.212 176.025 493.747 159.667H174.643V974.361Z" fill="white"/>
</mask>
<g mask="url(#mask1_1471_107985)">
<path d="M173.49 951.782C179.02 949.478 185.241 947.174 196.3 947.174C218.418 947.174 218.418 956.39 240.306 956.39C262.425 956.39 262.425 947.174 284.313 947.174C306.431 947.174 306.431 956.39 328.319 956.39C333.157 956.39 343.756 955.008 349.516 949.017" stroke="#ED9E4A" stroke-width="1.5" stroke-miterlimit="10"/>
</g>
<mask id="mask2_1471_107985" style="mask-type:luminance" maskUnits="userSpaceOnUse" x="174" y="159" width="320" height="820">
<path d="M174.643 974.361C180.172 972.057 186.163 969.753 197.222 969.753C218.879 969.753 218.879 978.969 240.767 978.969C262.425 978.969 262.425 969.753 284.313 969.753C305.971 969.753 305.971 978.969 327.859 978.969C332.697 978.969 343.065 977.587 348.825 971.597C334.31 663.321 238.003 532.685 238.003 532.685C448.127 478.08 491.212 176.025 493.747 159.667H174.643V974.361Z" fill="white"/>
</mask>
<g mask="url(#mask2_1471_107985)">
<path d="M419.096 217.267C416.562 248.371 409.88 279.245 399.973 308.966C397.669 316.57 394.674 323.712 391.909 331.085C389.144 338.457 385.688 345.6 382.463 352.742C375.781 367.027 368.408 380.851 360.344 394.214L357.349 399.283L354.123 404.121L347.672 413.798L344.447 418.637C343.295 420.249 342.143 421.862 340.991 423.475L333.848 432.921C329.24 439.373 323.941 445.133 318.872 451.123C316.338 454.118 313.803 457.113 311.269 460.109L303.205 468.633C281.547 491.213 257.355 511.488 231.09 528.537C254.821 508.493 277.4 487.066 297.906 463.795L305.509 455.04C308.043 452.045 310.347 449.05 312.882 446.054C317.72 440.064 322.559 434.073 326.936 427.853C336.152 415.411 344.677 402.739 352.741 389.606C360.805 376.474 368.178 362.88 375.09 349.056C378.315 342.144 382.002 335.232 384.767 328.089C387.762 320.947 390.987 314.035 393.522 306.662C404.12 277.632 412.645 247.68 419.096 217.267Z" fill="#C2370C"/>
<path d="M226.483 197.222C232.243 224.179 234.086 251.827 233.395 279.475C233.395 282.931 233.395 286.387 233.164 289.843L232.473 300.211C232.012 307.123 231.321 314.035 230.63 320.947C229.939 327.859 228.787 334.541 227.865 341.453C226.943 348.365 225.561 355.046 224.179 361.958C223.027 368.87 221.183 375.552 219.801 382.233C218.419 388.915 216.575 395.597 214.732 402.278C213.811 405.504 212.889 408.96 211.967 412.185L208.742 422.093L205.516 432L202.06 441.677C192.614 467.712 181.324 492.825 167.961 516.787C177.868 491.213 187.315 465.408 195.379 439.373L198.374 429.696L201.139 419.789L203.903 409.881C204.825 406.656 205.516 403.2 206.438 399.974C208.051 393.293 209.894 386.841 211.276 380.16C212.659 373.478 214.271 366.797 215.423 360.115C216.806 353.433 218.188 346.752 219.11 340.07C220.262 333.389 221.414 326.707 222.105 319.795C223.027 313.113 223.948 306.201 224.639 299.52C225.331 292.838 226.022 285.926 226.483 279.245C228.326 251.827 228.556 224.64 226.483 197.222Z" fill="#C2370C"/>
<path d="M313.344 188.006C314.035 203.213 313.805 218.65 313.114 233.856C312.192 249.062 311.04 264.269 309.197 279.475C307.354 294.682 304.819 309.888 302.054 324.864C299.059 339.84 295.373 354.816 291.226 369.562C287.078 384.307 282.01 398.822 276.25 413.107C273.485 420.25 270.259 427.162 267.034 434.304L261.965 444.672C260.352 448.128 258.278 451.354 256.435 454.81C241.459 481.536 221.414 506.189 196.531 523.93C218.88 503.194 236.39 478.08 249.984 451.354C253.44 444.672 256.435 437.76 259.661 431.078C262.656 424.166 265.651 417.254 268.186 410.112C270.95 403.2 273.254 395.827 275.789 388.915C278.093 381.773 280.397 374.63 282.47 367.258C286.618 352.742 290.304 337.997 293.53 323.251C296.755 308.506 299.52 293.53 302.285 278.554C304.819 263.578 307.123 248.602 308.966 233.395C310.349 218.419 311.962 203.213 313.344 188.006Z" fill="#C2370C"/>
<path d="M280.396 944.409C277.631 909.158 274.636 873.907 271.641 838.656C270.028 821.145 268.415 803.405 266.572 785.894C264.729 768.384 262.886 750.873 260.582 733.363C258.508 715.853 256.204 698.342 253.439 681.062C250.905 663.552 247.91 646.272 244.454 628.992C242.841 620.237 240.767 611.712 238.924 603.187L235.929 590.285L232.473 577.613C227.635 560.793 222.105 543.974 214.041 528.077C223.718 542.822 230.63 559.411 236.62 576.23C242.611 593.049 247.219 610.099 251.366 627.379C259.66 661.939 264.959 696.96 269.567 732.211C273.715 767.462 276.71 802.713 278.553 837.965C280.627 873.677 281.548 908.928 280.396 944.409Z" fill="#C2370C"/>
<path d="M212.659 939.571C210.816 905.241 209.664 870.912 208.282 836.582L204.365 733.593L203.443 707.789L202.291 681.984C202.061 673.459 201.6 664.934 201.139 656.179C200.679 647.654 200.218 639.129 199.757 630.605C197.683 596.275 195.61 562.176 190.771 528.077C199.296 561.485 203.674 595.814 206.899 630.144C207.821 638.669 208.512 647.193 209.203 655.949C209.895 664.473 210.586 672.998 211.047 681.753L212.429 707.558L213.581 733.363C214.042 741.888 214.042 750.643 214.272 759.168C214.503 767.693 214.733 776.448 214.963 784.973C215.194 802.253 215.424 819.302 215.424 836.582C215.194 870.681 214.503 905.241 212.659 939.571Z" fill="#C2370C"/>
</g>
<mask id="mask3_1471_107985" style="mask-type:luminance" maskUnits="userSpaceOnUse" x="174" y="159" width="320" height="820">
<path d="M174.643 974.361C180.172 972.057 186.163 969.753 197.222 969.753C218.879 969.753 218.879 978.969 240.767 978.969C262.425 978.969 262.425 969.753 284.313 969.753C305.971 969.753 305.971 978.969 327.859 978.969C332.697 978.969 343.065 977.587 348.825 971.597C334.31 663.321 238.003 532.685 238.003 532.685C448.127 478.08 491.212 176.025 493.747 159.667H174.643V974.361Z" fill="white"/>
</mask>
<g mask="url(#mask3_1471_107985)">
<path d="M570.931 164.966C523.699 272.794 378.086 414.95 174.643 318.873V164.966H570.931Z" fill="#C2370C"/>
</g>
<path d="M236.391 545.818C179.482 537.754 146.535 519.782 144.922 519.091L150.451 509.875L155.981 500.659C156.211 500.659 163.354 504.576 176.256 509.414C188.007 521.856 207.821 537.984 236.391 545.818Z" fill="#DA6A1C"/>
<path d="M254.592 528.077L252.518 534.758L248.371 547.2C244.224 546.739 240.307 546.278 236.621 545.587C208.051 537.754 188.006 521.395 176.256 509.184C188.237 513.562 204.825 519.091 225.331 523.238C234.317 525.312 244.224 526.925 254.592 528.077Z" fill="#ED9E4A"/>
<path d="M1466.27 974.822C1462.35 973.901 1458.43 972.518 1454.52 972.057C1450.6 971.597 1446.68 971.366 1442.54 971.366C1438.62 971.366 1434.47 971.827 1430.79 972.518C1428.94 972.979 1426.87 973.44 1425.03 974.131C1422.95 974.592 1421.11 975.283 1419.04 975.744C1422.72 974.131 1426.41 972.288 1430.56 971.366C1434.47 970.214 1438.62 969.753 1442.77 969.753C1446.91 969.753 1451.06 969.984 1454.98 970.905C1458.66 971.597 1462.58 973.209 1466.27 974.822Z" fill="#7C2712"/>
<path d="M1553.36 974.361C1551.51 973.901 1549.67 973.44 1547.83 972.979C1545.99 972.518 1544.14 972.288 1542.3 972.057C1538.61 971.597 1534.93 971.366 1531.24 971.366C1527.55 971.136 1523.87 971.597 1520.18 972.057C1516.49 972.518 1512.81 973.67 1509.12 974.592C1512.58 972.979 1516.26 971.597 1519.95 970.905C1523.64 970.214 1527.55 969.753 1531.24 969.753C1535.16 969.753 1538.84 970.214 1542.53 970.905C1546.22 971.597 1549.9 972.979 1553.36 974.361Z" fill="#7C2712"/>
<path d="M1553.36 974.361C1547.83 972.057 1541.84 969.753 1530.78 969.753C1509.12 969.753 1509.12 978.969 1487.23 978.969C1465.58 978.969 1465.58 969.753 1443.69 969.753C1422.03 969.753 1422.03 978.969 1400.14 978.969C1395.3 978.969 1384.94 977.587 1379.18 971.597C1393.69 663.321 1490 532.685 1490 532.685C1279.87 478.08 1236.79 176.025 1234.25 159.667H1553.13V974.361H1553.36Z" fill="#EA4C0C"/>
<mask id="mask4_1471_107985" style="mask-type:luminance" maskUnits="userSpaceOnUse" x="1234" y="159" width="320" height="820">
<path d="M1553.36 974.361C1547.83 972.057 1541.84 969.753 1530.78 969.753C1509.12 969.753 1509.12 978.969 1487.23 978.969C1465.58 978.969 1465.58 969.753 1443.69 969.753C1422.03 969.753 1422.03 978.969 1400.14 978.969C1395.3 978.969 1384.94 977.587 1379.18 971.597C1393.69 663.321 1490 532.685 1490 532.685C1279.87 478.08 1236.79 176.025 1234.25 159.667H1553.13V974.361H1553.36Z" fill="white"/>
</mask>
<g mask="url(#mask4_1471_107985)">
<path d="M1554.51 951.782C1548.98 949.478 1542.76 947.174 1531.7 947.174C1509.58 947.174 1509.58 956.39 1487.69 956.39C1465.58 956.39 1465.58 947.174 1443.69 947.174C1421.57 947.174 1421.57 956.39 1399.68 956.39C1394.84 956.39 1384.24 955.008 1378.48 949.017" stroke="#ED9E4A" stroke-width="1.5" stroke-miterlimit="10"/>
</g>
<mask id="mask5_1471_107985" style="mask-type:luminance" maskUnits="userSpaceOnUse" x="1234" y="159" width="320" height="820">
<path d="M1553.36 974.361C1547.83 972.057 1541.84 969.753 1530.78 969.753C1509.12 969.753 1509.12 978.969 1487.23 978.969C1465.58 978.969 1465.58 969.753 1443.69 969.753C1422.03 969.753 1422.03 978.969 1400.14 978.969C1395.3 978.969 1384.94 977.587 1379.18 971.597C1393.69 663.321 1490 532.685 1490 532.685C1279.87 478.08 1236.79 176.025 1234.25 159.667H1553.13V974.361H1553.36Z" fill="white"/>
</mask>
<g mask="url(#mask5_1471_107985)">
<path d="M1308.9 217.267C1315.13 247.91 1323.65 277.632 1334.71 306.432C1337.24 313.805 1340.47 320.717 1343.46 327.859C1346.23 335.001 1349.92 341.913 1353.14 348.825C1359.82 362.649 1367.2 376.243 1375.49 389.376C1383.55 402.509 1392.08 415.411 1401.29 427.622C1405.67 434.074 1410.74 439.833 1415.35 445.824C1417.88 448.819 1420.19 451.814 1422.72 454.809L1430.33 463.565C1450.83 486.835 1473.18 508.032 1497.14 528.307C1471.11 511.258 1446.91 490.982 1425.03 468.403L1416.96 459.878C1414.2 457.114 1411.89 453.888 1409.36 450.893C1404.29 444.902 1398.99 438.912 1394.38 432.691L1387.24 423.245C1386.09 421.632 1384.94 420.019 1383.78 418.406L1380.56 413.568L1374.11 403.891L1370.88 399.053L1367.89 393.984C1359.82 380.621 1352.22 366.797 1345.77 352.512C1342.54 345.369 1339.09 338.227 1336.32 330.854C1333.56 323.482 1330.56 316.339 1328.26 308.736C1318.12 279.014 1311.44 248.371 1308.9 217.267Z" fill="#C2370C"/>
<path d="M1501.52 197.222C1499.44 224.64 1499.68 252.057 1501.75 279.245C1502.21 286.157 1502.9 292.838 1503.59 299.52C1504.05 306.201 1505.2 313.113 1506.13 319.795C1507.05 326.477 1508.2 333.158 1509.12 340.07C1510.04 346.752 1511.66 353.433 1512.81 360.115C1513.96 366.797 1515.57 373.478 1516.96 380.16C1518.34 386.841 1520.18 393.293 1521.79 399.974C1522.72 403.2 1523.41 406.656 1524.33 409.881L1527.09 419.789L1529.86 429.696L1532.85 439.373C1540.92 465.408 1550.13 491.213 1560.27 516.787C1546.68 492.825 1535.39 467.481 1526.17 441.677L1522.72 432L1519.49 422.093L1516.26 412.185C1515.34 408.96 1514.42 405.504 1513.5 402.278C1511.66 395.597 1509.81 388.915 1508.43 382.233C1506.82 375.552 1505.2 368.87 1504.05 361.958C1502.9 355.046 1501.29 348.365 1500.37 341.453C1499.44 334.541 1498.06 327.859 1497.6 320.947C1496.91 314.035 1495.99 307.123 1495.76 300.211L1495.07 289.843C1494.84 286.387 1494.84 282.931 1494.84 279.475C1493.92 251.827 1495.76 223.949 1501.52 197.222Z" fill="#C2370C"/>
<path d="M1414.66 188.006C1416.04 203.213 1417.65 218.419 1419.5 233.395C1421.34 248.371 1423.64 263.578 1426.18 278.554C1428.71 293.53 1431.48 308.506 1434.93 323.251C1438.16 337.997 1441.84 352.742 1445.99 367.258C1448.06 374.63 1450.37 381.773 1452.67 388.915C1455.21 396.058 1457.51 403.2 1460.28 410.112C1462.81 417.254 1465.81 424.166 1468.8 431.078C1472.03 437.99 1475.02 444.902 1478.48 451.354C1492.07 478.31 1509.58 503.194 1531.93 523.93C1507.05 506.189 1487.23 481.536 1472.03 454.81C1470.18 451.354 1468.11 448.128 1466.5 444.672L1461.43 434.304C1458.2 427.392 1454.98 420.25 1452.21 413.107C1446.45 398.822 1441.61 384.307 1437.24 369.562C1433.09 354.816 1429.4 339.84 1426.41 324.864C1423.64 309.888 1420.88 294.682 1419.27 279.475C1417.42 264.269 1416.04 249.062 1415.35 233.856C1414.43 218.65 1413.97 203.443 1414.66 188.006Z" fill="#C2370C"/>
<path d="M1447.6 944.41C1446.68 908.928 1447.6 873.677 1449.22 838.195C1451.06 802.944 1454.06 767.462 1458.2 732.442C1462.58 697.19 1468.11 662.17 1476.4 627.61C1480.55 610.33 1485.16 593.05 1491.15 576.461C1497.14 559.872 1504.05 543.283 1513.73 528.307C1505.9 544.205 1500.14 560.794 1495.3 577.843L1491.84 590.515L1488.85 603.418C1487 611.942 1484.93 620.467 1483.32 629.222C1480.09 646.502 1476.87 663.782 1474.33 681.293C1471.8 698.803 1469.26 716.083 1467.19 733.594C1464.88 751.104 1463.04 768.614 1461.2 786.125C1459.35 803.635 1457.74 821.146 1456.13 838.886C1453.13 873.907 1450.37 909.158 1447.6 944.41Z" fill="#C2370C"/>
<path d="M1515.34 939.571C1513.27 905.241 1512.58 870.912 1512.58 836.352C1512.35 819.072 1512.81 802.022 1513.04 784.742C1513.04 776.217 1513.5 767.462 1513.73 758.937C1513.96 750.413 1514.19 741.657 1514.42 733.133L1515.57 707.328L1516.95 681.523C1517.41 672.998 1518.11 664.243 1518.8 655.718C1519.49 647.193 1520.18 638.669 1521.1 629.913C1524.56 595.584 1528.7 561.254 1537.23 527.846C1532.39 561.945 1530.32 596.045 1528.24 630.374C1527.78 638.899 1527.32 647.424 1526.86 655.949C1526.4 664.473 1525.94 672.998 1525.71 681.753L1524.56 707.558L1523.64 733.363L1519.72 836.352C1518.57 870.912 1517.18 905.241 1515.34 939.571Z" fill="#C2370C"/>
</g>
<mask id="mask6_1471_107985" style="mask-type:luminance" maskUnits="userSpaceOnUse" x="1234" y="159" width="320" height="820">
<path d="M1553.36 974.361C1547.83 972.057 1541.84 969.753 1530.78 969.753C1509.12 969.753 1509.12 978.969 1487.23 978.969C1465.58 978.969 1465.58 969.753 1443.69 969.753C1422.03 969.753 1422.03 978.969 1400.14 978.969C1395.3 978.969 1384.94 977.587 1379.18 971.597C1393.69 663.321 1490 532.685 1490 532.685C1279.87 478.08 1236.79 176.025 1234.25 159.667H1553.13V974.361H1553.36Z" fill="white"/>
</mask>
<g mask="url(#mask6_1471_107985)">
<path d="M1157.07 164.966C1204.3 272.794 1349.92 414.95 1553.36 318.873V164.966H1157.07Z" fill="#C2370C"/>
</g>
<path d="M1491.61 545.818C1548.52 537.754 1581.47 519.782 1583.08 519.091L1577.55 509.875L1572.02 500.659C1571.79 500.659 1564.65 504.576 1551.74 509.414C1539.99 521.856 1520.18 537.984 1491.61 545.818Z" fill="#DA6A1C"/>
<path d="M1473.41 528.077L1475.71 534.758L1479.86 547.2C1484.01 546.739 1487.92 546.278 1491.61 545.587C1520.18 537.754 1540.22 521.395 1551.97 509.184C1539.99 513.562 1523.4 519.091 1502.9 523.238C1493.68 525.312 1483.78 526.925 1473.41 528.077Z" fill="#ED9E4A"/>
<path d="M599.962 164.966C549.966 259.891 395.137 385.229 179.482 300.441V164.966H599.962Z" fill="#EA4C0C"/>
<mask id="mask7_1471_107985" style="mask-type:luminance" maskUnits="userSpaceOnUse" x="179" y="164" width="421" height="165">
<path d="M599.962 164.966C549.966 259.891 395.137 385.229 179.482 300.441V164.966H599.962Z" fill="white"/>
</mask>
<g mask="url(#mask7_1471_107985)">
<path d="M168.193 252.058C185.013 258.97 202.062 264.73 219.573 269.568C236.853 274.406 254.593 278.323 272.334 281.088C281.32 282.47 290.075 283.392 299.061 284.083C308.046 284.774 316.801 285.005 325.787 285.005C343.528 284.774 361.269 282.931 378.549 278.554C413.109 270.259 445.134 252.979 473.243 230.861C487.297 219.802 500.43 207.59 512.641 194.227C524.853 181.094 536.373 167.04 546.51 152.064C538.216 168.192 527.617 183.168 516.097 197.453C510.337 204.595 504.117 211.277 497.896 217.958C491.445 224.64 484.763 230.861 477.851 236.851C464.027 248.832 448.59 259.2 432.462 268.186C416.104 276.71 398.824 283.853 380.853 288.23C362.881 292.608 344.219 294.451 325.787 294.451C307.355 294.221 288.923 292.378 270.952 288.922C252.981 285.466 235.24 280.627 218.19 274.637C200.91 267.955 184.091 261.043 168.193 252.058Z" fill="#C2370C"/>
<path d="M160.82 209.433C190.542 219.11 220.955 226.944 251.368 232.473C282.011 237.773 312.884 240.998 343.528 238.003C351.131 237.312 358.504 235.929 365.876 234.086C373.249 232.243 380.392 229.709 387.304 226.713C401.358 220.723 414.721 213.12 427.393 204.365C433.844 199.987 439.835 195.379 445.825 190.541C451.815 185.702 457.806 180.633 463.336 175.334C474.855 164.736 485.684 153.677 496.052 141.926C487.527 155.059 477.39 167.27 466.792 178.79C461.492 184.55 455.732 190.08 449.972 195.379C444.212 200.678 437.991 205.747 431.771 210.585C425.55 215.424 418.868 219.801 411.956 223.949C405.044 228.096 398.132 232.013 390.76 235.008C383.387 238.233 375.783 240.998 367.95 243.072C360.116 245.145 352.052 246.528 344.219 247.219C328.321 248.601 312.423 248.601 296.526 246.989C280.859 245.606 265.192 242.841 249.755 239.385C234.318 235.929 219.111 231.552 204.366 226.713C189.62 221.645 175.105 216.115 160.82 209.433Z" fill="#C2370C"/>
<path d="M614.477 160.589V190.08C447.898 194.227 295.143 202.291 165.428 213.35V160.589H614.477Z" fill="#C2370C"/>
</g>
<path d="M599.962 164.966C549.966 259.891 395.137 385.229 179.482 300.441V164.966H599.962Z" stroke="#ED9E4A" stroke-width="2.5" stroke-miterlimit="10"/>
<path d="M1128.04 164.966C1178.04 259.891 1332.63 385.229 1548.52 300.441V164.966H1128.04Z" fill="#EA4C0C"/>
<mask id="mask8_1471_107985" style="mask-type:luminance" maskUnits="userSpaceOnUse" x="1128" y="164" width="421" height="165">
<path d="M1128.04 164.966C1178.04 259.891 1332.63 385.229 1548.52 300.441V164.966H1128.04Z" fill="white"/>
</mask>
<g mask="url(#mask8_1471_107985)">
<path d="M1559.81 252.057C1543.91 260.813 1527.09 267.955 1509.81 273.945C1492.53 279.936 1475.02 284.774 1457.05 288.23C1439.08 291.686 1420.65 293.529 1402.22 293.76C1383.78 293.76 1365.35 291.917 1347.15 287.539C1329.18 283.161 1311.9 276.249 1295.54 267.494C1279.41 258.509 1263.98 248.141 1250.15 236.16C1243.24 230.169 1236.33 223.949 1230.11 217.267C1223.66 210.585 1217.67 203.904 1211.91 196.761C1200.39 182.477 1190.02 167.501 1181.49 151.373C1191.63 166.349 1203.15 180.403 1215.36 193.536C1227.57 206.669 1240.7 218.88 1254.76 230.169C1282.87 252.288 1314.89 269.568 1349.45 277.862C1366.5 282.24 1384.47 284.083 1402.22 284.313C1411.2 284.544 1419.96 284.083 1428.94 283.392C1437.93 282.701 1446.68 281.549 1455.67 280.397C1473.41 277.632 1490.92 273.945 1508.43 268.877C1525.94 264.729 1543.22 258.969 1559.81 252.057Z" fill="#C2370C"/>
<path d="M1567.18 209.433C1552.9 216.115 1538.38 221.645 1523.41 226.713C1508.43 231.552 1493.45 235.929 1478.02 239.385C1462.58 242.841 1447.14 245.376 1431.25 246.989C1415.58 248.601 1399.45 248.601 1383.55 247.219C1375.72 246.528 1367.42 245.145 1359.82 243.072C1351.99 240.998 1344.38 238.233 1337.01 235.008C1329.64 231.782 1322.73 227.865 1315.81 223.949C1308.9 219.801 1302.45 215.424 1296 210.585C1289.78 205.747 1283.56 200.678 1277.8 195.379C1272.04 190.08 1266.28 184.55 1260.98 178.79C1250.38 167.27 1240.24 155.059 1231.72 141.926C1242.09 153.677 1252.92 164.966 1264.44 175.334C1270.2 180.633 1275.96 185.702 1281.95 190.541C1287.94 195.379 1294.16 199.987 1300.38 204.365C1313.05 213.12 1326.41 220.953 1340.47 226.713C1347.38 229.709 1354.75 232.243 1361.89 234.086C1369.27 235.929 1376.64 237.312 1384.24 238.003C1414.66 240.998 1445.76 237.773 1476.4 232.473C1507.05 226.944 1537.46 219.11 1567.18 209.433Z" fill="#C2370C"/>
<path d="M1113.52 160.589V190.08C1280.1 194.227 1432.86 202.291 1562.57 213.35V160.589H1113.52Z" fill="#C2370C"/>
</g>
<path d="M1128.04 164.966C1178.04 259.891 1332.63 385.229 1548.52 300.441V164.966H1128.04Z" stroke="#ED9E4A" stroke-width="2.5" stroke-miterlimit="10"/>
<path d="M1178.04 164.966C1115.37 232.934 998.093 278.784 864 278.784C729.907 278.784 612.634 233.165 549.965 164.966H1178.04Z" fill="#EA4C0C"/>
<mask id="mask9_1471_107985" style="mask-type:luminance" maskUnits="userSpaceOnUse" x="549" y="164" width="630" height="115">
<path d="M1178.04 164.966C1115.37 232.934 998.093 278.784 864 278.784C729.907 278.784 612.634 233.165 549.965 164.966H1178.04Z" fill="white"/>
</mask>
<g mask="url(#mask9_1471_107985)">
<path d="M1142.32 133.171L1136.1 140.774C1134.03 143.308 1132.18 145.843 1129.88 148.147L1123.2 155.289C1122.05 156.441 1120.9 157.593 1119.74 158.745L1116.06 161.971L1108.91 168.652L1107.07 170.265L1105.23 171.878L1101.54 174.873L1093.94 181.094C1091.4 182.937 1088.64 184.78 1086.1 186.854C1064.68 201.83 1041.64 214.041 1017.22 223.718C993.023 233.395 967.679 240.307 942.105 245.145C916.3 249.753 890.265 252.057 864.23 252.288C838.194 252.057 811.929 249.984 786.354 245.145C760.78 240.307 735.436 233.625 711.244 223.718C687.052 214.041 663.782 201.83 642.354 186.854C639.82 185.011 637.055 183.168 634.521 181.094L626.918 174.873L623.231 171.878L621.388 170.265L619.545 168.652L612.402 161.971L608.716 158.745C607.564 157.593 606.412 156.441 605.26 155.289L598.578 148.147C596.274 145.843 594.431 143.308 592.358 140.774L586.137 133.171L592.818 140.313C595.122 142.617 597.196 145.152 599.5 147.225L606.642 153.907C607.794 155.059 608.946 156.211 610.098 157.132L613.785 160.128L621.158 166.118L623.001 167.731L625.074 169.113L628.991 171.878L636.825 177.408C639.59 179.251 642.354 180.864 644.889 182.476C666.546 196.3 689.817 207.36 713.778 216.115C737.74 224.87 762.623 231.321 787.967 235.468C813.081 239.616 838.655 241.92 864.23 241.92C889.804 241.92 915.378 239.846 940.492 235.468C965.606 231.321 990.489 224.87 1014.68 216.115C1038.64 207.36 1061.91 196.3 1083.57 182.476C1086.34 180.864 1089.1 179.021 1091.63 177.408L1099.47 171.878L1103.38 169.113L1105.46 167.731L1107.3 166.118L1114.67 160.128L1118.36 157.132C1119.51 155.98 1120.66 155.059 1121.82 153.907L1128.96 147.225C1131.49 145.152 1133.57 142.617 1135.64 140.313L1142.32 133.171Z" fill="#C2370C"/>
<path d="M1050.39 151.833C1038.87 164.045 1025.05 173.952 1010.53 182.246C995.788 190.31 980.121 196.992 963.993 201.83C947.865 206.899 931.276 210.355 914.687 212.889C897.868 215.194 881.049 216.345 864.23 216.576C847.41 216.345 830.361 215.424 813.772 212.889C797.183 210.355 780.364 206.899 764.466 201.83C748.338 196.761 732.671 190.31 717.926 182.246C703.18 173.952 689.356 164.045 678.066 151.833C690.969 162.432 705.254 171.187 720.23 178.099C735.206 185.011 750.873 190.541 766.77 194.688C782.668 198.835 799.026 202.061 815.385 203.904C831.743 205.977 848.102 206.899 864.69 206.899C881.279 206.899 897.638 205.977 913.996 203.904C930.354 202.061 946.482 198.835 962.61 194.688C978.508 190.541 994.175 185.011 1009.15 178.099C1023.44 171.187 1037.49 162.662 1050.39 151.833Z" fill="#C2370C"/>
</g>
<mask id="mask10_1471_107985" style="mask-type:luminance" maskUnits="userSpaceOnUse" x="549" y="164" width="630" height="115">
<path d="M1178.04 164.966C1115.37 232.934 998.093 278.784 864 278.784C729.907 278.784 612.634 233.165 549.965 164.966H1178.04Z" fill="white"/>
</mask>
<g mask="url(#mask10_1471_107985)">
<path d="M1172.27 160.589V191.693C1074.35 188.698 970.905 187.085 864 187.085C757.094 187.085 653.645 188.698 555.725 191.693V160.589H1172.27Z" fill="#C2370C"/>
</g>
<path d="M1178.04 164.966C1115.37 232.934 998.093 278.784 864 278.784C729.907 278.784 612.634 233.165 549.965 164.966H1178.04Z" stroke="#ED9E4A" stroke-width="2.5" stroke-miterlimit="10"/>
<path d="M321.638 -0.000488281V173.952C297.446 175.334 273.485 176.947 250.445 178.56C156.442 185.241 72.1152 193.305 0 202.521V-0.000488281H321.638Z" fill="#FB873C"/>
<path d="M516.327 -0.000488281V164.966C448.359 167.27 383.155 170.496 321.639 173.952V-0.000488281H516.327Z" fill="#FDB274"/>
<path d="M1406.36 -0.000488281V173.952C1344.61 170.265 1279.64 167.27 1211.67 164.966V-0.000488281H1406.36Z" fill="#FDB274"/>
<path d="M1211.67 -0.000488281V164.966C1102.23 161.049 985.421 158.976 864 158.976C742.579 158.976 625.766 161.049 516.326 164.966V-0.000488281H1211.67Z" fill="#FED2AA"/>
<path d="M1728 -0.000488281V202.521C1655.88 193.305 1571.56 185.241 1477.55 178.56C1454.51 176.947 1430.55 175.334 1406.36 173.952V-0.000488281H1728Z" fill="#FB873C"/>
<path d="M1728 202.521V217.267C1520.64 190.771 1210.52 173.721 864 173.721C517.478 173.721 207.36 190.54 0 217.267V202.521C207.36 175.795 517.478 158.976 864 158.976C1210.52 158.976 1520.64 175.795 1728 202.521Z" fill="#E9BB18"/>
<mask id="mask11_1471_107985" style="mask-type:luminance" maskUnits="userSpaceOnUse" x="0" y="158" width="1728" height="60">
<path d="M1728 202.521V217.267C1520.64 190.771 1210.52 173.721 864 173.721C517.478 173.721 207.36 190.54 0 217.267V202.521C207.36 175.795 517.478 158.976 864 158.976C1210.52 158.976 1520.64 175.795 1728 202.521Z" fill="white"/>
</mask>
<g mask="url(#mask11_1471_107985)">
<path d="M1370.19 158.976H1341.16V195.609H1370.19V158.976Z" fill="#AC7A22"/>
<path d="M1329.41 158.976H1314.89V195.609H1329.41V158.976Z" fill="white"/>
<path d="M357.766 195.646H386.797V159.013H357.766V195.646Z" fill="#AC7A22"/>
<path d="M398.772 195.646H413.287V159.013H398.772V195.646Z" fill="white"/>
<path d="M898.559 151.603H829.439V188.236H898.559V151.603Z" fill="white"/>
<path d="M949.131 187.994H956.965V151.36H949.131V187.994Z" fill="#AC7A22"/>
<path d="M778.982 151.603H771.148V188.236H778.982V151.603Z" fill="#AC7A22"/>
<path d="M937.959 151.603H912.615V188.236H937.959V151.603Z" fill="#AC7A22"/>
<path d="M790.004 187.994H815.348V151.36H790.004V187.994Z" fill="#AC7A22"/>
</g>
<path d="M0 202.291C71.424 192.844 143.309 185.932 215.194 179.942C287.078 174.412 359.194 170.035 431.309 166.809C575.539 160.127 719.77 157.132 864 156.902C1008.23 157.132 1152.69 160.127 1296.69 166.809C1368.81 170.265 1440.69 174.412 1512.81 179.942C1584.69 185.702 1656.58 192.844 1728 202.291V202.521C1656.35 193.535 1584.69 186.623 1512.58 181.324C1440.69 175.795 1368.58 171.647 1296.46 168.422C1152.23 161.971 1008 159.206 863.77 159.206C719.539 159.206 575.309 161.971 431.078 168.422C358.963 171.647 287.078 175.795 214.963 181.324C143.309 186.854 71.6544 193.535 0 202.291Z" fill="white"/>
<path d="M146.995 -0.000488281H0V983.808H146.995V-0.000488281Z" fill="#FB873C"/>
<path d="M146.994 -0.000488281V983.808H62.8984L74.6488 908.236C74.6488 906.854 79.948 905.702 88.4728 904.78V-0.000488281H146.994Z" fill="#C2370C"/>
<path d="M96.0759 908.236C96.0759 905.472 118.885 903.167 146.994 903.167C175.103 903.167 197.913 905.472 197.913 908.236L212.428 999.935C212.428 1003.62 183.167 1006.62 147.225 1006.62C111.282 1006.62 82.0215 1003.62 82.0215 999.935L96.0759 908.236Z" fill="#FB873C"/>
<path d="M209.664 983.577C206.669 984.498 201.6 985.42 193.305 986.342C180.864 987.494 164.505 988.185 146.995 988.185C129.485 988.185 112.896 987.494 100.685 986.342C92.3902 985.42 87.5518 984.498 84.3262 983.577L85.0174 978.969C90.7774 981.042 113.357 983.577 146.995 983.577C180.633 983.577 203.213 981.042 208.973 978.969L209.664 983.577Z" fill="#F96616"/>
<path d="M209.664 983.577C199.526 986.802 188.928 987.724 178.56 988.645C167.961 989.567 157.593 989.797 146.995 989.797C136.397 989.567 126.029 989.567 115.43 988.645C105.062 987.724 94.2334 986.802 84.3262 983.577C89.395 984.959 94.6942 985.65 99.763 986.111C105.062 986.572 110.131 987.033 115.43 987.263C126.029 987.724 136.397 987.954 146.995 987.954C157.593 987.954 167.961 987.724 178.56 987.263C183.859 987.033 189.158 986.572 194.227 986.111C199.296 985.65 204.595 985.189 209.664 983.577Z" fill="#FDB274"/>
<path d="M197.683 908.236C197.683 911.001 174.873 913.305 146.764 913.305C118.655 913.305 95.8457 911.001 95.8457 908.236C95.8457 905.471 118.655 903.167 146.764 903.167C175.103 902.937 197.683 905.241 197.683 908.236Z" fill="#FFEBD5"/>
<path d="M183.859 -0.000488281V907.545C180.864 907.775 177.868 908.006 174.643 908.006C166.118 908.467 156.672 908.697 146.764 908.697C132.94 908.697 120.268 908.236 109.67 907.545V-0.000488281H183.859Z" fill="#FB873C"/>
<path d="M183.858 -0.000488281V907.545C180.863 907.775 177.868 908.006 174.642 908.006C166.117 908.467 156.671 908.697 146.764 908.697V-0.000488281H183.858Z" fill="#FDB274"/>
<path d="M183.859 -0.000488281V907.545C180.863 907.775 177.868 908.006 174.643 908.006V-0.000488281H183.859Z" fill="#FED2AA"/>
<path d="M1581.09 983.705H1728.09L1728.09 -0.103455H1581.09V983.705Z" fill="#FB873C"/>
<path d="M1581 -0.000488281V983.808H1665.1L1653.12 908.236C1653.12 906.854 1647.82 905.702 1639.3 904.78V-0.000488281H1581Z" fill="#C2370C"/>
<path d="M1631.92 908.236C1631.92 905.472 1609.11 903.167 1581 903.167C1552.9 903.167 1530.09 905.472 1530.09 908.236L1515.57 999.935C1515.57 1003.62 1544.83 1006.62 1580.77 1006.62C1616.95 1006.62 1645.98 1003.62 1645.98 999.935L1631.92 908.236Z" fill="#FB873C"/>
<path d="M1518.34 983.577C1521.33 984.498 1526.4 985.42 1534.69 986.342C1547.14 987.494 1563.49 988.185 1581 988.185C1598.52 988.185 1615.1 987.494 1627.32 986.342C1635.38 985.42 1640.45 984.498 1643.67 983.577L1642.98 978.969C1637.22 981.042 1614.64 983.577 1581 983.577C1547.14 983.577 1525.02 981.042 1519.03 978.969L1518.34 983.577Z" fill="#F96616"/>
<path d="M1518.34 983.577C1523.4 984.729 1528.7 985.19 1534 985.42C1539.3 985.881 1544.37 986.111 1549.67 986.111C1560.04 986.341 1570.64 986.572 1581 986.572C1591.6 986.802 1601.97 986.341 1612.34 986.111C1617.64 985.881 1622.71 985.65 1628.01 985.42C1633.31 984.959 1638.37 984.729 1643.67 983.577C1638.6 984.959 1633.31 985.65 1628.24 986.341C1622.94 986.802 1617.87 987.263 1612.57 987.493C1601.97 988.185 1591.6 988.415 1581 988.415C1570.41 988.415 1560.04 988.185 1549.44 987.493C1544.14 987.263 1538.84 986.802 1533.77 986.341C1528.7 985.65 1523.4 985.189 1518.34 983.577Z" fill="#FDB274"/>
<path d="M1530.09 908.236C1530.09 911.001 1552.9 913.305 1581 913.305C1609.11 913.305 1631.92 911.001 1631.92 908.236C1631.92 905.471 1609.11 903.167 1581 903.167C1552.9 902.937 1530.09 905.241 1530.09 908.236Z" fill="#FFEBD5"/>
<path d="M1544.14 -0.000488281V907.545C1547.14 907.775 1550.13 908.006 1553.36 908.006C1561.88 908.467 1571.33 908.697 1581.23 908.697C1595.06 908.697 1607.73 908.236 1618.33 907.545V-0.000488281H1544.14Z" fill="#FB873C"/>
<path d="M1544.14 -0.000488281V907.545C1547.14 907.775 1550.13 908.006 1553.36 908.006C1561.88 908.467 1571.33 908.697 1581.23 908.697V-0.000488281H1544.14Z" fill="#FDB274"/>
<path d="M1544.14 -0.000488281V907.545C1547.14 907.775 1550.13 908.006 1553.36 908.006V-0.000488281H1544.14Z" fill="#FED2AA"/>
</g>
<defs>
<linearGradient id="paint0_linear_1471_107985" x1="865.382" y1="57.5996" x2="865.382" y2="990.028" gradientUnits="userSpaceOnUse">
<stop stop-color="#F8D867"/>
<stop offset="1" stop-color="#F8D867" stop-opacity="0"/>
</linearGradient>
<clipPath id="clip0_1471_107985">
<rect width="1728" height="1152" fill="white"/>
</clipPath>
</defs>
</svg>
