<svg width="1728" height="1029" viewBox="0 0 1728 1029" fill="none" xmlns="http://www.w3.org/2000/svg">
<g clip-path="url(#clip0_660_64065)">
<path d="M1728 0H0V1152H1728V0Z" fill="#420863"/>
<path d="M863.999 1003.85C1198.91 1003.85 1470.41 828.801 1470.41 612.864C1470.41 396.927 1198.91 221.875 863.999 221.875C529.086 221.875 257.586 396.927 257.586 612.864C257.586 828.801 529.086 1003.85 863.999 1003.85Z" fill="#601D86"/>
<path d="M864.001 932.198C1137.58 932.198 1359.36 789.227 1359.36 612.864C1359.36 436.5 1137.58 293.53 864.001 293.53C590.421 293.53 368.641 436.5 368.641 612.864C368.641 789.227 590.421 932.198 864.001 932.198Z" fill="#6F219E"/>
<path d="M1728 1006.16H0V1152H1728V1006.16Z" fill="#DA6A1C"/>
<path d="M1477.56 1006.16H250.445V1152H1477.56V1006.16Z" fill="#E98427"/>
<path d="M1172.28 1006.16H555.727V1152H1172.28V1006.16Z" fill="#ED9E4A"/>
<path d="M1728 955.238C1520.64 949.018 1210.52 945.101 864 945.101C517.478 945.101 207.36 949.018 0 955.238V1006.16C207.36 1032.65 517.478 1049.7 864 1049.7C1210.52 1049.7 1520.64 1032.88 1728 1006.16V955.238Z" fill="#ED9E4A"/>
<mask id="mask0_660_64065" style="mask-type:luminance" maskUnits="userSpaceOnUse" x="0" y="945" width="1728" height="105">
<path d="M1728 955.238C1520.64 949.018 1210.52 945.101 864 945.101C517.478 945.101 207.36 949.018 0 955.238V1006.16C207.36 1032.65 517.478 1049.7 864 1049.7C1210.52 1049.7 1520.64 1032.88 1728 1006.16V955.238Z" fill="white"/>
</mask>
<g mask="url(#mask0_660_64065)">
<path d="M1757.03 971.136L1668.1 939.11" stroke="#714B2D" stroke-width="0.75" stroke-miterlimit="10"/>
<path d="M1757.03 1013.99L1573.4 939.11" stroke="#714B2D" stroke-width="0.75" stroke-miterlimit="10"/>
<path d="M1757.03 1069.98L1478.94 939.11" stroke="#714B2D" stroke-width="0.75" stroke-miterlimit="10"/>
<path d="M1384.24 939.11L1666.94 1096.47" stroke="#714B2D" stroke-width="0.75" stroke-miterlimit="10"/>
<path d="M1289.78 939.11L1521.1 1096.47" stroke="#714B2D" stroke-width="0.75" stroke-miterlimit="10"/>
<path d="M1195.09 939.11L1375.03 1096.47" stroke="#714B2D" stroke-width="0.75" stroke-miterlimit="10"/>
<path d="M1100.39 939.11L1228.95 1096.47" stroke="#714B2D" stroke-width="0.75" stroke-miterlimit="10"/>
<path d="M1005.93 939.11L1083.11 1096.47" stroke="#714B2D" stroke-width="0.75" stroke-miterlimit="10"/>
<path d="M911.23 939.11L937.035 1096.47" stroke="#714B2D" stroke-width="0.75" stroke-miterlimit="10"/>
<path d="M816.77 939.11L790.965 1096.47" stroke="#714B2D" stroke-width="0.75" stroke-miterlimit="10"/>
<path d="M722.075 939.11L644.891 1096.47" stroke="#714B2D" stroke-width="0.75" stroke-miterlimit="10"/>
<path d="M627.61 939.11L499.047 1096.47" stroke="#714B2D" stroke-width="0.75" stroke-miterlimit="10"/>
<path d="M532.915 939.11L352.973 1096.47" stroke="#714B2D" stroke-width="0.75" stroke-miterlimit="10"/>
<path d="M438.22 939.11L206.898 1096.47" stroke="#714B2D" stroke-width="0.75" stroke-miterlimit="10"/>
<path d="M343.755 939.11L61.0547 1096.47" stroke="#714B2D" stroke-width="0.75" stroke-miterlimit="10"/>
<path d="M0 1056.38L249.062 939.11" stroke="#714B2D" stroke-width="0.75" stroke-miterlimit="10"/>
<path d="M0 1002.24L154.598 939.11" stroke="#714B2D" stroke-width="0.75" stroke-miterlimit="10"/>
<path d="M0 960.768L59.904 939.11" stroke="#714B2D" stroke-width="0.75" stroke-miterlimit="10"/>
</g>
<path d="M1728 1006.16C1656.58 1015.6 1584.69 1022.98 1512.81 1028.97C1440.92 1034.73 1368.81 1038.87 1296.69 1042.33C1152.46 1049.01 1008.23 1052.24 864 1052.7C719.77 1052.24 575.309 1049.01 431.309 1042.33C359.194 1038.87 287.309 1034.5 215.194 1028.97C143.309 1022.98 71.424 1015.6 0 1006.16C71.6544 1015.14 143.309 1021.82 215.424 1027.35C287.309 1032.88 359.424 1037.03 431.539 1040.26C575.77 1046.71 720 1049.24 864.23 1049.47C1008.46 1049.47 1152.69 1046.71 1296.92 1040.26C1369.04 1037.03 1440.92 1032.88 1513.04 1027.35C1584.69 1021.82 1656.35 1015.14 1728 1006.16Z" fill="white"/>
<path d="M864 1023.9C1088.72 1023.9 1270.89 1009.25 1270.89 991.181C1270.89 973.112 1088.72 958.464 864 958.464C639.283 958.464 457.113 973.112 457.113 991.181C457.113 1009.25 639.283 1023.9 864 1023.9Z" fill="#F8D867"/>
<path d="M620.156 438.427L617.366 438.808C615.836 438.953 614.651 438.792 614.4 436.953L610.273 410.064C610.151 409.176 609.912 408.369 608.863 408.254C606.897 408.523 604.902 409.054 602.865 409.268C600.438 409.47 599.619 408.678 599.344 406.196C599.292 405.816 599.185 405.507 599.044 404.945C598.816 403.749 598.487 402.761 598.325 401.103C598.068 398.749 598.099 396.613 599.367 396.439L621.543 393.279C622.541 393.014 622.985 392.953 623.872 392.832L624.261 392.843C626.671 392.514 630.375 392.201 631.831 393.876L631.938 394.184C631.972 394.438 632.024 394.818 632.186 395.054C633.365 405.099 632.595 405.14 628.393 405.585L627.632 405.689L623.608 406.497L627.785 435.64C627.195 437.465 623.978 438.034 621.116 438.36L620.156 438.427Z" fill="white"/>
<path d="M643.088 392.157C643.234 389.436 652.083 389.667 653.609 389.496C654.189 389.495 654.592 389.643 654.776 390.138L654.812 390.456C654.933 391.537 655.84 394.462 656.625 408.349L666.031 407.23C665.988 406.849 665.944 405.308 665.972 404.983L664.535 389.301C664.436 388.411 666.322 388.006 667.022 387.928L672.682 387.293C672.682 387.293 672.746 387.286 673.008 387.321L674.181 387.447C675.171 387.658 675.617 388.767 675.978 389.692L676.163 390.187L676.384 392.159C676.67 395.282 677.345 399.006 679.848 428.801C679.942 430.207 679.299 430.794 678.197 431.304C677.583 431.567 675.554 431.858 673.519 432.087C672.056 432.251 671.477 432.251 670.516 432.295C669.046 432.395 668.374 432.148 668.076 430.636C668.033 430.254 667.841 429.117 667.677 428.234C667.535 427.541 667.457 426.841 667.436 426.651L667.329 425.697C667.207 424.615 667.108 423.725 667.064 422.764C666.95 421.746 666.821 420.022 666.714 419.068C665.442 419.21 664.05 419.431 663.11 419.665C661.725 419.949 660.086 420.262 658.998 420.319L658.121 420.547C658.279 423.105 659.538 430.885 659.462 432.504L659.455 432.44C659.343 433.161 658.997 433.522 658.439 433.713L658.502 433.706C654.807 434.636 652.673 435.133 649.097 435.405C648.666 435.582 648.419 435.674 648.101 435.71C647.21 435.809 647.118 434.983 647.018 434.092L647.011 434.029C646.975 433.711 646.675 431.039 643.088 392.157Z" fill="white"/>
<path d="M694.052 429.434C693.026 429.462 690.083 428.89 690.061 427.928C689.787 424.869 687.212 403.316 686.424 393.106C686.277 390.742 686.07 389.154 686.108 386.709C686.498 384.617 695.856 384.356 707.499 383.055C710.617 382.711 711.242 383.234 712.306 385.066L712.3 385.002L712.612 385.617C712.785 386.115 713.033 387.443 713.204 389.355C713.399 391.522 712.504 393.723 711.756 393.983C711.321 394.15 709.229 394.466 709.038 394.484L700.218 395.017L699.47 395.277C699.753 401.292 700.263 401.246 700.709 401.206C702.175 401.075 703.305 400.781 704.453 400.678L705.09 400.621C705.467 400.523 705.849 400.488 706.168 400.46C709.106 400.261 709.816 402.446 709.958 404.746C710.078 406.085 710.071 407.435 710.099 408.461L710.144 408.971C710.299 410.692 709.168 410.986 707.899 411.164L701.705 411.591C700.777 411.995 701.082 413.96 701.185 415.107L701.219 415.49C701.259 415.936 701.339 416.829 702.231 416.749L712.877 415.794C713.068 415.777 715.432 415.629 715.662 417.472C715.702 417.918 716.202 421.343 716.466 422.861L716.735 425.857C716.328 427.051 713.447 427.887 712.427 427.979L712.172 428.002C712.306 428.054 706.858 428.928 694.052 429.434Z" fill="white"/>
<path d="M747.618 425.229L747.554 425.232C746.133 411.274 745.676 393.928 745.381 382.92C745.342 382.217 745.367 381.51 745.327 380.807C745.238 380.364 747.848 380.026 752.512 379.765L756.155 379.561C762.161 379.226 769.993 379.429 773.91 384.146C776.453 387.208 777.2 391.397 777.869 395.334C779.29 410.446 775.055 420.683 761.552 424.514C760.348 424.774 759.337 425.023 757.867 425.105L750.966 425.49C750.071 425.54 748.85 425.48 747.618 425.229ZM759.14 411.188L759.475 413.733C759.667 413.722 760.366 413.619 760.494 413.612C764.186 413.149 766.001 406.638 765.672 400.759C765.358 395.136 763.212 390 759.25 390.221C758.995 390.235 757.983 390.484 758.026 391.251L759.14 411.188Z" fill="white"/>
<path d="M788.71 406.96C788.539 405.492 788.434 404.087 788.392 402.679C787.936 387.198 794.884 377.453 812.349 376.939C824.951 376.567 831.24 381.376 831.688 396.602C832.255 415.858 821.245 422.457 807.875 422.85C798.343 423.131 789.923 417.681 788.71 406.96ZM801.049 399.809L801.053 399.937C801.26 404.797 802.497 409.819 809.865 409.986C815.248 410.148 819.485 406.181 819.255 398.377C819.072 392.171 816.222 388.862 810.72 389.024C803.683 389.231 800.885 394.244 801.049 399.809Z" fill="white"/>
<path d="M850.55 422.199C849.782 422.201 849.59 422.329 847.926 422.333C845.174 422.34 842.166 422.028 842.033 420.044L841.81 382.221C841.803 379.469 840.58 376.528 846.276 376.513C847.94 376.509 848.196 376.573 848.708 376.571L849.028 376.571C850.436 376.567 853.06 376.624 853.767 377.711L864.182 396.437L864.138 379.157C864.324 376.532 867.332 376.525 870.532 376.517L870.98 376.516C875.78 376.504 876.105 378.487 876.109 380.151L876.27 419.063C876.084 421.367 874.805 421.946 873.205 421.95C870.965 421.956 870.069 421.83 867.701 421.836L866.357 421.839C865.717 421.841 864.498 420.756 864.305 420.18L854.074 397.998C854.766 419.18 854.198 422.254 852.47 422.258L851.958 422.259C851.83 422.26 851.638 422.196 851.446 422.197L850.55 422.199Z" fill="white"/>
<path d="M886.172 405.536C886.08 404.062 886.051 402.653 886.085 401.245C886.464 385.762 893.927 376.405 911.393 376.832C923.998 377.141 930.018 382.281 929.646 397.509C929.175 416.767 917.825 422.763 904.453 422.436C894.92 422.203 886.805 416.307 886.172 405.536ZM898.878 399.061L898.875 399.189C898.82 404.053 899.784 409.134 907.133 409.698C912.499 410.149 916.944 406.417 917.135 398.611C917.287 392.405 914.618 388.947 909.116 388.812C902.078 388.64 899.014 393.495 898.878 399.061Z" fill="white"/>
<path d="M954.016 423.986L954.144 423.993C952.57 423.46 950.423 419.245 949.029 414.107C943.694 393.892 942.426 386.39 941.267 382.868C940.773 381.303 940.615 380.654 940.632 380.335C940.704 378.993 942.5 378.96 945.631 379.126L948.827 379.296C955.09 379.628 955.543 381.96 956.409 386.172C956.718 387.598 955.927 388.005 958.549 406.217C961.465 399.579 963.014 389.727 965.344 384.467C966.869 381.087 969.823 380.988 973.338 381.174L975.639 381.296C978.962 381.473 981.071 381.585 981.124 382.998L978.397 388.493C975.74 393.863 974.187 398.972 966.008 416.611C965.934 416.8 965.863 416.924 965.863 416.924C964.793 418.982 961.87 424.531 959.058 424.382L958.611 424.358C958.228 424.338 957.585 424.368 956.818 424.327C955.987 424.283 954.968 424.165 954.016 423.986Z" fill="white"/>
<path d="M994.012 426.613C993.438 426.568 988.074 426.208 988.24 424.102C988.351 422.699 990.098 413.592 996.767 386.899C997.872 384.29 1000.33 382.429 1007.3 382.724C1016.78 383.088 1018.93 385.056 1019.85 391.292L1022.36 425.387C1022.35 425.515 1022.27 425.637 1022.26 425.765C1021.96 427.153 1021.56 428.983 1016.71 428.6C1015.31 428.489 1009.76 428.05 1009.72 426.057L1009.49 419.234C1009.52 418.08 1007.17 417.766 1005.57 417.64L1005.19 417.61C1003.91 417.509 1002.89 417.428 1002.76 418.316L1002.11 424.043C1001.97 424.995 1001.69 426.129 1000.83 426.51L1000.89 426.515C998.665 427.045 997.762 427.102 995.592 426.93C995.342 426.847 994.331 426.638 994.012 426.613ZM1005.47 396.125L1003.62 408.241L1008.91 408.659C1009.07 402.637 1009.02 399.23 1008.68 395.416L1008.67 395.479C1008.62 395.283 1008.47 394.821 1008.35 394.62L1008.42 394.625C1008.42 394.625 1008.22 393.839 1007.65 393.794C1007.14 393.753 1006.15 394.06 1005.85 394.678L1005.85 394.614C1005.72 394.604 1005.49 395.87 1005.47 396.125Z" fill="white"/>
<path d="M1039.45 430.773C1038.69 430.694 1038.49 430.802 1036.83 430.631C1034.09 430.347 1031.14 429.72 1031.21 427.733L1034.98 390.097C1035.26 387.359 1034.35 384.306 1040.02 384.892C1041.67 385.063 1041.92 385.153 1042.43 385.206L1042.75 385.238C1044.15 385.383 1046.75 385.717 1047.34 386.872L1055.72 406.591L1057.5 389.402C1057.96 386.812 1060.96 387.121 1064.14 387.451L1064.58 387.497C1069.36 387.991 1069.47 389.997 1069.3 391.652L1065.36 430.364C1064.93 432.636 1063.6 433.078 1062.01 432.913C1059.78 432.682 1058.9 432.463 1056.55 432.219L1055.21 432.081C1054.58 432.015 1053.48 430.808 1053.35 430.215L1045.51 407.078C1043.97 428.216 1043.08 431.212 1041.36 431.034L1040.85 430.982C1040.72 430.969 1040.54 430.885 1040.35 430.865L1039.45 430.773Z" fill="white"/>
<path d="M1088.2 390.795C1087.64 392.231 1086.96 393.782 1086.16 395.448C1085.35 397.113 1084.49 398.77 1083.56 400.42C1082.68 402.033 1081.8 403.561 1080.94 405.004L1076.81 404.506C1077.25 403.356 1077.7 402.121 1078.16 400.801C1078.66 399.486 1079.12 398.167 1079.54 396.842C1080.01 395.48 1080.42 394.155 1080.79 392.867C1081.21 391.585 1081.56 390.403 1081.87 389.322L1087.84 390.042L1088.2 390.795Z" fill="white"/>
<path d="M1124.91 426.989C1123.14 438.502 1114.64 440.178 1107.22 439.16C1102.15 438.464 1097.51 436.471 1095.75 435.648L1095.03 435.29L1095.14 435.371C1095.08 435.362 1095.03 435.29 1094.96 435.281C1093.72 434.465 1091.82 433.235 1091.99 432.03C1092.18 430.635 1092.08 429.459 1092.25 428.191C1092.9 423.499 1094.4 420.54 1095.48 420.688C1095.54 420.697 1095.6 420.769 1095.66 420.778L1095.6 420.769C1097.15 421.24 1104.57 425.553 1108.37 426.075C1109.64 426.249 1110.52 425.918 1110.64 425.094C1110.79 423.953 1110.36 423.376 1108.87 422.913C1104.54 421.543 1097.85 418.946 1096.07 413.082C1095.63 411.6 1096 407.968 1096.23 406.257C1097.95 393.766 1106.56 392.686 1115.44 393.905C1118.61 394.34 1126.32 395.528 1128.13 398.876C1128.42 399.562 1128.52 400.739 1128.3 402.324C1127.8 405.938 1126.3 409.802 1125.43 410.069C1124.96 410.135 1124.45 410.129 1123.81 410.042C1120.71 409.615 1113.5 407.528 1110.71 407.145C1109.63 406.997 1108.96 407.164 1108.87 407.861C1108.5 410.524 1112.36 411.635 1115.16 412.407C1123.24 414.679 1126.09 418.429 1124.91 426.989Z" fill="white"/>
<path d="M664.101 517.75L662.832 517.919C661.888 518.109 661.199 518.265 660.501 518.358C654.538 519.15 654.146 515.716 653.75 512.734L653.547 511.211C653.265 509.57 652.881 507.168 652.51 504.376C651.287 495.177 650.087 483.716 649.923 481.994L649.872 481.614C649.855 481.487 649.902 481.351 649.885 481.224C649.624 478.289 649.372 475.417 652.21 473.943C652.921 473.461 654.245 473.22 655.378 473.005L661.469 472.196C671.366 470.881 681.199 470.542 683.079 484.69C684.714 496.998 678.31 501.271 667.122 503.08C666.361 503.181 666.429 503.689 666.488 504.133C666.626 505.664 667.382 509.889 667.508 510.841C668.022 514.711 667.662 517.341 664.101 517.75ZM670.259 486.846C669.956 484.562 668.629 482.349 666.708 482.475C663.765 482.673 662.647 485.92 663.018 488.712C663.355 491.249 665.063 493.411 667.431 492.774C669.652 492.479 670.605 489.447 670.259 486.846Z" fill="white"/>
<path d="M695.345 502.39C692.316 472.075 691.624 470.477 694.621 469.051C695.491 468.762 697.717 468.516 701.032 468.214C703.584 467.996 703.675 468.823 704.055 471.679C704.689 476.245 705.475 486.267 708.304 507.203C708.881 511.26 708.344 511.641 704.591 512.056C702.937 512.239 702.739 512.197 701.142 512.309C698.018 512.59 696.533 513.72 695.85 508.708C695.554 506.616 695.478 504.178 695.345 502.39Z" fill="white"/>
<path d="M724.569 510.611C723.995 510.661 718.646 511.196 718.461 509.092C718.337 507.69 718.55 498.419 720.698 470.99C721.355 468.233 723.471 465.991 730.398 465.125C739.8 463.913 742.252 465.496 744.193 471.493L752.318 504.701C752.329 504.828 752.277 504.961 752.288 505.089C752.22 506.508 752.128 508.379 747.282 508.806C745.88 508.929 740.333 509.417 739.968 507.457L738.608 500.767C738.444 499.625 736.074 499.705 734.48 499.845L734.097 499.879C732.822 499.991 731.802 500.08 731.817 500.979L732.13 506.733C732.151 507.695 732.06 508.86 731.271 509.379L731.335 509.373C729.229 510.265 728.347 510.471 726.18 510.662C725.919 510.621 724.888 510.583 724.569 510.611ZM730.816 478.644L730.995 490.9L736.286 490.434C735.44 484.47 734.824 481.119 733.856 477.413L733.861 477.477C733.781 477.291 733.55 476.862 733.406 476.682L733.47 476.676C733.47 476.676 733.148 475.934 732.574 475.984C732.064 476.029 731.141 476.496 730.942 477.156L730.936 477.092C730.809 477.103 730.794 478.389 730.816 478.644Z" fill="white"/>
<path d="M770.037 507.248C769.27 507.293 769.086 507.432 767.425 507.529C764.677 507.689 761.656 507.545 761.412 505.571L759.082 467.819C758.922 465.072 757.536 462.203 763.223 461.872C764.884 461.775 765.143 461.824 765.654 461.794L765.974 461.775C767.379 461.693 770.003 461.605 770.769 462.65L782.211 480.766L781.205 463.515C781.244 460.885 784.247 460.71 787.441 460.523L787.889 460.497C792.68 460.218 793.115 462.18 793.212 463.841L795.542 502.683C795.485 504.994 794.24 505.644 792.643 505.737C790.407 505.867 789.505 505.792 787.141 505.93L785.799 506.008C785.16 506.045 783.883 505.03 783.658 504.466L772.206 482.888C774.078 503.999 773.682 507.099 771.957 507.2L771.446 507.23C771.318 507.237 771.123 507.185 770.931 507.196L770.037 507.248Z" fill="white"/>
<path d="M804.73 488.638C804.564 487.17 804.465 485.764 804.429 484.357C804.035 468.874 811.023 459.157 828.489 458.713C841.093 458.393 847.362 463.227 847.749 478.454C848.238 497.712 837.201 504.266 823.83 504.606C814.297 504.849 805.899 499.364 804.73 488.638ZM817.097 481.538L817.101 481.666C817.288 486.527 818.504 491.553 825.872 491.75C831.254 491.934 835.507 487.984 835.309 480.179C835.151 473.973 832.314 470.652 826.812 470.792C819.774 470.97 816.956 475.972 817.097 481.538Z" fill="white"/>
<path d="M892.614 489.273L892.313 502.709C891.321 504.159 889.774 504.637 887.086 504.577C883.055 504.487 878.902 504.138 878.952 501.898L878.958 501.642C878.83 501.639 879.061 497.036 879.534 461.581C880.282 459.613 885.214 459.468 890.653 459.589L898.779 459.771C905.945 459.931 912.825 461.429 912.602 471.411C912.452 478.129 908.644 482.397 902.707 484.505C903.527 485.035 914.177 498.333 915.106 502.579L915.103 502.707C915.093 503.155 914.243 503.968 912.253 504.179C910.846 504.148 903.874 503.864 902.342 503.702C901.191 503.612 900.52 502.125 892.614 489.273ZM891.814 476.387C891.779 477.923 892.533 478.58 894.068 478.614C897.14 478.683 898.312 474.932 898.362 472.693L898.385 471.669C898.099 470.126 896.71 469.263 895.303 469.232C894.471 469.213 892.544 469.49 892.069 470.696C892.042 471.911 891.847 474.916 891.831 475.62L891.814 476.387Z" fill="white"/>
<path d="M925.435 488.699C925.389 487.222 925.404 485.813 925.483 484.407C926.348 468.943 934.102 459.826 951.546 460.802C964.135 461.507 969.99 466.834 969.139 482.042C968.063 501.276 956.53 506.913 943.175 506.165C933.654 505.633 925.729 499.484 925.435 488.699ZM938.338 482.626L938.331 482.754C938.123 487.614 938.927 492.723 946.254 493.518C951.604 494.138 956.164 490.547 956.6 482.751C956.947 476.553 954.389 473.012 948.893 472.705C941.864 472.311 938.65 477.067 938.338 482.626Z" fill="white"/>
<path d="M978.666 491.849C978.673 490.372 978.739 488.964 978.868 487.562C980.288 472.139 988.363 463.306 1005.76 464.908C1018.32 466.064 1023.98 471.598 1022.58 486.766C1020.81 505.949 1009.09 511.168 995.767 509.941C986.271 509.067 978.572 502.638 978.666 491.849ZM991.779 486.244L991.767 486.371C991.385 491.221 992.005 496.355 999.299 497.412C1004.62 498.224 1009.31 494.799 1010.02 487.024C1010.59 480.842 1008.16 477.212 1002.68 476.707C995.673 476.062 992.289 480.699 991.779 486.244Z" fill="white"/>
<path d="M1029.83 510.334L1035.49 469.893C1036.1 467.133 1038.26 467.411 1038.83 467.484C1046.83 468.514 1046.98 468.856 1048.05 471.511L1048.26 471.925L1054.87 485.23C1058.95 481.109 1063.87 475.936 1068.02 471.823C1068.57 471.508 1069.84 471.671 1070.8 471.794L1074.22 472.235C1075.47 472.589 1076.84 473.991 1076.84 475.476L1074.48 511.308C1074.42 511.816 1074.5 512.666 1074.48 512.856C1073.77 518.379 1071.13 518.813 1067.26 518.315C1065.86 518.135 1066.13 518.041 1064.29 517.804C1063.34 517.681 1061.84 516.779 1062.21 510.953C1063.27 494.184 1063.83 493.805 1063.84 490.709C1062.23 492.695 1055.07 503.258 1052.78 502.964L1052.46 502.923C1049.61 502.556 1046.93 494.274 1044.72 489.924C1043.92 496.081 1043.58 505.264 1043.03 509.517L1042.83 511.104C1042.57 513.072 1042.03 515.261 1040.26 515.032L1030.35 513.757C1029.53 513.651 1029.74 511.032 1029.83 510.334Z" fill="white"/>
<path d="M1272.27 957.312C1272.27 975.514 1090.02 990.029 865.383 990.029C640.743 990.029 458.496 975.283 458.496 957.312L637.517 57.6H1093.25L1272.27 957.312Z" fill="url(#paint0_linear_660_64065)"/>
<g opacity="0.7">
<path d="M951.323 457.114C954.122 457.114 956.391 454.844 956.391 452.045C956.391 449.245 954.122 446.976 951.323 446.976C948.523 446.976 946.254 449.245 946.254 452.045C946.254 454.844 948.523 457.114 951.323 457.114Z" fill="white"/>
<path d="M615.398 649.267C615.398 652.493 618.163 655.258 621.389 655.258C624.614 655.258 627.379 652.493 627.379 649.267C627.379 646.042 624.614 643.277 621.389 643.277C617.933 643.277 615.398 646.042 615.398 649.267Z" fill="white"/>
<path d="M553.422 797.184C553.422 800.64 556.187 803.174 559.412 803.174C562.638 803.174 565.403 800.41 565.403 797.184C565.403 793.728 562.638 791.194 559.412 791.194C556.187 791.194 553.422 793.958 553.422 797.184Z" fill="white"/>
<path d="M743.961 766.541C743.961 769.536 746.495 772.07 749.491 772.07C752.486 772.07 755.02 769.536 755.02 766.541C755.02 763.545 752.486 761.011 749.491 761.011C746.265 761.242 743.961 763.545 743.961 766.541Z" fill="white"/>
<path d="M741.427 555.264C745.881 555.264 749.491 551.654 749.491 547.2C749.491 542.746 745.881 539.136 741.427 539.136C736.974 539.136 733.363 542.746 733.363 547.2C733.363 551.654 736.974 555.264 741.427 555.264Z" fill="white"/>
<path d="M908.927 861.235C913.381 861.235 916.991 857.625 916.991 853.171C916.991 848.718 913.381 845.107 908.927 845.107C904.474 845.107 900.863 848.718 900.863 853.171C900.863 857.625 904.474 861.235 908.927 861.235Z" fill="white"/>
<path d="M1103.85 579.456C1109.19 579.456 1113.53 575.123 1113.53 569.779C1113.53 564.435 1109.19 560.102 1103.85 560.102C1098.5 560.102 1094.17 564.435 1094.17 569.779C1094.17 575.123 1098.5 579.456 1103.85 579.456Z" fill="white"/>
<path d="M802.946 342.835C808.291 342.835 812.623 338.503 812.623 333.158C812.623 327.814 808.291 323.482 802.946 323.482C797.602 323.482 793.27 327.814 793.27 333.158C793.27 338.503 797.602 342.835 802.946 342.835Z" fill="white"/>
<path d="M1068.14 367.258C1068.14 370.483 1070.67 373.018 1073.9 373.018C1077.12 373.018 1079.66 370.483 1079.66 367.258C1079.66 364.032 1077.12 361.498 1073.9 361.498C1070.67 361.498 1068.14 364.032 1068.14 367.258Z" fill="white"/>
<path d="M1032.88 685.67C1032.88 689.587 1035.88 692.582 1039.79 692.582C1043.71 692.582 1046.71 689.587 1046.71 685.67C1046.71 681.754 1043.71 678.758 1039.79 678.758C1035.88 678.758 1032.88 681.754 1032.88 685.67Z" fill="white"/>
<path d="M902.016 636.365C902.016 640.282 905.011 643.277 908.928 643.277C912.844 643.277 915.84 640.282 915.84 636.365C915.84 632.448 912.844 629.453 908.928 629.453C905.011 629.453 902.016 632.448 902.016 636.365Z" fill="white"/>
<path d="M1170.2 788.198C1169.05 788.198 1168.13 788.429 1167.21 788.89C1168.13 787.968 1168.59 786.586 1168.59 785.203C1168.59 782.208 1166.06 779.674 1163.06 779.674C1160.07 779.674 1157.53 782.208 1157.53 785.203C1157.53 788.198 1160.07 790.733 1163.06 790.733C1163.75 790.733 1164.44 790.502 1165.13 790.272C1163.98 791.654 1163.06 793.267 1163.06 795.11C1163.06 799.027 1166.29 802.253 1170.2 802.253C1174.12 802.253 1177.35 799.027 1177.35 795.11C1177.35 791.194 1174.12 788.198 1170.2 788.198Z" fill="white"/>
<path d="M662.86 437.299C664.473 437.299 665.855 437.53 667.007 438.221C665.855 436.838 664.934 434.995 664.934 432.922C664.934 428.544 668.62 424.858 672.998 424.858C677.375 424.858 681.062 428.544 681.062 432.922C681.062 437.299 677.375 440.986 672.998 440.986C672.076 440.986 670.924 440.755 670.233 440.525C672.076 442.368 672.998 444.902 672.998 447.667C672.998 453.427 668.39 457.805 662.86 457.805C657.1 457.805 652.723 453.197 652.723 447.667C652.723 441.907 657.331 437.299 662.86 437.299Z" fill="white"/>
</g>
<path d="M261.734 974.822C263.578 973.67 265.19 972.749 267.264 971.827C269.107 970.906 271.181 970.214 273.254 969.754C277.402 968.602 281.549 968.371 285.696 968.371C289.843 968.602 293.99 969.062 298.138 970.214C300.211 970.906 302.054 971.827 303.898 972.518C305.741 973.44 307.584 974.592 309.197 975.514C305.51 974.131 301.594 972.288 297.677 971.366C293.76 970.445 289.613 969.984 285.466 969.984C281.318 969.984 277.402 969.984 273.254 970.906C269.338 971.597 265.421 973.21 261.734 974.822Z" fill="#7C2712"/>
<path d="M174.645 974.362C176.257 973.21 177.87 972.518 179.713 971.597C181.557 970.906 183.4 970.214 185.243 969.754C188.929 968.832 192.846 968.371 196.763 968.371C200.68 968.371 204.597 968.832 208.283 969.754C210.126 970.214 211.969 970.906 213.813 971.827C215.656 972.749 217.269 973.67 218.881 974.592C215.425 973.21 211.739 971.827 208.053 971.136C204.366 970.445 200.449 970.214 196.763 970.214C193.077 970.214 189.16 970.445 185.473 971.136C181.787 971.597 178.101 972.979 174.645 974.362Z" fill="#7C2712"/>
<path d="M174.645 974.362C180.174 972.058 186.165 969.754 197.224 969.754C218.881 969.754 218.881 978.97 240.769 978.97C262.427 978.97 262.427 969.754 284.315 969.754C305.973 969.754 305.973 978.97 327.861 978.97C332.699 978.97 343.067 977.587 348.827 971.597C334.312 663.322 238.005 532.685 238.005 532.685C448.129 478.08 491.214 176.026 493.749 159.667H174.645V974.362Z" fill="#EA4C0C"/>
<mask id="mask1_660_64065" style="mask-type:luminance" maskUnits="userSpaceOnUse" x="174" y="159" width="320" height="820">
<path d="M174.645 974.362C180.174 972.058 186.165 969.754 197.224 969.754C218.881 969.754 218.881 978.97 240.769 978.97C262.427 978.97 262.427 969.754 284.315 969.754C305.973 969.754 305.973 978.97 327.861 978.97C332.699 978.97 343.067 977.587 348.827 971.597C334.312 663.322 238.005 532.685 238.005 532.685C448.129 478.08 491.214 176.026 493.749 159.667H174.645V974.362Z" fill="white"/>
</mask>
<g mask="url(#mask1_660_64065)">
<path d="M173.492 951.782C179.022 949.478 185.243 947.174 196.302 947.174C218.42 947.174 218.42 956.39 240.308 956.39C262.427 956.39 262.427 947.174 284.315 947.174C306.433 947.174 306.433 956.39 328.321 956.39C333.159 956.39 343.758 955.008 349.518 949.018" stroke="#ED9E4A" stroke-width="1.5" stroke-miterlimit="10"/>
</g>
<mask id="mask2_660_64065" style="mask-type:luminance" maskUnits="userSpaceOnUse" x="174" y="159" width="320" height="820">
<path d="M174.645 974.362C180.174 972.058 186.165 969.754 197.224 969.754C218.881 969.754 218.881 978.97 240.769 978.97C262.427 978.97 262.427 969.754 284.315 969.754C305.973 969.754 305.973 978.97 327.861 978.97C332.699 978.97 343.067 977.587 348.827 971.597C334.312 663.322 238.005 532.685 238.005 532.685C448.129 478.08 491.214 176.026 493.749 159.667H174.645V974.362Z" fill="white"/>
</mask>
<g mask="url(#mask2_660_64065)">
<path d="M419.1 217.267C416.566 248.371 409.884 279.245 399.977 308.967C397.673 316.57 394.678 323.712 391.913 331.085C389.148 338.458 385.692 345.6 382.467 352.743C375.785 367.027 368.412 380.851 360.348 394.215L357.353 399.283L354.127 404.122L347.676 413.799L344.451 418.637C343.299 420.25 342.147 421.863 340.995 423.475L333.852 432.922C329.244 439.373 323.945 445.133 318.876 451.123C316.342 454.119 313.807 457.114 311.273 460.109L303.209 468.634C281.551 491.213 257.359 511.488 231.094 528.538C254.825 508.493 277.404 487.066 297.91 463.795L305.513 455.04C308.047 452.045 310.351 449.05 312.886 446.055C317.724 440.064 322.563 434.074 326.94 427.853C336.156 415.411 344.681 402.739 352.745 389.607C360.809 376.474 368.182 362.88 375.094 349.056C378.319 342.144 382.006 335.232 384.771 328.09C387.766 320.947 390.991 314.035 393.526 306.663C404.124 277.632 412.649 247.68 419.1 217.267Z" fill="#C2370C"/>
<path d="M226.486 197.222C232.246 224.179 234.09 251.827 233.398 279.475C233.398 282.931 233.398 286.387 233.168 289.843L232.477 300.211C232.016 307.123 231.325 314.035 230.634 320.947C229.942 327.859 228.79 334.541 227.869 341.453C226.947 348.365 225.565 355.046 224.182 361.958C223.03 368.87 221.187 375.552 219.805 382.234C218.422 388.915 216.579 395.597 214.736 402.278C213.814 405.504 212.893 408.96 211.971 412.186L208.746 422.093L205.52 432L202.064 441.677C192.618 467.712 181.328 492.826 167.965 516.787C177.872 491.213 187.318 465.408 195.382 439.373L198.378 429.696L201.142 419.789L203.907 409.882C204.829 406.656 205.52 403.2 206.442 399.974C208.054 393.293 209.898 386.842 211.28 380.16C212.662 373.478 214.275 366.797 215.427 360.115C216.81 353.434 218.192 346.752 219.114 340.07C220.266 333.389 221.418 326.707 222.109 319.795C223.03 313.114 223.952 306.202 224.643 299.52C225.334 292.838 226.026 285.926 226.486 279.245C228.33 251.827 228.56 224.64 226.486 197.222Z" fill="#C2370C"/>
<path d="M313.348 188.006C314.039 203.213 313.809 218.65 313.118 233.856C312.196 249.062 311.044 264.269 309.201 279.475C307.358 294.682 304.823 309.888 302.058 324.864C299.063 339.84 295.377 354.816 291.23 369.562C287.082 384.307 282.014 398.822 276.254 413.107C273.489 420.25 270.263 427.162 267.038 434.304L261.969 444.672C260.356 448.128 258.282 451.354 256.439 454.81C241.463 481.536 221.418 506.189 196.535 523.93C218.884 503.194 236.394 478.08 249.988 451.354C253.444 444.672 256.439 437.76 259.665 431.079C262.66 424.167 265.655 417.254 268.19 410.112C270.954 403.2 273.258 395.827 275.793 388.915C278.097 381.773 280.401 374.63 282.474 367.258C286.622 352.742 290.308 337.997 293.534 323.251C296.759 308.506 299.524 293.53 302.289 278.554C304.823 263.578 307.127 248.602 308.97 233.395C310.353 218.419 311.966 203.213 313.348 188.006Z" fill="#C2370C"/>
<path d="M280.398 944.41C277.633 909.158 274.638 873.907 271.643 838.656C270.03 821.146 268.417 803.405 266.574 785.895C264.731 768.384 262.888 750.874 260.584 733.363C258.51 715.853 256.206 698.343 253.441 681.063C250.907 663.552 247.912 646.272 244.456 628.992C242.843 620.237 240.769 611.712 238.926 603.187L235.931 590.285L232.475 577.613C227.637 560.794 222.107 543.975 214.043 528.077C223.72 542.823 230.632 559.411 236.622 576.231C242.613 593.05 247.221 610.099 251.368 627.379C259.662 661.939 264.961 696.96 269.569 732.211C273.717 767.462 276.712 802.714 278.555 837.965C280.629 873.677 281.55 908.928 280.398 944.41Z" fill="#C2370C"/>
<path d="M212.661 939.571C210.818 905.242 209.666 870.912 208.284 836.583L204.367 733.594L203.445 707.789L202.293 681.984C202.063 673.459 201.602 664.934 201.141 656.179C200.681 647.654 200.22 639.13 199.759 630.605C197.685 596.275 195.612 562.176 190.773 528.077C199.298 561.485 203.676 595.815 206.901 630.144C207.823 638.669 208.514 647.194 209.205 655.949C209.897 664.474 210.588 672.998 211.049 681.754L212.431 707.559L213.583 733.363C214.044 741.888 214.044 750.643 214.274 759.168C214.505 767.693 214.735 776.448 214.965 784.973C215.196 802.253 215.426 819.303 215.426 836.583C215.196 870.682 214.505 905.242 212.661 939.571Z" fill="#C2370C"/>
</g>
<mask id="mask3_660_64065" style="mask-type:luminance" maskUnits="userSpaceOnUse" x="174" y="159" width="320" height="820">
<path d="M174.645 974.362C180.174 972.058 186.165 969.754 197.224 969.754C218.881 969.754 218.881 978.97 240.769 978.97C262.427 978.97 262.427 969.754 284.315 969.754C305.973 969.754 305.973 978.97 327.861 978.97C332.699 978.97 343.067 977.587 348.827 971.597C334.312 663.322 238.005 532.685 238.005 532.685C448.129 478.08 491.214 176.026 493.749 159.667H174.645V974.362Z" fill="white"/>
</mask>
<g mask="url(#mask3_660_64065)">
<path d="M570.933 164.966C523.701 272.794 378.088 414.95 174.645 318.874V164.966H570.933Z" fill="#C2370C"/>
</g>
<path d="M236.391 545.818C179.482 537.754 146.535 519.782 144.922 519.091L150.451 509.875L155.981 500.659C156.211 500.659 163.354 504.576 176.256 509.414C188.007 521.856 207.821 537.984 236.391 545.818Z" fill="#DA6A1C"/>
<path d="M254.594 528.077L252.52 534.758L248.373 547.2C244.226 546.739 240.309 546.278 236.623 545.587C208.053 537.754 188.008 521.395 176.258 509.184C188.239 513.562 204.827 519.091 225.333 523.238C234.319 525.312 244.226 526.925 254.594 528.077Z" fill="#ED9E4A"/>
<path d="M1466.27 974.822C1462.35 973.901 1458.43 972.518 1454.52 972.058C1450.6 971.597 1446.68 971.366 1442.54 971.366C1438.62 971.366 1434.47 971.827 1430.79 972.518C1428.94 972.979 1426.87 973.44 1425.03 974.131C1422.95 974.592 1421.11 975.283 1419.04 975.744C1422.72 974.131 1426.41 972.288 1430.56 971.366C1434.47 970.214 1438.62 969.754 1442.77 969.754C1446.91 969.754 1451.06 969.984 1454.98 970.906C1458.66 971.597 1462.58 973.21 1466.27 974.822Z" fill="#7C2712"/>
<path d="M1553.36 974.362C1551.51 973.901 1549.67 973.44 1547.83 972.979C1545.99 972.518 1544.14 972.288 1542.3 972.058C1538.61 971.597 1534.93 971.366 1531.24 971.366C1527.55 971.136 1523.87 971.597 1520.18 972.058C1516.49 972.518 1512.81 973.67 1509.12 974.592C1512.58 972.979 1516.26 971.597 1519.95 970.906C1523.64 970.214 1527.55 969.754 1531.24 969.754C1535.16 969.754 1538.84 970.214 1542.53 970.906C1546.22 971.597 1549.9 972.979 1553.36 974.362Z" fill="#7C2712"/>
<path d="M1553.36 974.362C1547.83 972.058 1541.84 969.754 1530.78 969.754C1509.12 969.754 1509.12 978.97 1487.23 978.97C1465.58 978.97 1465.58 969.754 1443.69 969.754C1422.03 969.754 1422.03 978.97 1400.14 978.97C1395.3 978.97 1384.94 977.587 1379.18 971.597C1393.69 663.322 1490 532.685 1490 532.685C1279.87 478.08 1236.79 176.026 1234.25 159.667H1553.13V974.362H1553.36Z" fill="#EA4C0C"/>
<mask id="mask4_660_64065" style="mask-type:luminance" maskUnits="userSpaceOnUse" x="1234" y="159" width="320" height="820">
<path d="M1553.36 974.362C1547.83 972.058 1541.84 969.754 1530.78 969.754C1509.12 969.754 1509.12 978.97 1487.23 978.97C1465.58 978.97 1465.58 969.754 1443.69 969.754C1422.03 969.754 1422.03 978.97 1400.14 978.97C1395.3 978.97 1384.94 977.587 1379.18 971.597C1393.69 663.322 1490 532.685 1490 532.685C1279.87 478.08 1236.79 176.026 1234.25 159.667H1553.13V974.362H1553.36Z" fill="white"/>
</mask>
<g mask="url(#mask4_660_64065)">
<path d="M1554.51 951.782C1548.98 949.478 1542.76 947.174 1531.7 947.174C1509.58 947.174 1509.58 956.39 1487.69 956.39C1465.58 956.39 1465.58 947.174 1443.69 947.174C1421.57 947.174 1421.57 956.39 1399.68 956.39C1394.84 956.39 1384.24 955.008 1378.48 949.018" stroke="#ED9E4A" stroke-width="1.5" stroke-miterlimit="10"/>
</g>
<mask id="mask5_660_64065" style="mask-type:luminance" maskUnits="userSpaceOnUse" x="1234" y="159" width="320" height="820">
<path d="M1553.36 974.362C1547.83 972.058 1541.84 969.754 1530.78 969.754C1509.12 969.754 1509.12 978.97 1487.23 978.97C1465.58 978.97 1465.58 969.754 1443.69 969.754C1422.03 969.754 1422.03 978.97 1400.14 978.97C1395.3 978.97 1384.94 977.587 1379.18 971.597C1393.69 663.322 1490 532.685 1490 532.685C1279.87 478.08 1236.79 176.026 1234.25 159.667H1553.13V974.362H1553.36Z" fill="white"/>
</mask>
<g mask="url(#mask5_660_64065)">
<path d="M1308.9 217.267C1315.12 247.911 1323.65 277.632 1334.71 306.432C1337.24 313.805 1340.47 320.717 1343.46 327.859C1346.23 335.002 1349.91 341.914 1353.14 348.826C1359.82 362.65 1367.19 376.243 1375.49 389.376C1383.55 402.509 1392.08 415.411 1401.29 427.623C1405.67 434.074 1410.74 439.834 1415.35 445.824C1417.88 448.819 1420.19 451.815 1422.72 454.81L1430.32 463.565C1450.83 486.835 1473.18 508.032 1497.14 528.307C1471.1 511.258 1446.91 490.983 1425.02 468.403L1416.96 459.879C1414.2 457.114 1411.89 453.888 1409.36 450.893C1404.29 444.903 1398.99 438.912 1394.38 432.691L1387.24 423.245C1386.09 421.632 1384.93 420.019 1383.78 418.407L1380.56 413.568L1374.11 403.891L1370.88 399.053L1367.88 393.984C1359.82 380.621 1352.22 366.797 1345.77 352.512C1342.54 345.37 1339.08 338.227 1336.32 330.855C1333.56 323.482 1330.56 316.339 1328.26 308.736C1318.12 279.015 1311.44 248.371 1308.9 217.267Z" fill="#C2370C"/>
<path d="M1501.52 197.222C1499.44 224.64 1499.67 252.058 1501.75 279.245C1502.21 286.157 1502.9 292.838 1503.59 299.52C1504.05 306.202 1505.2 313.114 1506.12 319.795C1507.05 326.477 1508.2 333.158 1509.12 340.07C1510.04 346.752 1511.65 353.434 1512.81 360.115C1513.96 366.797 1515.57 373.478 1516.95 380.16C1518.34 386.842 1520.18 393.293 1521.79 399.974C1522.71 403.2 1523.4 406.656 1524.33 409.882L1527.09 419.789L1529.86 429.696L1532.85 439.373C1540.91 465.408 1550.13 491.213 1560.27 516.787C1546.67 492.826 1535.39 467.482 1526.17 441.677L1522.71 432L1519.49 422.093L1516.26 412.186C1515.34 408.96 1514.42 405.504 1513.5 402.278C1511.65 395.597 1509.81 388.915 1508.43 382.234C1506.82 375.552 1505.2 368.87 1504.05 361.958C1502.9 355.046 1501.29 348.365 1500.36 341.453C1499.44 334.541 1498.06 327.859 1497.6 320.947C1496.91 314.035 1495.99 307.123 1495.76 300.211L1495.07 289.843C1494.83 286.387 1494.83 282.931 1494.83 279.475C1493.91 251.827 1495.76 223.949 1501.52 197.222Z" fill="#C2370C"/>
<path d="M1414.66 188.006C1416.04 203.213 1417.65 218.419 1419.5 233.395C1421.34 248.371 1423.64 263.578 1426.18 278.554C1428.71 293.53 1431.48 308.506 1434.93 323.251C1438.16 337.997 1441.84 352.742 1445.99 367.258C1448.06 374.63 1450.37 381.773 1452.67 388.915C1455.21 396.058 1457.51 403.2 1460.28 410.112C1462.81 417.254 1465.81 424.167 1468.8 431.079C1472.03 437.991 1475.02 444.902 1478.48 451.354C1492.07 478.31 1509.58 503.194 1531.93 523.93C1507.05 506.189 1487.23 481.536 1472.03 454.81C1470.18 451.354 1468.11 448.128 1466.5 444.672L1461.43 434.304C1458.2 427.392 1454.98 420.25 1452.21 413.107C1446.45 398.822 1441.61 384.307 1437.24 369.562C1433.09 354.816 1429.4 339.84 1426.41 324.864C1423.64 309.888 1420.88 294.682 1419.27 279.475C1417.42 264.269 1416.04 249.062 1415.35 233.856C1414.43 218.65 1413.97 203.443 1414.66 188.006Z" fill="#C2370C"/>
<path d="M1447.6 944.41C1446.68 908.928 1447.6 873.677 1449.22 838.195C1451.06 802.944 1454.06 767.462 1458.2 732.442C1462.58 697.19 1468.11 662.17 1476.4 627.61C1480.55 610.33 1485.16 593.05 1491.15 576.461C1497.14 559.872 1504.05 543.283 1513.73 528.307C1505.9 544.205 1500.14 560.794 1495.3 577.843L1491.84 590.515L1488.85 603.418C1487 611.942 1484.93 620.467 1483.32 629.222C1480.09 646.502 1476.87 663.782 1474.33 681.293C1471.8 698.803 1469.26 716.083 1467.19 733.594C1464.88 751.104 1463.04 768.614 1461.2 786.125C1459.35 803.635 1457.74 821.146 1456.13 838.886C1453.13 873.907 1450.37 909.158 1447.6 944.41Z" fill="#C2370C"/>
<path d="M1515.34 939.571C1513.27 905.242 1512.58 870.912 1512.58 836.352C1512.35 819.072 1512.81 802.022 1513.04 784.742C1513.04 776.218 1513.5 767.462 1513.73 758.938C1513.96 750.413 1514.19 741.658 1514.42 733.133L1515.57 707.328L1516.96 681.523C1517.42 672.998 1518.11 664.243 1518.8 655.718C1519.49 647.194 1520.18 638.669 1521.1 629.914C1524.56 595.584 1528.71 561.254 1537.23 527.846C1532.39 561.946 1530.32 596.045 1528.25 630.374C1527.78 638.899 1527.32 647.424 1526.86 655.949C1526.4 664.474 1525.94 672.998 1525.71 681.754L1524.56 707.558L1523.64 733.363L1519.72 836.352C1518.57 870.912 1517.19 905.242 1515.34 939.571Z" fill="#C2370C"/>
</g>
<mask id="mask6_660_64065" style="mask-type:luminance" maskUnits="userSpaceOnUse" x="1234" y="159" width="320" height="820">
<path d="M1553.36 974.362C1547.83 972.058 1541.84 969.754 1530.78 969.754C1509.12 969.754 1509.12 978.97 1487.23 978.97C1465.58 978.97 1465.58 969.754 1443.69 969.754C1422.03 969.754 1422.03 978.97 1400.14 978.97C1395.3 978.97 1384.94 977.587 1379.18 971.597C1393.69 663.322 1490 532.685 1490 532.685C1279.87 478.08 1236.79 176.026 1234.25 159.667H1553.13V974.362H1553.36Z" fill="white"/>
</mask>
<g mask="url(#mask6_660_64065)">
<path d="M1157.07 164.966C1204.3 272.794 1349.92 414.95 1553.36 318.874V164.966H1157.07Z" fill="#C2370C"/>
</g>
<path d="M1491.61 545.818C1548.52 537.754 1581.47 519.782 1583.08 519.091L1577.55 509.875L1572.02 500.659C1571.79 500.659 1564.65 504.576 1551.75 509.414C1540 521.856 1520.18 537.984 1491.61 545.818Z" fill="#DA6A1C"/>
<path d="M1473.41 528.077L1475.71 534.758L1479.86 547.2C1484.01 546.739 1487.93 546.278 1491.61 545.587C1520.18 537.754 1540.23 521.395 1551.98 509.184C1540 513.562 1523.41 519.091 1502.9 523.238C1493.69 525.312 1483.78 526.925 1473.41 528.077Z" fill="#ED9E4A"/>
<path d="M599.96 164.966C549.964 259.891 395.135 385.229 179.48 300.442V164.966H599.96Z" fill="#EA4C0C"/>
<mask id="mask7_660_64065" style="mask-type:luminance" maskUnits="userSpaceOnUse" x="179" y="164" width="421" height="165">
<path d="M599.96 164.966C549.964 259.891 395.135 385.229 179.48 300.442V164.966H599.96Z" fill="white"/>
</mask>
<g mask="url(#mask7_660_64065)">
<path d="M168.188 252.058C185.007 258.97 202.056 264.73 219.567 269.568C236.847 274.406 254.588 278.323 272.328 281.088C281.314 282.47 290.069 283.392 299.055 284.083C308.04 284.774 316.796 285.005 325.781 285.005C343.522 284.774 361.263 282.931 378.543 278.554C413.103 270.259 445.128 252.979 473.237 230.861C487.292 219.802 500.424 207.59 512.636 194.227C524.847 181.094 536.367 167.04 546.504 152.064C538.21 168.192 527.612 183.168 516.092 197.453C510.332 204.595 504.111 211.277 497.89 217.958C491.439 224.64 484.757 230.861 477.845 236.851C464.021 248.832 448.584 259.2 432.456 268.186C416.098 276.71 398.818 283.853 380.847 288.23C362.876 292.608 344.213 294.451 325.781 294.451C307.349 294.221 288.917 292.378 270.946 288.922C252.975 285.466 235.234 280.627 218.184 274.637C200.904 267.955 184.085 261.043 168.188 252.058Z" fill="#C2370C"/>
<path d="M160.816 209.434C190.538 219.11 220.951 226.944 251.364 232.474C282.007 237.773 312.88 240.998 343.524 238.003C351.127 237.312 358.5 235.93 365.872 234.086C373.245 232.243 380.388 229.709 387.3 226.714C401.354 220.723 414.717 213.12 427.389 204.365C433.84 199.987 439.831 195.379 445.821 190.541C451.812 185.702 457.802 180.634 463.332 175.334C474.852 164.736 485.68 153.677 496.048 141.926C487.524 155.059 477.386 167.27 466.788 178.79C461.488 184.55 455.728 190.08 449.968 195.379C444.208 200.678 437.988 205.747 431.767 210.586C425.546 215.424 418.864 219.802 411.952 223.949C405.04 228.096 398.128 232.013 390.756 235.008C383.383 238.234 375.78 240.998 367.946 243.072C360.112 245.146 352.048 246.528 344.215 247.219C328.317 248.602 312.42 248.602 296.522 246.989C280.855 245.606 265.188 242.842 249.751 239.386C234.314 235.93 219.108 231.552 204.362 226.714C189.616 221.645 175.101 216.115 160.816 209.434Z" fill="#C2370C"/>
<path d="M614.475 160.589V190.08C447.896 194.227 295.141 202.291 165.426 213.35V160.589H614.475Z" fill="#C2370C"/>
</g>
<path d="M599.96 164.966C549.964 259.891 395.135 385.229 179.48 300.442V164.966H599.96Z" stroke="#ED9E4A" stroke-width="2.5" stroke-miterlimit="10"/>
<path d="M1128.04 164.966C1178.04 259.891 1332.63 385.229 1548.52 300.442V164.966H1128.04Z" fill="#EA4C0C"/>
<mask id="mask8_660_64065" style="mask-type:luminance" maskUnits="userSpaceOnUse" x="1128" y="164" width="421" height="165">
<path d="M1128.04 164.966C1178.04 259.891 1332.63 385.229 1548.52 300.442V164.966H1128.04Z" fill="white"/>
</mask>
<g mask="url(#mask8_660_64065)">
<path d="M1559.81 252.058C1543.91 260.813 1527.09 267.955 1509.81 273.946C1492.53 279.936 1475.02 284.774 1457.05 288.23C1439.08 291.686 1420.65 293.53 1402.22 293.76C1383.78 293.76 1365.35 291.917 1347.15 287.539C1329.18 283.162 1311.9 276.25 1295.54 267.494C1279.41 258.509 1263.98 248.141 1250.15 236.16C1243.24 230.17 1236.33 223.949 1230.11 217.267C1223.66 210.586 1217.67 203.904 1211.91 196.762C1200.39 182.477 1190.02 167.501 1181.49 151.373C1191.63 166.349 1203.15 180.403 1215.36 193.536C1227.57 206.669 1240.7 218.88 1254.76 230.17C1282.87 252.288 1314.89 269.568 1349.45 277.862C1366.5 282.24 1384.47 284.083 1402.22 284.314C1411.2 284.544 1419.96 284.083 1428.94 283.392C1437.93 282.701 1446.68 281.549 1455.67 280.397C1473.41 277.632 1490.92 273.946 1508.43 268.877C1525.94 264.73 1543.22 258.97 1559.81 252.058Z" fill="#C2370C"/>
<path d="M1567.18 209.434C1552.9 216.115 1538.38 221.645 1523.41 226.714C1508.43 231.552 1493.45 235.93 1478.02 239.386C1462.58 242.842 1447.14 245.376 1431.25 246.989C1415.58 248.602 1399.45 248.602 1383.55 247.219C1375.72 246.528 1367.42 245.146 1359.82 243.072C1351.99 240.998 1344.38 238.234 1337.01 235.008C1329.64 231.782 1322.73 227.866 1315.81 223.949C1308.9 219.802 1302.45 215.424 1296 210.586C1289.78 205.747 1283.56 200.678 1277.8 195.379C1272.04 190.08 1266.28 184.55 1260.98 178.79C1250.38 167.27 1240.24 155.059 1231.72 141.926C1242.09 153.677 1252.92 164.966 1264.44 175.334C1270.2 180.634 1275.96 185.702 1281.95 190.541C1287.94 195.379 1294.16 199.987 1300.38 204.365C1313.05 213.12 1326.41 220.954 1340.47 226.714C1347.38 229.709 1354.75 232.243 1361.89 234.086C1369.27 235.93 1376.64 237.312 1384.24 238.003C1414.66 240.998 1445.76 237.773 1476.4 232.474C1507.05 226.944 1537.46 219.11 1567.18 209.434Z" fill="#C2370C"/>
<path d="M1113.52 160.589V190.08C1280.1 194.227 1432.86 202.291 1562.57 213.35V160.589H1113.52Z" fill="#C2370C"/>
</g>
<path d="M1128.04 164.966C1178.04 259.891 1332.63 385.229 1548.52 300.442V164.966H1128.04Z" stroke="#ED9E4A" stroke-width="2.5" stroke-miterlimit="10"/>
<path d="M1178.04 164.966C1115.37 232.934 998.093 278.784 864 278.784C729.907 278.784 612.634 233.165 549.965 164.966H1178.04Z" fill="#EA4C0C"/>
<mask id="mask9_660_64065" style="mask-type:luminance" maskUnits="userSpaceOnUse" x="549" y="164" width="630" height="115">
<path d="M1178.04 164.966C1115.37 232.934 998.093 278.784 864 278.784C729.907 278.784 612.634 233.165 549.965 164.966H1178.04Z" fill="white"/>
</mask>
<g mask="url(#mask9_660_64065)">
<path d="M1142.32 133.171L1136.1 140.774C1134.03 143.309 1132.18 145.843 1129.88 148.147L1123.2 155.29C1122.05 156.442 1120.9 157.594 1119.74 158.746L1116.06 161.971L1108.91 168.653L1107.07 170.266L1105.23 171.878L1101.54 174.874L1093.94 181.094C1091.4 182.938 1088.64 184.781 1086.1 186.854C1064.68 201.83 1041.64 214.042 1017.22 223.718C993.023 233.395 967.679 240.307 942.105 245.146C916.3 249.754 890.265 252.058 864.23 252.288C838.194 252.058 811.929 249.984 786.354 245.146C760.78 240.307 735.436 233.626 711.244 223.718C687.052 214.042 663.782 201.83 642.354 186.854C639.82 185.011 637.055 183.168 634.521 181.094L626.918 174.874L623.231 171.878L621.388 170.266L619.545 168.653L612.402 161.971L608.716 158.746C607.564 157.594 606.412 156.442 605.26 155.29L598.578 148.147C596.274 145.843 594.431 143.309 592.358 140.774L586.137 133.171L592.818 140.314C595.122 142.618 597.196 145.152 599.5 147.226L606.642 153.907C607.794 155.059 608.946 156.211 610.098 157.133L613.785 160.128L621.158 166.118L623.001 167.731L625.074 169.114L628.991 171.878L636.825 177.408C639.59 179.251 642.354 180.864 644.889 182.477C666.546 196.301 689.817 207.36 713.778 216.115C737.74 224.87 762.623 231.322 787.967 235.469C813.081 239.616 838.655 241.92 864.23 241.92C889.804 241.92 915.378 239.846 940.492 235.469C965.606 231.322 990.489 224.87 1014.68 216.115C1038.64 207.36 1061.91 196.301 1083.57 182.477C1086.34 180.864 1089.1 179.021 1091.63 177.408L1099.47 171.878L1103.38 169.114L1105.46 167.731L1107.3 166.118L1114.67 160.128L1118.36 157.133C1119.51 155.981 1120.66 155.059 1121.82 153.907L1128.96 147.226C1131.49 145.152 1133.57 142.618 1135.64 140.314L1142.32 133.171Z" fill="#C2370C"/>
<path d="M1050.39 151.834C1038.87 164.045 1025.05 173.952 1010.53 182.246C995.788 190.31 980.121 196.992 963.993 201.83C947.865 206.899 931.276 210.355 914.687 212.89C897.868 215.194 881.049 216.346 864.23 216.576C847.41 216.346 830.361 215.424 813.772 212.89C797.183 210.355 780.364 206.899 764.466 201.83C748.338 196.762 732.671 190.31 717.926 182.246C703.18 173.952 689.356 164.045 678.066 151.834C690.969 162.432 705.254 171.187 720.23 178.099C735.206 185.011 750.873 190.541 766.77 194.688C782.668 198.835 799.026 202.061 815.385 203.904C831.743 205.978 848.102 206.899 864.69 206.899C881.279 206.899 897.638 205.978 913.996 203.904C930.354 202.061 946.482 198.835 962.61 194.688C978.508 190.541 994.175 185.011 1009.15 178.099C1023.44 171.187 1037.49 162.662 1050.39 151.834Z" fill="#C2370C"/>
</g>
<mask id="mask10_660_64065" style="mask-type:luminance" maskUnits="userSpaceOnUse" x="549" y="164" width="630" height="115">
<path d="M1178.04 164.966C1115.37 232.934 998.093 278.784 864 278.784C729.907 278.784 612.634 233.165 549.965 164.966H1178.04Z" fill="white"/>
</mask>
<g mask="url(#mask10_660_64065)">
<path d="M1172.28 160.589V191.693C1074.36 188.698 970.907 187.085 864.002 187.085C757.096 187.085 653.647 188.698 555.727 191.693V160.589H1172.28Z" fill="#C2370C"/>
</g>
<path d="M1178.04 164.966C1115.37 232.934 998.093 278.784 864 278.784C729.907 278.784 612.634 233.165 549.965 164.966H1178.04Z" stroke="#ED9E4A" stroke-width="2.5" stroke-miterlimit="10"/>
<path d="M321.638 -6.10352e-05V173.952C297.446 175.334 273.485 176.947 250.445 178.56C156.442 185.242 72.1152 193.306 0 202.522V-6.10352e-05H321.638Z" fill="#FB873C"/>
<path d="M516.325 -6.10352e-05V164.966C448.357 167.27 383.154 170.496 321.637 173.952V-6.10352e-05H516.325Z" fill="#FDB274"/>
<path d="M1406.36 -6.10352e-05V173.952C1344.61 170.266 1279.64 167.27 1211.67 164.966V-6.10352e-05H1406.36Z" fill="#FDB274"/>
<path d="M1211.68 -6.10352e-05V164.966C1102.24 161.05 985.423 158.976 864.002 158.976C742.581 158.976 625.768 161.05 516.328 164.966V-6.10352e-05H1211.68Z" fill="#FED2AA"/>
<path d="M1728 -6.10352e-05V202.522C1655.89 193.306 1571.56 185.242 1477.56 178.56C1454.52 176.947 1430.56 175.334 1406.36 173.952V-6.10352e-05H1728Z" fill="#FB873C"/>
<path d="M1728 202.522V217.267C1520.64 190.771 1210.52 173.722 864 173.722C517.478 173.722 207.36 190.541 0 217.267V202.522C207.36 175.795 517.478 158.976 864 158.976C1210.52 158.976 1520.64 175.795 1728 202.522Z" fill="#E9BB18"/>
<mask id="mask11_660_64065" style="mask-type:luminance" maskUnits="userSpaceOnUse" x="0" y="158" width="1728" height="60">
<path d="M1728 202.522V217.267C1520.64 190.771 1210.52 173.722 864 173.722C517.478 173.722 207.36 190.541 0 217.267V202.522C207.36 175.795 517.478 158.976 864 158.976C1210.52 158.976 1520.64 175.795 1728 202.522Z" fill="white"/>
</mask>
<g mask="url(#mask11_660_64065)">
<path d="M1370.19 158.976H1341.16V195.61H1370.19V158.976Z" fill="#AC7A22"/>
<path d="M1329.41 158.976H1314.89V195.61H1329.41V158.976Z" fill="white"/>
<path d="M357.766 195.647H386.797V159.013H357.766V195.647Z" fill="#AC7A22"/>
<path d="M398.77 195.647H413.285V159.013H398.77V195.647Z" fill="white"/>
<path d="M898.561 151.603H829.441V188.237H898.561V151.603Z" fill="white"/>
<path d="M949.131 187.994H956.965V151.36H949.131V187.994Z" fill="#AC7A22"/>
<path d="M778.982 151.603H771.148V188.237H778.982V151.603Z" fill="#AC7A22"/>
<path d="M937.957 151.603H912.613V188.237H937.957V151.603Z" fill="#AC7A22"/>
<path d="M790.004 187.994H815.348V151.36H790.004V187.994Z" fill="#AC7A22"/>
</g>
<path d="M0 202.291C71.424 192.845 143.309 185.933 215.194 179.942C287.078 174.413 359.194 170.035 431.309 166.81C575.539 160.128 719.77 157.133 864 156.902C1008.23 157.133 1152.69 160.128 1296.69 166.81C1368.81 170.266 1440.69 174.413 1512.81 179.942C1584.69 185.702 1656.58 192.845 1728 202.291V202.522C1656.35 193.536 1584.69 186.624 1512.58 181.325C1440.69 175.795 1368.58 171.648 1296.46 168.422C1152.23 161.971 1008 159.206 863.77 159.206C719.539 159.206 575.309 161.971 431.078 168.422C358.963 171.648 287.078 175.795 214.963 181.325C143.309 186.854 71.6544 193.536 0 202.291Z" fill="white"/>
<path d="M146.995 -6.10352e-05H0V983.808H146.995V-6.10352e-05Z" fill="#FB873C"/>
<path d="M146.994 -6.10352e-05V983.808H62.8984L74.6488 908.237C74.6488 906.854 79.948 905.702 88.4728 904.781V-6.10352e-05H146.994Z" fill="#C2370C"/>
<path d="M96.0778 908.237C96.0778 905.472 118.887 903.168 146.996 903.168C175.105 903.168 197.915 905.472 197.915 908.237L212.43 999.936C212.43 1003.62 183.169 1006.62 147.227 1006.62C111.284 1006.62 82.0234 1003.62 82.0234 999.936L96.0778 908.237Z" fill="#FB873C"/>
<path d="M209.666 983.578C206.671 984.499 201.602 985.421 193.307 986.342C180.866 987.494 164.507 988.186 146.997 988.186C129.487 988.186 112.898 987.494 100.687 986.342C92.3921 985.421 87.5537 984.499 84.3281 983.578L85.0193 978.97C90.7793 981.043 113.359 983.578 146.997 983.578C180.635 983.578 203.215 981.043 208.975 978.97L209.666 983.578Z" fill="#F96616"/>
<path d="M209.666 983.578C199.528 986.803 188.93 987.725 178.562 988.646C167.963 989.568 157.595 989.798 146.997 989.798C136.399 989.568 126.031 989.568 115.432 988.646C105.064 987.725 94.2353 986.803 84.3281 983.578C89.3969 984.96 94.6961 985.651 99.7649 986.112C105.064 986.573 110.133 987.034 115.432 987.264C126.031 987.725 136.399 987.955 146.997 987.955C157.595 987.955 167.963 987.725 178.562 987.264C183.861 987.034 189.16 986.573 194.229 986.112C199.298 985.651 204.597 985.19 209.666 983.578Z" fill="#FDB274"/>
<path d="M197.684 908.237C197.684 911.002 174.875 913.306 146.766 913.306C118.657 913.306 95.8477 911.002 95.8477 908.237C95.8477 905.472 118.657 903.168 146.766 903.168C175.105 902.938 197.684 905.242 197.684 908.237Z" fill="#FFEBD5"/>
<path d="M183.861 -6.10352e-05V907.545C180.865 907.776 177.87 908.006 174.645 908.006C166.12 908.467 156.673 908.698 146.766 908.698C132.942 908.698 120.27 908.237 109.672 907.545V-6.10352e-05H183.861Z" fill="#FB873C"/>
<path d="M183.86 -6.10352e-05V907.545C180.865 907.776 177.87 908.006 174.644 908.006C166.119 908.467 156.673 908.698 146.766 908.698V-6.10352e-05H183.86Z" fill="#FDB274"/>
<path d="M183.861 -6.10352e-05V907.545C180.865 907.776 177.87 908.006 174.645 908.006V-6.10352e-05H183.861Z" fill="#FED2AA"/>
<path d="M1581.09 983.705H1728.09L1728.09 -0.10321H1581.09V983.705Z" fill="#FB873C"/>
<path d="M1581 -6.10352e-05V983.808H1665.1L1653.12 908.237C1653.12 906.854 1647.82 905.702 1639.3 904.781V-6.10352e-05H1581Z" fill="#C2370C"/>
<path d="M1631.92 908.237C1631.92 905.472 1609.11 903.168 1581 903.168C1552.9 903.168 1530.09 905.472 1530.09 908.237L1515.57 999.936C1515.57 1003.62 1544.83 1006.62 1580.77 1006.62C1616.95 1006.62 1645.98 1003.62 1645.98 999.936L1631.92 908.237Z" fill="#FB873C"/>
<path d="M1518.34 983.578C1521.33 984.499 1526.4 985.421 1534.69 986.342C1547.14 987.494 1563.49 988.186 1581 988.186C1598.52 988.186 1615.1 987.494 1627.32 986.342C1635.38 985.421 1640.45 984.499 1643.67 983.578L1642.98 978.97C1637.22 981.043 1614.64 983.578 1581 983.578C1547.14 983.578 1525.02 981.043 1519.03 978.97L1518.34 983.578Z" fill="#F96616"/>
<path d="M1518.34 983.578C1523.4 984.73 1528.7 985.19 1534 985.421C1539.3 985.882 1544.37 986.112 1549.67 986.112C1560.04 986.342 1570.64 986.573 1581 986.573C1591.6 986.803 1601.97 986.342 1612.34 986.112C1617.64 985.882 1622.71 985.651 1628.01 985.421C1633.31 984.96 1638.37 984.73 1643.67 983.578C1638.6 984.96 1633.31 985.651 1628.24 986.342C1622.94 986.803 1617.87 987.264 1612.57 987.494C1601.97 988.186 1591.6 988.416 1581 988.416C1570.41 988.416 1560.04 988.186 1549.44 987.494C1544.14 987.264 1538.84 986.803 1533.77 986.342C1528.7 985.651 1523.4 985.19 1518.34 983.578Z" fill="#FDB274"/>
<path d="M1530.09 908.237C1530.09 911.002 1552.9 913.306 1581 913.306C1609.11 913.306 1631.92 911.002 1631.92 908.237C1631.92 905.472 1609.11 903.168 1581 903.168C1552.9 902.938 1530.09 905.242 1530.09 908.237Z" fill="#FFEBD5"/>
<path d="M1544.14 -6.10352e-05V907.545C1547.14 907.776 1550.13 908.006 1553.36 908.006C1561.88 908.467 1571.33 908.698 1581.23 908.698C1595.06 908.698 1607.73 908.237 1618.33 907.545V-6.10352e-05H1544.14Z" fill="#FB873C"/>
<path d="M1544.14 -6.10352e-05V907.545C1547.14 907.776 1550.13 908.006 1553.36 908.006C1561.88 908.467 1571.33 908.698 1581.23 908.698V-6.10352e-05H1544.14Z" fill="#FDB274"/>
<path d="M1544.14 -6.10352e-05V907.545C1547.14 907.776 1550.13 908.006 1553.36 908.006V-6.10352e-05H1544.14Z" fill="#FED2AA"/>
</g>
<defs>
<linearGradient id="paint0_linear_660_64065" x1="865.382" y1="57.6" x2="865.382" y2="990.029" gradientUnits="userSpaceOnUse">
<stop stop-color="#F8D867"/>
<stop offset="1" stop-color="#F8D867" stop-opacity="0"/>
</linearGradient>
<clipPath id="clip0_660_64065">
<rect width="1728" height="1152" fill="white"/>
</clipPath>
</defs>
</svg>
