<svg width="1682" height="917" viewBox="0 0 1682 917" fill="none" xmlns="http://www.w3.org/2000/svg">
<rect x="808.402" y="860.594" width="65.1938" height="1923.3" fill="#3F3B3C"/>
<path fill-rule="evenodd" clip-rule="evenodd" d="M78.2324 28C78.2324 12.536 90.7685 0 106.232 0H1575.77C1591.23 0 1603.77 12.536 1603.77 28V832.594C1603.77 848.058 1591.23 860.594 1575.77 860.594H106.232C90.7685 860.594 78.2324 848.058 78.2324 832.594V28ZM234.698 123.873C234.698 145.478 217.185 162.991 195.581 162.991C173.978 162.991 156.465 145.478 156.465 123.873C156.465 102.269 173.978 84.7555 195.581 84.7555C217.185 84.7555 234.698 102.269 234.698 123.873ZM339.008 162.991C360.611 162.991 378.124 145.478 378.124 123.873C378.124 102.269 360.611 84.7555 339.008 84.7555C317.404 84.7555 299.891 102.269 299.891 123.873C299.891 145.478 317.404 162.991 339.008 162.991ZM521.55 123.873C521.55 145.478 504.037 162.991 482.434 162.991C460.831 162.991 443.318 145.478 443.318 123.873C443.318 102.269 460.831 84.7555 482.434 84.7555C504.037 84.7555 521.55 102.269 521.55 123.873ZM625.86 162.991C647.464 162.991 664.977 145.478 664.977 123.873C664.977 102.269 647.464 84.7555 625.86 84.7555C604.257 84.7555 586.744 102.269 586.744 123.873C586.744 145.478 604.257 162.991 625.86 162.991ZM808.403 123.873C808.403 145.478 790.89 162.991 769.287 162.991C747.683 162.991 730.17 145.478 730.17 123.873C730.17 102.269 747.683 84.7555 769.287 84.7555C790.89 84.7555 808.403 102.269 808.403 123.873ZM912.713 162.991C934.316 162.991 951.829 145.478 951.829 123.873C951.829 102.269 934.316 84.7555 912.713 84.7555C891.11 84.7555 873.597 102.269 873.597 123.873C873.597 145.478 891.11 162.991 912.713 162.991ZM1095.26 123.873C1095.26 145.478 1077.74 162.991 1056.14 162.991C1034.54 162.991 1017.02 145.478 1017.02 123.873C1017.02 102.269 1034.54 84.7555 1056.14 84.7555C1077.74 84.7555 1095.26 102.269 1095.26 123.873ZM1199.57 162.991C1221.17 162.991 1238.68 145.478 1238.68 123.873C1238.68 102.269 1221.17 84.7555 1199.57 84.7555C1177.96 84.7555 1160.45 102.269 1160.45 123.873C1160.45 145.478 1177.96 162.991 1199.57 162.991ZM1382.11 123.873C1382.11 145.478 1364.6 162.991 1342.99 162.991C1321.39 162.991 1303.88 145.478 1303.88 123.873C1303.88 102.269 1321.39 84.7555 1342.99 84.7555C1364.6 84.7555 1382.11 102.269 1382.11 123.873ZM1486.42 162.991C1508.02 162.991 1525.53 145.478 1525.53 123.873C1525.53 102.269 1508.02 84.7555 1486.42 84.7555C1464.82 84.7555 1447.3 102.269 1447.3 123.873C1447.3 145.478 1464.82 162.991 1486.42 162.991ZM234.698 241.227C234.698 262.831 217.185 280.345 195.581 280.345C173.978 280.345 156.465 262.831 156.465 241.227C156.465 219.623 173.978 202.109 195.581 202.109C217.185 202.109 234.698 219.623 234.698 241.227ZM339.008 280.345C360.611 280.345 378.124 262.831 378.124 241.227C378.124 219.623 360.611 202.109 339.008 202.109C317.404 202.109 299.891 219.623 299.891 241.227C299.891 262.831 317.404 280.345 339.008 280.345ZM521.55 241.227C521.55 262.831 504.037 280.345 482.434 280.345C460.831 280.345 443.318 262.831 443.318 241.227C443.318 219.623 460.831 202.109 482.434 202.109C504.037 202.109 521.55 219.623 521.55 241.227ZM625.86 280.345C647.464 280.345 664.977 262.831 664.977 241.227C664.977 219.623 647.464 202.109 625.86 202.109C604.257 202.109 586.744 219.623 586.744 241.227C586.744 262.831 604.257 280.345 625.86 280.345ZM808.403 241.227C808.403 262.831 790.89 280.345 769.287 280.345C747.683 280.345 730.17 262.831 730.17 241.227C730.17 219.623 747.683 202.109 769.287 202.109C790.89 202.109 808.403 219.623 808.403 241.227ZM912.713 280.345C934.316 280.345 951.829 262.831 951.829 241.227C951.829 219.623 934.316 202.109 912.713 202.109C891.11 202.109 873.597 219.623 873.597 241.227C873.597 262.831 891.11 280.345 912.713 280.345ZM1095.26 241.227C1095.26 262.831 1077.74 280.345 1056.14 280.345C1034.54 280.345 1017.02 262.831 1017.02 241.227C1017.02 219.623 1034.54 202.109 1056.14 202.109C1077.74 202.109 1095.26 219.623 1095.26 241.227ZM1199.57 280.345C1221.17 280.345 1238.68 262.831 1238.68 241.227C1238.68 219.623 1221.17 202.109 1199.57 202.109C1177.96 202.109 1160.45 219.623 1160.45 241.227C1160.45 262.831 1177.96 280.345 1199.57 280.345ZM1382.11 241.227C1382.11 262.831 1364.6 280.345 1342.99 280.345C1321.39 280.345 1303.88 262.831 1303.88 241.227C1303.88 219.623 1321.39 202.109 1342.99 202.109C1364.6 202.109 1382.11 219.623 1382.11 241.227ZM1486.42 280.345C1508.02 280.345 1525.53 262.831 1525.53 241.227C1525.53 219.623 1508.02 202.109 1486.42 202.109C1464.82 202.109 1447.3 219.623 1447.3 241.227C1447.3 262.831 1464.82 280.345 1486.42 280.345ZM234.698 358.581C234.698 380.185 217.185 397.699 195.581 397.699C173.978 397.699 156.465 380.185 156.465 358.581C156.465 336.977 173.978 319.463 195.581 319.463C217.185 319.463 234.698 336.977 234.698 358.581ZM339.008 397.699C360.611 397.699 378.124 380.185 378.124 358.581C378.124 336.977 360.611 319.463 339.008 319.463C317.404 319.463 299.891 336.977 299.891 358.581C299.891 380.185 317.404 397.699 339.008 397.699ZM521.55 358.581C521.55 380.185 504.037 397.699 482.434 397.699C460.831 397.699 443.318 380.185 443.318 358.581C443.318 336.977 460.831 319.463 482.434 319.463C504.037 319.463 521.55 336.977 521.55 358.581ZM625.86 397.699C647.464 397.699 664.977 380.185 664.977 358.581C664.977 336.977 647.464 319.463 625.86 319.463C604.257 319.463 586.744 336.977 586.744 358.581C586.744 380.185 604.257 397.699 625.86 397.699ZM808.403 358.581C808.403 380.185 790.89 397.699 769.287 397.699C747.683 397.699 730.17 380.185 730.17 358.581C730.17 336.977 747.683 319.463 769.287 319.463C790.89 319.463 808.403 336.977 808.403 358.581ZM912.713 397.699C934.316 397.699 951.829 380.185 951.829 358.581C951.829 336.977 934.316 319.463 912.713 319.463C891.11 319.463 873.597 336.977 873.597 358.581C873.597 380.185 891.11 397.699 912.713 397.699ZM1095.26 358.581C1095.26 380.185 1077.74 397.699 1056.14 397.699C1034.54 397.699 1017.02 380.185 1017.02 358.581C1017.02 336.977 1034.54 319.463 1056.14 319.463C1077.74 319.463 1095.26 336.977 1095.26 358.581ZM1199.57 397.699C1221.17 397.699 1238.68 380.185 1238.68 358.581C1238.68 336.977 1221.17 319.463 1199.57 319.463C1177.96 319.463 1160.45 336.977 1160.45 358.581C1160.45 380.185 1177.96 397.699 1199.57 397.699ZM1382.11 358.581C1382.11 380.185 1364.6 397.699 1342.99 397.699C1321.39 397.699 1303.88 380.185 1303.88 358.581C1303.88 336.977 1321.39 319.463 1342.99 319.463C1364.6 319.463 1382.11 336.977 1382.11 358.581ZM1486.42 397.699C1508.02 397.699 1525.53 380.185 1525.53 358.581C1525.53 336.977 1508.02 319.463 1486.42 319.463C1464.82 319.463 1447.3 336.977 1447.3 358.581C1447.3 380.185 1464.82 397.699 1486.42 397.699ZM234.698 475.935C234.698 497.539 217.185 515.052 195.581 515.052C173.978 515.052 156.465 497.539 156.465 475.935C156.465 454.33 173.978 436.817 195.581 436.817C217.185 436.817 234.698 454.33 234.698 475.935ZM339.008 515.052C360.611 515.052 378.124 497.539 378.124 475.935C378.124 454.33 360.611 436.817 339.008 436.817C317.404 436.817 299.891 454.33 299.891 475.935C299.891 497.539 317.404 515.052 339.008 515.052ZM521.55 475.935C521.55 497.539 504.037 515.052 482.434 515.052C460.831 515.052 443.318 497.539 443.318 475.935C443.318 454.33 460.831 436.817 482.434 436.817C504.037 436.817 521.55 454.33 521.55 475.935ZM1199.57 515.052C1221.17 515.052 1238.68 497.539 1238.68 475.935C1238.68 454.33 1221.17 436.817 1199.57 436.817C1177.96 436.817 1160.45 454.33 1160.45 475.935C1160.45 497.539 1177.96 515.052 1199.57 515.052ZM1382.11 475.935C1382.11 497.539 1364.6 515.052 1342.99 515.052C1321.39 515.052 1303.88 497.539 1303.88 475.935C1303.88 454.33 1321.39 436.817 1342.99 436.817C1364.6 436.817 1382.11 454.33 1382.11 475.935ZM1486.42 515.052C1508.02 515.052 1525.53 497.539 1525.53 475.935C1525.53 454.33 1508.02 436.817 1486.42 436.817C1464.82 436.817 1447.3 454.33 1447.3 475.935C1447.3 497.539 1464.82 515.052 1486.42 515.052ZM234.698 593.288C234.698 614.892 217.185 632.406 195.581 632.406C173.978 632.406 156.465 614.892 156.465 593.288C156.465 571.684 173.978 554.17 195.581 554.17C217.185 554.17 234.698 571.684 234.698 593.288ZM339.008 632.406C360.611 632.406 378.124 614.892 378.124 593.288C378.124 571.684 360.611 554.17 339.008 554.17C317.404 554.17 299.891 571.684 299.891 593.288C299.891 614.892 317.404 632.406 339.008 632.406ZM521.55 593.288C521.55 614.892 504.037 632.406 482.434 632.406C460.831 632.406 443.318 614.892 443.318 593.288C443.318 571.684 460.831 554.17 482.434 554.17C504.037 554.17 521.55 571.684 521.55 593.288ZM1199.57 632.406C1221.17 632.406 1238.68 614.892 1238.68 593.288C1238.68 571.684 1221.17 554.17 1199.57 554.17C1177.96 554.17 1160.45 571.684 1160.45 593.288C1160.45 614.892 1177.96 632.406 1199.57 632.406ZM1382.11 593.288C1382.11 614.892 1364.6 632.406 1342.99 632.406C1321.39 632.406 1303.88 614.892 1303.88 593.288C1303.88 571.684 1321.39 554.17 1342.99 554.17C1364.6 554.17 1382.11 571.684 1382.11 593.288ZM1486.42 632.406C1508.02 632.406 1525.53 614.892 1525.53 593.288C1525.53 571.684 1508.02 554.17 1486.42 554.17C1464.82 554.17 1447.3 571.684 1447.3 593.288C1447.3 614.892 1464.82 632.406 1486.42 632.406ZM234.698 710.642C234.698 732.246 217.185 749.76 195.581 749.76C173.978 749.76 156.465 732.246 156.465 710.642C156.465 689.038 173.978 671.524 195.581 671.524C217.185 671.524 234.698 689.038 234.698 710.642ZM339.008 749.76C360.611 749.76 378.124 732.246 378.124 710.642C378.124 689.038 360.611 671.524 339.008 671.524C317.404 671.524 299.891 689.038 299.891 710.642C299.891 732.246 317.404 749.76 339.008 749.76ZM521.55 710.642C521.55 732.246 504.037 749.76 482.434 749.76C460.831 749.76 443.318 732.246 443.318 710.642C443.318 689.038 460.831 671.524 482.434 671.524C504.037 671.524 521.55 689.038 521.55 710.642ZM1199.57 749.76C1221.17 749.76 1238.68 732.246 1238.68 710.642C1238.68 689.038 1221.17 671.524 1199.57 671.524C1177.96 671.524 1160.45 689.038 1160.45 710.642C1160.45 732.246 1177.96 749.76 1199.57 749.76ZM1382.11 710.642C1382.11 732.246 1364.6 749.76 1342.99 749.76C1321.39 749.76 1303.88 732.246 1303.88 710.642C1303.88 689.038 1321.39 671.524 1342.99 671.524C1364.6 671.524 1382.11 689.038 1382.11 710.642ZM1486.42 749.76C1508.02 749.76 1525.53 732.246 1525.53 710.642C1525.53 689.038 1508.02 671.524 1486.42 671.524C1464.82 671.524 1447.3 689.038 1447.3 710.642C1447.3 732.246 1464.82 749.76 1486.42 749.76Z" fill="#564E4E"/>
<path d="M19.2357 821.261C13.4731 817.419 16.1929 808.437 23.1186 808.437H1658.88C1665.81 808.437 1668.53 817.419 1662.76 821.261L1605.53 859.418C1604.38 860.185 1603.03 860.594 1601.65 860.594H80.352C78.97 860.594 77.6189 860.185 76.469 859.418L19.2357 821.261Z" fill="#3F3B3C"/>
</svg>
