<svg width="300" height="201" viewBox="0 0 300 201" fill="none" xmlns="http://www.w3.org/2000/svg">
<rect width="300" height="200" transform="translate(0 0.5)" fill="white"/>
<circle cx="150.5" cy="101" r="88.5" fill="#FAF5C7"/>
<path d="M125.053 88.1661V83.062C125.053 68.8955 134.778 52.3332 147.432 52.3332H150.778C163.327 52.3332 173.157 68.8955 173.157 83.062V88.1661H186.438V75.6663C186.438 66.2914 182.778 56.604 176.295 48.9999C169.393 40.875 160.399 36.5 150.883 36.5H147.013C137.602 36.5 128.608 40.9791 121.602 48.9999C115.327 56.4998 111.562 66.2914 111.562 75.6663V88.1661H125.053Z" fill="#E98427"/>
<path d="M196.791 89.7286C196.477 88.9995 195.954 88.2703 195.327 87.7495C194.386 87.0203 193.34 86.7078 192.19 86.4995H105.392C104.242 86.7078 103.092 87.0203 102.255 87.8537C101.523 88.4787 101.105 89.312 101 90.2495C101 90.3536 101 90.562 101 90.7703V109.312C101 180.249 197 182.019 197 109.312V90.6661C197 90.3536 196.895 90.0411 196.791 89.7286Z" fill="#ED9E4A"/>
<path d="M194.803 90.7703C194.49 90.0412 194.071 89.4162 193.444 88.8953C192.503 88.2703 191.562 87.9578 190.516 87.7495H107.065C105.915 87.9578 104.869 88.2703 104.032 88.9995C103.3 89.6245 102.882 90.3537 102.777 91.187C102.777 91.2911 102.777 91.4995 102.777 91.7078V108.791C102.777 174.415 195.013 176.082 195.013 108.791V91.7078C195.013 91.3953 194.908 91.0828 194.803 90.7703Z" fill="#F3C27E"/>
<path d="M190.936 92.0202C190.623 91.3952 190.204 90.8743 189.681 90.4577C188.845 89.9368 187.904 89.6243 186.963 89.416H110.1C109.054 89.5202 108.113 89.8327 107.381 90.4577C106.753 90.9785 106.335 91.6035 106.23 92.3327C106.23 92.4368 106.23 92.541 106.23 92.7493V107.333C106.23 163.269 191.146 164.728 191.146 107.333V92.7493C191.041 92.4368 191.041 92.2285 190.936 92.0202Z" fill="#F8DCB0"/>
<path d="M160.401 110.562C160.401 104.728 155.381 99.9368 149.106 99.9368C142.832 99.9368 137.812 104.728 137.812 110.562C137.812 115.041 140.74 118.895 145.028 120.457L136.871 144.832H160.505L152.976 120.562C157.263 118.999 160.401 115.145 160.401 110.562Z" fill="#B55119"/>
<path d="M140.844 110.562C140.844 105.145 145.132 100.666 150.57 100.041C150.047 99.9368 149.524 99.9368 149.001 99.9368C142.726 99.9368 137.707 104.728 137.707 110.562C137.707 115.041 140.635 118.895 144.922 120.457L136.766 144.832H139.798L147.955 120.457C143.772 118.895 140.844 115.041 140.844 110.562Z" fill="#B55119"/>
<path d="M160.399 110.562C160.399 105.145 156.111 100.666 150.569 100.041C145.027 100.77 140.844 105.249 140.844 110.562C140.844 115.041 143.772 118.895 148.059 120.457L139.902 144.832H160.399L152.974 120.562C157.262 118.999 160.399 115.145 160.399 110.562Z" fill="#74371A"/>
<path d="M109.158 93.4785C109.158 93.4785 108.007 96.291 109.367 98.7909C110.622 101.291 124.948 97.541 124.635 94.2077C124.216 90.8744 111.249 88.2702 109.158 93.4785Z" fill="#FCF0D8"/>
<path d="M108.845 105.562C108.845 105.562 108.322 108.062 108.949 110.353C109.577 112.541 116.688 109.312 116.583 106.291C116.27 103.166 109.891 100.978 108.845 105.562Z" fill="#FCF0D8"/>
<path opacity="0.5" d="M176.295 48.9999C175.668 48.2707 175.145 47.6457 174.518 47.0208C174.831 47.7499 175.041 48.5832 175.145 49.4166C175.25 51.604 174.308 53.8957 172.635 55.2498C171.067 56.4998 169.08 56.4998 167.302 55.7707C166.047 55.2498 164.897 54.4165 163.746 53.6873C162.387 52.854 161.027 52.1249 159.459 51.604C156.531 50.4582 153.498 49.9374 150.361 49.8332C144.818 49.7291 139.067 51.2915 134.465 54.5207C130.178 57.5415 127.041 61.8123 124.844 66.4997C123.276 69.7289 122.648 73.4788 120.243 76.2913C119.197 77.4371 117.838 78.2704 116.269 77.9579C114.491 77.5413 113.237 76.4996 112.609 74.833C112.191 73.7913 111.982 72.7497 111.877 71.708C111.773 72.958 111.668 74.3121 111.668 75.5621V88.062H125.158V82.9579C125.158 68.7914 134.884 52.229 147.537 52.229H150.884C163.433 52.229 173.263 68.7914 173.263 82.9579V86.2816H186.439V75.5621C186.439 66.2914 182.779 56.4998 176.295 48.9999Z" fill="#DA6A1C"/>
<path d="M113.234 70.6662C113.234 70.6662 118.986 36.7083 154.437 37.9582C154.437 37.9582 122.96 40.2499 113.234 70.6662Z" fill="#F3C27E"/>
<path opacity="0.5" d="M125.209 83.687H111.719V88.1661H125.209V83.687Z" fill="#B55119"/>
<path d="M189.001 78.9797H171.668V86.5003H189.001V78.9797Z" fill="#FAF5C7"/>
<path d="M249 37.5C229 37.5 219 47.5 219 67.5C219 47.5 209 37.5 189 37.5C209 37.5 219 27.4996 219 7.5C219 27.5 229 37.5 249 37.5Z" fill="#F8D867"/>
<path d="M98 137.5C78 137.5 68 147.5 68 167.5C68 147.5 58 137.5 38 137.5C58 137.5 68 127.5 68 107.5C68 127.5 78 137.5 98 137.5Z" fill="#F8D867"/>
</svg>
