<svg width="120" height="121" viewBox="0 0 120 121" fill="none" xmlns="http://www.w3.org/2000/svg">
<circle opacity="0.5" cx="60" cy="60.5" r="40" fill="#D8BCFD"/>
<path d="M76 38.0492C76 37.5271 75.7467 37.0558 75.39 36.7947C74.9867 36.4828 74.48 36.4285 74.0233 36.5845L49.1733 42.2907C48.5633 42.4975 48.1567 43.1282 48.1567 43.7554V60.7201C46.8933 59.7267 45.32 59.1503 43.6 59.1503C39.3933 59.1503 36 62.6561 36 66.9959C36 71.3358 39.3933 74.8449 43.6 74.8449C47.6533 74.8449 50.9967 71.4917 51.1467 67.3112V67.0976V49.7193L72.96 45.0608V70.86C71.6933 69.8666 70.1233 69.2936 68.4033 69.2936C64.1967 69.2936 60.8 72.7994 60.8 77.1392C60.8 81.4791 64.1967 84.9848 68.4033 84.9848C72.4567 84.9848 75.7967 81.635 75.9467 77.4545V77.2409V38.0492H76Z" fill="#6F219E"/>
</svg>
